<?xml version="1.0" encoding="utf-8"?>
<!-- Generator: Adobe Illustrator 26.5.2, SVG Export Plug-In . SVG Version: 6.00 Build 0)  -->
<svg version="1.1" id="Layer_2_00000085236418357898809240000009239520875103324847_"
	 xmlns="http://www.w3.org/2000/svg" xmlns:xlink="http://www.w3.org/1999/xlink" x="0px" y="0px" viewBox="0 0 216 216"
	 style="enable-background:new 0 0 216 216;" xml:space="preserve">
<style type="text/css">
	.st0{fill:url(#SVGID_1_);}
	.st1{fill:#FFFFFF;}
</style>
<linearGradient id="SVGID_1_" gradientUnits="userSpaceOnUse" x1="24.271" y1="227.5774" x2="191.2883" y2="-10.948" gradientTransform="matrix(1 0 0 -1 0 216)">
	<stop  offset="0" style="stop-color:#EBC036"/>
	<stop  offset="8.532234e-02" style="stop-color:#FFFBCC"/>
	<stop  offset="9.311173e-02" style="stop-color:#FDF8C7"/>
	<stop  offset="0.1608" style="stop-color:#F0E4A8"/>
	<stop  offset="0.2265" style="stop-color:#E7D592"/>
	<stop  offset="0.2889" style="stop-color:#E1CC84"/>
	<stop  offset="0.3444" style="stop-color:#E0CA80"/>
	<stop  offset="0.4466" style="stop-color:#E1CA7B"/>
	<stop  offset="0.55" style="stop-color:#E5CA6F"/>
	<stop  offset="0.6538" style="stop-color:#ECCA5B"/>
	<stop  offset="0.6606" style="stop-color:#EDCA5A"/>
	<stop  offset="0.6637" style="stop-color:#EDCA5B"/>
	<stop  offset="0.7373" style="stop-color:#F5D773"/>
	<stop  offset="0.8147" style="stop-color:#FADF84"/>
	<stop  offset="0.8987" style="stop-color:#FDE58E"/>
	<stop  offset="1" style="stop-color:#FFE792"/>
</linearGradient>
<rect x="3.6" y="3.6" class="st0" width="208.8" height="208.8"/>
<g>
	<g>
		<path d="M81,29.3c1.4,0,1.6,0.6,1.6,1.3h-3.1c0-0.7,0.4-0.7,1.1-0.7v-0.1h-2.3v0.1c0.7,0,1.1,0.1,1.1,0.7h-2.9
			c0-0.7,0.1-1.2,1.6-1.2v-0.1h-1.7v2.5h0.1v-0.4h6v0.4h0.1v-2.5L81,29.3L81,29.3L81,29.3z"/>
		<path d="M81,17c1.4,0,1.6,0.6,1.6,1.3h-3.1c0-0.7,0.4-0.7,1.1-0.7v-0.1h-2.3v0.1c0.7,0,1.1,0.1,1.1,0.7h-2.9
			c0-0.7,0.1-1.2,1.6-1.2V17h-1.7v2.5h0.1v-0.4h6v0.4h0.1V17L81,17L81,17L81,17z"/>
		<path d="M76.5,26.5v-0.4h-0.1v1.6h0.1v-0.4h6v0.4h0.1v-2.5H81v0.1c1.4,0,1.6,0.6,1.6,1.3L76.5,26.5L76.5,26.5z"/>
		<path d="M76.5,22.4V22h-0.1v1.6h0.1v-0.4h6v0.4h0.1v-2.5H81v0.1c1.4,0,1.6,0.6,1.6,1.3L76.5,22.4L76.5,22.4z"/>
		<path d="M85.6,18.2v12.1h1.7c0.9,0,1.7-0.1,2.4-0.4c0.7-0.3,1.4-0.6,1.9-1.2c1.2-1.1,1.9-2.7,1.9-4.5c0-1.8-0.6-3.3-1.7-4.4
			c-0.5-0.5-1.2-0.9-2-1.2c-0.7-0.3-1.5-0.4-2.4-0.4c0,0-0.2,0-0.2,0L85.6,18.2L85.6,18.2z M92.5,29.5c-1.4,1.3-3,1.8-5.3,1.8h-2.9
			V17h2.9c2.3,0,3.9,0.6,5.3,1.8c1.5,1.3,2.3,3.2,2.3,5.4S94,28.2,92.5,29.5L92.5,29.5z"/>
		<polygon points="96.2,31.4 96.2,17 103.3,17 103.3,18.2 97.4,18.2 97.4,22.9 103.2,22.9 103.2,24.1 97.4,24.1 97.4,30.2 
			103.3,30.2 103.3,31.4 		"/>
		<path d="M124.3,18c-3.4,0-6.2,2.8-6.2,6.3c0,3.4,2.8,6.2,6.2,6.2c3.4,0,6.2-2.8,6.2-6.2C130.5,20.8,127.7,18,124.3,18z
			 M124.3,31.6c-4.1,0-7.5-3.4-7.5-7.4c0-4.1,3.4-7.5,7.5-7.5c4.1,0,7.5,3.4,7.5,7.4C131.8,28.3,128.4,31.6,124.3,31.6L124.3,31.6z"
			/>
		<path d="M134.2,18.2v5.5h1.2c0,0,0.1,0,0.1,0c0.5,0,0.9-0.1,1.3-0.2c0.4-0.1,0.7-0.3,1-0.5c0.5-0.5,0.8-1.2,0.8-2.1
			c0-1-0.4-1.8-1-2.2c-0.3-0.2-0.6-0.3-1-0.4c-0.3-0.1-0.7-0.1-1.2-0.1c0,0-0.1,0-0.2,0H134.2L134.2,18.2z M132.9,17h2.2
			c1.6,0,2.5,0.2,3.3,0.8c0.9,0.6,1.5,1.7,1.5,3c0,0.1,0,0.2,0,0.4c-0.1,1.5-0.9,2.7-2.1,3.3c-0.5,0.2-0.9,0.3-1.7,0.4
			c0,0,0,0-0.1,0l4.6,6.6h-1.5l-4.5-6.6h-0.4v6.6h-1.3L132.9,17L132.9,17z"/>
		<path d="M111.8,16.8c1.6,0,2.9,0.5,4.2,1.4c0.1,0.1,0.2,0.1,0.3,0.2v1.7c-0.9-1-1.4-1.3-2.5-1.7c-0.7-0.3-1.4-0.4-2.2-0.4
			c-3.3,0-6.1,2.8-6.1,6.1c0,0.1,0,0.2,0,0.3c0.1,3.2,2.7,5.9,5.8,6c0.2,0,0.4,0,0.6,0c1.1-0.1,2.3-0.5,3.3-1.1
			c0.2-0.1,0.5-0.3,0.7-0.6c0.1-0.1,0.2-0.1,0.3-0.3v1.6c-1.5,1.1-2.9,1.6-4.6,1.6c-4.1,0-7.5-3.4-7.5-7.4
			C104.3,20.2,107.7,16.8,111.8,16.8L111.8,16.8z"/>
	</g>
</g>
<path d="M162,197.4H183L109,36.3L35.2,197.4h20.9l17.4-39.7h71L162,197.4L162,197.4z M80.9,140.9l28-63.9l28.2,63.9H80.9z"/>
<g>
	<path class="st1" d="M37,70.6h-6.4v-6.8h20.7v6.8h-6.4v22H37L37,70.6L37,70.6z"/>
	<path class="st1" d="M54.6,63.8h7.8V75h10.5V63.8h7.8v28.8h-7.8V80.8H62.5v11.7h-7.8V63.8L54.6,63.8z"/>
	<path class="st1" d="M86.5,63.8h17.6v6.3h-10v5h9.4v6.2h-9.4v4.9h10v6.4H86.5V63.8z"/>
</g>
<g>
	<path class="st1" d="M108.1,112.2h7.8v22.1h9.7v6.7h-17.6V112.2z"/>
	<path class="st1" d="M129,112.2h7.9v28.8H129V112.2z"/>
	<path class="st1" d="M150.6,135.6c2.2,0,3.6-1.3,3.6-3c0-2.3-1.6-3-4.8-3.8c-5.2-1.4-7.7-3.5-7.7-8c0-5.4,3.9-9.3,9.9-9.3
		c3.2,0,6,0.8,8.5,2.6l-2.5,5.6c-1.8-1.5-3.7-2.3-5.5-2.3c-1.9,0-3.2,1-3.2,2.4c0,2.1,2,2.5,4.6,3.2c5.1,1.4,7.9,3.3,7.9,8.6
		c0,6-4.3,10.1-11,10.1c-4.1,0-7.1-1.3-10.2-4.2l3.5-5.8C146,134.3,148.3,135.6,150.6,135.6L150.6,135.6z"/>
	<path class="st1" d="M169.7,119h-6.4v-6.8H184v6.8h-6.4v22h-7.8V119z"/>
</g>
</svg>
