<?xml version="1.0" encoding="utf-8"?>
<!-- Generator: Adobe Illustrator 27.7.0, SVG Export Plug-In . SVG Version: 6.00 Build 0)  -->
<svg version="1.1" xmlns="http://www.w3.org/2000/svg" xmlns:xlink="http://www.w3.org/1999/xlink" x="0px" y="0px"
	 viewBox="0 0 288 96.2" style="enable-background:new 0 0 288 96.2;" xml:space="preserve">
<style type="text/css">
	.st0{display:none;}
	.st1{display:inline;}
	.st2{fill:#C12227;}
	.st3{fill:#C50018;}
</style>
<g id="SoicherMarin" class="st0">
	<g class="st1">
		<path d="M79.7,62.7c-0.3-0.6-0.6-1-1.1-1.4c-0.5-0.4-1-0.6-1.6-0.8c-0.6-0.2-1.3-0.2-2-0.2c-0.6,0-1.1,0.1-1.7,0.2
			c-0.6,0.1-1.2,0.3-1.6,0.6c-0.5,0.3-0.9,0.7-1.2,1.2c-0.3,0.5-0.5,1.1-0.5,1.8c0,0.7,0.2,1.3,0.5,1.8c0.3,0.4,0.7,0.8,1.3,1.1
			c0.5,0.3,1.1,0.5,1.8,0.6c0.7,0.2,1.3,0.3,2,0.5c0.8,0.2,1.5,0.4,2.1,0.6c0.7,0.2,1.3,0.4,1.8,0.7c0.5,0.3,0.9,0.7,1.2,1.2
			c0.3,0.5,0.4,1.2,0.4,2c0,0.8-0.2,1.4-0.5,2c-0.3,0.5-0.8,1-1.3,1.4c-0.5,0.4-1.2,0.6-1.8,0.8s-1.4,0.2-2.1,0.2
			c-0.9,0-1.8-0.1-2.5-0.3c-0.8-0.2-1.4-0.6-2-1c-0.6-0.5-1-1.1-1.3-1.8c-0.3-0.7-0.5-1.6-0.4-2.7h0.5c0,1,0.1,1.8,0.4,2.5
			c0.3,0.7,0.7,1.2,1.2,1.7c0.5,0.4,1.1,0.7,1.9,0.9c0.7,0.2,1.5,0.3,2.4,0.3c0.6,0,1.3-0.1,1.9-0.2c0.6-0.1,1.2-0.4,1.7-0.7
			c0.5-0.3,0.9-0.7,1.2-1.2c0.3-0.5,0.5-1.1,0.5-1.8c0-0.8-0.2-1.5-0.5-2c-0.4-0.5-0.8-0.9-1.4-1.1c-0.6-0.3-1.2-0.5-1.8-0.6
			c-0.7-0.1-1.3-0.3-1.9-0.4c-0.6-0.2-1.3-0.3-1.9-0.5c-0.6-0.2-1.2-0.4-1.8-0.7c-0.5-0.3-0.9-0.7-1.3-1.2c-0.3-0.5-0.5-1.1-0.5-1.9
			c0-0.8,0.2-1.5,0.5-2c0.3-0.5,0.8-1,1.3-1.3c0.5-0.3,1.1-0.5,1.8-0.7c0.7-0.1,1.3-0.2,2-0.2c0.8,0,1.5,0.1,2.2,0.3
			c0.7,0.2,1.3,0.5,1.8,0.8c0.5,0.4,0.9,0.9,1.2,1.5c0.3,0.6,0.5,1.4,0.5,2.3h-0.5C80.1,64,80,63.3,79.7,62.7z"/>
		<path d="M82.6,68.4c0-1.2,0.2-2.3,0.5-3.3c0.3-1,0.8-1.9,1.4-2.7c0.6-0.8,1.4-1.4,2.3-1.9c0.9-0.5,2-0.7,3.2-0.7
			c1.2,0,2.3,0.2,3.2,0.7c0.9,0.5,1.7,1.1,2.3,1.9c0.6,0.8,1.1,1.7,1.4,2.7c0.3,1,0.5,2.1,0.5,3.3c0,1.2-0.2,2.3-0.5,3.3
			c-0.3,1-0.8,1.9-1.4,2.7c-0.6,0.8-1.4,1.4-2.3,1.8c-0.9,0.4-2,0.7-3.2,0.7c-1.2,0-2.3-0.2-3.2-0.7c-0.9-0.4-1.7-1.1-2.3-1.8
			c-0.6-0.8-1.1-1.7-1.4-2.7C82.7,70.7,82.6,69.6,82.6,68.4z M83,68.4c0,1.2,0.2,2.3,0.5,3.2c0.3,1,0.8,1.8,1.4,2.6
			c0.6,0.7,1.3,1.3,2.2,1.7c0.9,0.4,1.8,0.6,2.9,0.6s2.1-0.2,2.9-0.6c0.9-0.4,1.6-1,2.2-1.7c0.6-0.7,1.1-1.6,1.4-2.6
			c0.3-1,0.5-2.1,0.5-3.2c0-1.2-0.2-2.3-0.5-3.2c-0.3-1-0.8-1.8-1.4-2.6c-0.6-0.7-1.3-1.3-2.2-1.7c-0.9-0.4-1.8-0.6-2.9-0.6
			s-2.1,0.2-2.9,0.6c-0.9,0.4-1.6,1-2.2,1.7c-0.6,0.7-1.1,1.6-1.4,2.6C83.2,66.2,83,67.2,83,68.4z"/>
		<path d="M99.7,60.3v16.3h-0.5V60.3H99.7z"/>
		<path d="M115.3,72.9c-0.4,0.8-0.9,1.5-1.5,2.1c-0.6,0.6-1.3,1.1-2.1,1.4c-0.8,0.3-1.7,0.5-2.8,0.5c-1.1,0-2.1-0.2-3-0.6
			c-0.9-0.4-1.7-1-2.3-1.7c-0.6-0.7-1.1-1.6-1.5-2.7c-0.4-1-0.5-2.2-0.5-3.4c0-1,0.1-2,0.4-3c0.3-1,0.7-2,1.3-2.8
			c0.6-0.8,1.4-1.5,2.4-2.1c1-0.5,2.1-0.8,3.5-0.8c1.1,0,2,0.2,2.8,0.5c0.8,0.4,1.5,0.8,2,1.3c0.5,0.5,0.9,1.1,1.2,1.7
			c0.3,0.6,0.4,1.2,0.4,1.7h-0.5c0-0.6-0.2-1.2-0.5-1.7c-0.3-0.6-0.7-1.1-1.2-1.5c-0.5-0.5-1.1-0.8-1.9-1.1
			c-0.7-0.3-1.5-0.4-2.4-0.4c-1.3,0-2.4,0.3-3.4,0.8c-0.9,0.5-1.6,1.2-2.2,2c-0.6,0.8-1,1.7-1.2,2.7c-0.2,1-0.4,1.9-0.4,2.7
			c0,1,0.2,2,0.5,3c0.3,1,0.7,1.8,1.3,2.5c0.6,0.7,1.3,1.3,2.2,1.8c0.9,0.4,1.8,0.7,2.9,0.7c1,0,1.8-0.2,2.6-0.5
			c0.8-0.3,1.4-0.8,2-1.3c0.6-0.6,1-1.2,1.4-2c0.3-0.8,0.6-1.6,0.7-2.5h0.5C115.9,71.2,115.6,72.1,115.3,72.9L115.3,72.9z"/>
		<path d="M118.2,76.6h-0.5V60.3h0.5v7.6h11.3v-7.6h0.5v16.3h-0.5v-8.3h-11.3L118.2,76.6L118.2,76.6z"/>
		<path d="M143.1,76.1v0.5h-10.8V60.3H143v0.5h-10.3v7.1h9.7v0.5h-9.7v7.8H143.1z"/>
		<path d="M144.5,76.6V60.3h6.6c1.7,0,2.9,0.3,3.7,1c0.8,0.7,1.2,1.7,1.2,3.2c0,1.1-0.3,2-0.9,2.7c-0.6,0.7-1.5,1.2-2.6,1.5v0
			c0.7,0.1,1.2,0.3,1.7,0.5c0.4,0.2,0.7,0.5,1,0.9c0.2,0.4,0.4,0.8,0.5,1.3c0.1,0.5,0.1,1.1,0.1,1.8c0,0.2,0,0.5,0,0.9
			c0,0.3,0,0.7,0.1,1c0,0.3,0.1,0.6,0.1,0.9s0.1,0.5,0.2,0.6h-0.5c-0.1-0.2-0.1-0.4-0.2-0.7c0-0.3-0.1-0.6-0.1-0.9c0-0.3,0-0.6,0-1
			c0-0.3,0-0.6,0-0.9c0-0.7,0-1.3-0.1-1.8c-0.1-0.5-0.3-1-0.6-1.3c-0.3-0.4-0.7-0.6-1.3-0.8c-0.6-0.2-1.3-0.3-2.2-0.3h-6.1v7.7
			C144.9,76.6,144.5,76.6,144.5,76.6z M151,68.5c0.6,0,1.2-0.1,1.7-0.2c0.6-0.2,1-0.4,1.5-0.7c0.4-0.3,0.8-0.8,1-1.3
			c0.3-0.5,0.4-1.1,0.4-1.8c0-1.2-0.4-2.1-1-2.7c-0.7-0.6-1.8-1-3.3-1h-6.3v7.7C144.9,68.5,151,68.5,151,68.5z"/>
		<path d="M174.5,60.3v16.3h-0.5V60.8h0l-6.9,15.7h-0.5l-6.9-15.7h0v15.7h-0.5V60.3h0.7l6.8,15.7h0l6.8-15.7H174.5z"/>
		<path d="M176,76.6h-0.5l6.5-16.3h0.6l6.4,16.3h-0.5l-2.1-5.4h-8.2L176,76.6L176,76.6L176,76.6z M182.3,60.7L182.3,60.7l-4,10h7.9
			L182.3,60.7L182.3,60.7z"/>
		<path d="M190,76.6V60.3h6.6c1.7,0,2.9,0.3,3.7,1c0.8,0.7,1.2,1.7,1.2,3.2c0,1.1-0.3,2-0.9,2.7c-0.6,0.7-1.5,1.2-2.6,1.5v0
			c0.7,0.1,1.2,0.3,1.7,0.5c0.4,0.2,0.7,0.5,1,0.9c0.2,0.4,0.4,0.8,0.5,1.3c0.1,0.5,0.1,1.1,0.1,1.8c0,0.2,0,0.5,0,0.9
			c0,0.3,0,0.7,0.1,1c0,0.3,0.1,0.6,0.1,0.9c0,0.3,0.1,0.5,0.2,0.6h-0.5c-0.1-0.2-0.1-0.4-0.2-0.7c0-0.3-0.1-0.6-0.1-0.9
			c0-0.3,0-0.6,0-1c0-0.3,0-0.6,0-0.9c0-0.7,0-1.3-0.1-1.8c-0.1-0.5-0.3-1-0.6-1.3c-0.3-0.4-0.7-0.6-1.3-0.8
			c-0.6-0.2-1.3-0.3-2.2-0.3h-6.1v7.7L190,76.6L190,76.6z M196.5,68.5c0.6,0,1.2-0.1,1.7-0.2c0.6-0.2,1-0.4,1.5-0.7
			c0.4-0.3,0.8-0.8,1-1.3c0.3-0.5,0.4-1.1,0.4-1.8c0-1.2-0.4-2.1-1-2.7c-0.7-0.6-1.8-1-3.3-1h-6.3v7.7H196.5z"/>
		<path d="M204.2,60.3v16.3h-0.5V60.3H204.2z"/>
		<path d="M207.4,60.3l11,15.7h0V60.3h0.5v16.3h-0.7l-11-15.7h0v15.7h-0.5V60.3H207.4z"/>
	</g>
</g>
<g id="Loloi" class="st0">
	<path class="st1" d="M130,68.5c0,4.7-3.8,8.5-8.5,8.5c-4.7,0-8.5-3.8-8.5-8.5c0-4.7,3.8-8.5,8.5-8.5C126.2,59.9,130,63.8,130,68.5z
		 M121.5,62.1c-3.5,0-6.4,2.9-6.4,6.4c0,3.5,2.9,6.4,6.4,6.4s6.4-2.9,6.4-6.4S125,62.1,121.5,62.1z"/>
	<path class="st1" d="M182.5,68.5c0,4.7-3.8,8.5-8.5,8.5s-8.5-3.8-8.5-8.5c0-4.7,3.8-8.5,8.5-8.5S182.5,63.8,182.5,68.5z M174,62.1
		c-3.5,0-6.4,2.9-6.4,6.4c0,3.5,2.9,6.4,6.4,6.4s6.4-2.9,6.4-6.4S177.5,62.1,174,62.1z"/>
	<polygon class="st1" points="200.4,61.9 200.4,60 194.1,60 194.1,61.9 196,61.9 196,74.3 194.1,74.3 194.1,76.3 200.4,76.3 
		200.4,74.3 198.4,74.3 198.4,61.9 	"/>
	<polygon class="st1" points="153.1,72.3 155.1,72.3 155.1,76.3 141.6,76.3 141.6,74.3 143.6,74.3 143.6,61.9 141.6,61.9 141.6,60 
		147.9,60 147.9,61.9 145.9,61.9 145.9,74.3 153.1,74.3 	"/>
	<polygon class="st1" points="100.2,72.3 102.2,72.3 102.2,76.3 88.7,76.3 88.7,74.3 90.7,74.3 90.7,61.9 88.7,61.9 88.7,60 
		95.1,60 95.1,61.9 93.1,61.9 93.1,74.3 100.2,74.3 	"/>
</g>
<g id="VisualComfort" class="st0">
	<g class="st1">
		<path d="M48.4,73.9c0.1,0,0.2-0.2,0.4-0.7l4.1-10.2c0.2-0.5,0.3-0.8,0.3-1.2c0-0.6-0.2-0.9-0.7-1c-0.3-0.1-0.5-0.1-0.6-0.1
			c-0.1,0-0.2-0.1-0.2-0.2c0-0.1,0-0.2,0.1-0.2c0.1-0.1,0.2-0.1,0.3-0.1c0.2,0,0.4,0,0.7,0c0.3,0,0.6,0,0.8,0c0.3,0,0.7,0,1.1,0
			c0.4,0,0.6,0,0.6,0c0.2,0,0.3,0,0.3,0.1c0.1,0,0.1,0.1,0.1,0.2c0,0.1-0.2,0.2-0.5,0.4c-0.3,0.2-0.6,0.6-0.9,1.4l-5.2,12.2
			c-0.5,1.1-0.8,1.8-0.9,2c-0.2,0.4-0.3,0.6-0.4,0.6c-0.1,0-0.2,0-0.3-0.1c-0.1-0.1-0.2-0.2-0.3-0.5c-0.1-0.1-0.2-0.4-0.4-0.8
			l-5.6-13.4c-0.3-0.8-0.7-1.2-1.2-1.4c-0.2-0.1-0.4-0.1-0.5-0.2c-0.1-0.1-0.2-0.1-0.2-0.2c0-0.1,0-0.2,0.1-0.2
			c0-0.1,0.2-0.1,0.3-0.1c0.2,0,0.5,0,0.9,0c0.4,0,0.8,0,1.1,0c0.3,0,0.6,0,1,0c0.4,0,0.6,0,0.8,0c0.2,0,0.3,0.1,0.3,0.2
			c0,0.1,0,0.2-0.1,0.2c-0.1,0.1-0.2,0.1-0.3,0.2c-0.3,0.2-0.5,0.5-0.5,0.7c0,0.3,0.1,0.6,0.2,0.8l4.6,10.9
			C48.1,73.8,48.2,73.9,48.4,73.9"/>
		<path d="M54.4,66.3c0-0.1,0-0.1,0.1-0.1c0,0,0.1,0,0.2,0c0.2,0,0.4,0,0.7,0c0.3,0,0.6,0,0.8,0c0.2,0,0.4,0,0.7,0
			c0.3,0,0.5,0,0.6,0c0.1,0,0.2,0,0.2,0c0.1,0,0.1,0.1,0.1,0.1c0,0.1,0,0.1-0.1,0.1c0,0-0.2,0.1-0.4,0.1c-0.4,0.1-0.6,0.4-0.6,0.9
			v7.8c0,0.3,0.1,0.6,0.2,0.7c0.1,0.1,0.4,0.3,0.8,0.3c0.1,0,0.2,0.1,0.2,0.1c0.1,0,0.1,0.1,0.1,0.2c0,0,0,0.1-0.1,0.1
			c0,0-0.1,0-0.2,0c-0.1,0-0.3,0-0.7,0c-0.4,0-0.7,0-0.9,0c-0.4,0-0.7,0-0.9,0c-0.2,0-0.4,0-0.6,0c-0.2,0-0.3-0.1-0.3-0.2
			c0-0.1,0.1-0.2,0.3-0.2c0.2-0.1,0.4-0.2,0.6-0.3c0.2-0.2,0.3-0.4,0.3-0.8v-7.7c0-0.5-0.2-0.8-0.7-0.9c-0.1,0-0.2-0.1-0.3-0.1
			C54.5,66.4,54.4,66.3,54.4,66.3"/>
		<path d="M67.2,73.7c0,0.9-0.4,1.6-1.1,2.2c-0.7,0.6-1.7,0.9-3,0.9c-0.6,0-1.2-0.1-1.7-0.3c-0.6-0.2-0.9-0.4-0.9-0.6l-0.4-1.8
			c0-0.2,0-0.3,0-0.3c0-0.2,0.1-0.3,0.2-0.3c0.1,0,0.2,0.1,0.2,0.2c0,0.2,0.1,0.3,0.1,0.5c0.2,0.6,0.6,1.2,1.2,1.5
			c0.6,0.4,1.2,0.6,1.9,0.6c0.7,0,1.4-0.2,1.9-0.6c0.5-0.4,0.8-1,0.8-1.7c0-0.4-0.2-0.8-0.5-1.1c-0.3-0.3-1.1-0.7-2.4-1
			c-1.3-0.3-2.1-0.7-2.6-1.2c-0.5-0.5-0.7-1.1-0.7-1.8c0-0.9,0.3-1.6,1-2.1c0.6-0.5,1.4-0.7,2.3-0.7c0.5,0,1,0,1.3,0.1
			c0.3,0.1,0.6,0.2,0.9,0.3c0.1,0,0.2,0.1,0.2,0.1c0,0,0.1,0,0.1,0c0.1,0,0.1,0,0.2-0.1c0-0.1,0.1-0.1,0.2-0.1
			c0.1,0,0.2,0.1,0.2,0.2l0.2,1.8c0,0.1,0,0.1,0,0.2c0,0.1,0,0.2-0.1,0.2c-0.1,0-0.2-0.1-0.3-0.4c-0.2-0.6-0.5-1-1-1.4
			c-0.5-0.4-1.1-0.6-1.8-0.6c-0.7,0-1.3,0.2-1.8,0.5c-0.5,0.3-0.7,0.8-0.7,1.4c0,0.6,0.3,1.1,1,1.5c0.7,0.3,1.6,0.6,2.6,0.9
			c0.9,0.3,1.5,0.6,1.9,1.1C67,72.4,67.2,73,67.2,73.7"/>
		<path d="M68.7,66.2c0,0,0-0.1,0.1-0.1c0.1,0,0.2,0,0.3,0c0.2,0,0.3,0,0.5,0c0.2,0,0.4,0,0.6,0c0.2,0,0.5,0,0.8,0
			c0.3,0,0.5,0,0.6,0c0.1,0,0.2,0,0.3,0c0.1,0,0.1,0.1,0.1,0.1c0,0.1,0,0.1-0.1,0.2c0,0-0.1,0.1-0.3,0.1c-0.2,0.1-0.4,0.2-0.5,0.3
			c-0.1,0.1-0.1,0.3-0.1,0.7v5.3c0,1.1,0.3,1.9,0.9,2.5c0.6,0.6,1.5,0.9,2.7,0.9c1.1,0,2-0.3,2.5-0.9c0.6-0.6,0.9-1.5,0.9-2.7v-4.9
			c0-0.6-0.3-1-0.8-1.2c-0.2,0-0.4-0.1-0.4-0.1c-0.1,0-0.1-0.1-0.1-0.2c0,0,0-0.1,0-0.1c0,0,0.1,0,0.2,0c0.2,0,0.4,0,0.8,0
			c0.3,0,0.6,0,0.8,0c0.1,0,0.3,0,0.5,0c0.2,0,0.3,0,0.4,0c0.1,0,0.2,0.1,0.2,0.2c0,0.1-0.1,0.2-0.3,0.3c-0.2,0.1-0.3,0.2-0.5,0.4
			c-0.1,0.2-0.2,0.4-0.2,0.8v5c0,1.3-0.4,2.3-1.1,3.1c-0.7,0.7-1.7,1.1-3.1,1.1c-3.1,0-4.7-1.5-4.7-4.4v-5.1c0-0.3,0-0.5-0.1-0.6
			c-0.1-0.1-0.3-0.2-0.6-0.3c-0.1,0-0.2-0.1-0.3-0.1C68.8,66.4,68.7,66.3,68.7,66.2"/>
		<path d="M85.1,67.9c-0.1,0-0.1,0.1-0.2,0.3l-1.5,3.3c0,0.1-0.1,0.1-0.1,0.2c0,0,0,0.1,0,0.1c0,0,0,0.1,0.1,0.1c0,0,0.1,0,0.2,0
			h2.9c0.2,0,0.3,0,0.3-0.1c0-0.1,0-0.1-0.1-0.3l-1.3-3.2C85.2,68,85.1,67.9,85.1,67.9 M90.9,76.6c0,0.1-0.1,0.1-0.2,0.1
			c-0.2,0-0.4,0-0.8,0c-0.4,0-0.7,0-0.9,0c-0.2,0-0.4,0-0.7,0c-0.3,0-0.4,0-0.6,0c-0.2,0-0.3,0-0.3-0.1c0-0.1,0-0.1,0.1-0.1
			c0.1,0,0.2-0.1,0.4-0.1c0.3-0.1,0.4-0.3,0.4-0.5c0-0.2-0.1-0.4-0.2-0.8l-0.8-2c-0.1-0.3-0.3-0.5-0.6-0.5h-3.3
			c-0.3,0-0.6,0.1-0.7,0.3l-0.9,1.9c-0.1,0.1-0.1,0.2-0.1,0.4c0,0.1-0.1,0.2-0.1,0.3c0,0.2,0.1,0.4,0.2,0.6c0.1,0.1,0.2,0.2,0.3,0.2
			c0.1,0,0.2,0,0.3,0.1c0.1,0,0.2,0.1,0.2,0.1c0,0.1-0.1,0.2-0.2,0.2c-0.3,0-0.5,0-0.8,0c-0.3,0-0.5,0-0.6,0c-0.1,0-0.3,0-0.6,0
			c-0.3,0-0.5,0-0.6,0c-0.1,0-0.2-0.1-0.2-0.2c0-0.1,0.1-0.2,0.3-0.3c0.2-0.1,0.4-0.2,0.5-0.3c0.1-0.1,0.2-0.3,0.4-0.6l4.1-8.9
			c0.1-0.2,0.2-0.3,0.2-0.4c0.1-0.1,0.1-0.1,0.2-0.1c0.1,0,0.1,0.1,0.2,0.2c0,0.1,0.1,0.3,0.2,0.5l3.2,7.9c0.2,0.6,0.5,1,0.6,1.3
			c0.2,0.3,0.5,0.5,0.9,0.5c0.1,0,0.2,0.1,0.3,0.1C90.9,76.4,90.9,76.5,90.9,76.6"/>
		<path d="M93.3,75v-7.6c0-0.3-0.1-0.5-0.3-0.6c-0.2-0.1-0.5-0.2-0.7-0.3c-0.1,0-0.2-0.1-0.2-0.2c0-0.2,0.1-0.2,0.3-0.2
			c0.1,0,0.3,0,0.6,0c0.3,0,0.6,0,0.9,0c0.3,0,0.6,0,0.9,0c0.3,0,0.5,0,0.5,0c0.2,0,0.3,0.1,0.3,0.2c0,0.1,0,0.1-0.1,0.2
			c-0.1,0-0.2,0.1-0.4,0.1c-0.4,0.1-0.6,0.5-0.6,1v7.8c0,0.3,0.1,0.5,0.3,0.6c0.2,0.1,0.4,0.1,0.8,0.1c0.9,0,1.7-0.1,2.4-0.3
			c0.6-0.2,1.1-0.5,1.4-0.8c0.1-0.1,0.3-0.3,0.4-0.4c0.1,0,0.1,0.1,0.1,0.2c0,0.4-0.3,0.9-0.8,1.5c-0.2,0.2-0.4,0.3-0.5,0.4
			c-0.2,0.1-0.5,0.1-0.8,0.1c-0.3,0-0.9,0-1.6,0c-0.7,0-1.2,0-1.4,0c-0.4,0-0.8,0-1.3,0c-0.4,0-0.7,0-1,0c-0.2,0-0.3,0-0.3-0.1
			c0-0.1,0.1-0.2,0.3-0.3c0.2-0.1,0.4-0.2,0.5-0.3C93.2,75.8,93.3,75.5,93.3,75"/>
		<path d="M120.7,65.1c0,0.3-0.1,0.4-0.2,0.4c-0.1,0-0.2-0.1-0.3-0.2c-0.1-0.1-0.2-0.3-0.2-0.5c-0.5-1-1.3-2-2.3-2.8
			c-1-0.9-2.3-1.3-3.9-1.3c-2.1,0-3.7,0.6-4.9,1.9c-1.2,1.3-1.8,3.1-1.8,5.4c0,2.2,0.6,4.2,1.9,5.7c1.3,1.6,2.9,2.3,4.9,2.3
			c1.7,0,3.2-0.5,4.6-1.4c0.4-0.3,0.8-0.6,1.1-0.9c0.3-0.3,0.5-0.6,0.6-0.9c0.1-0.3,0.2-0.4,0.4-0.4c0.1,0,0.2,0.1,0.2,0.2
			c0,0,0,0.1-0.1,0.3l-0.4,1.9c-0.1,0.5-0.8,0.9-2.2,1.3c-1.3,0.4-2.7,0.6-4.2,0.6c-3,0-5.1-0.8-6.6-2.3c-1.4-1.6-2.2-3.4-2.2-5.7
			c0-2.5,0.8-4.6,2.4-6.3c1.6-1.7,3.6-2.5,6-2.5c1.1,0,2.1,0.1,3,0.4c0.8,0.2,1.6,0.6,2.3,1c0.5,0.3,0.8,0.5,1,0.5
			c0.1,0,0.2,0,0.3-0.1c0.1-0.1,0.2-0.1,0.3-0.1c0.1,0,0.2,0.1,0.2,0.4l0.1,2.5C120.6,64.9,120.7,65.1,120.7,65.1"/>
		<path d="M123.5,70.9c0,1.5,0.4,2.8,1.3,3.8c0.9,1.1,2,1.6,3.4,1.6c1.2,0,2.1-0.4,2.8-1.3c0.7-0.8,1.1-1.9,1.1-3.2
			c0-1.5-0.4-2.7-1.3-3.8c-0.9-1.1-2-1.6-3.4-1.6c-1.2,0-2.1,0.4-2.9,1.2C123.9,68.5,123.5,69.6,123.5,70.9 M122.4,71.4
			c0-1.5,0.5-2.8,1.6-3.8c1-1,2.3-1.5,3.9-1.5c1.5,0,2.8,0.5,3.9,1.5c1,1,1.5,2.3,1.5,3.8c0,1.7-0.5,3.1-1.6,4c-1.1,1-2.4,1.5-4,1.5
			c-1.6,0-2.8-0.5-3.8-1.5C122.9,74.3,122.4,73,122.4,71.4"/>
		<path d="M136.1,69.2c-0.1,0-0.1,0.1-0.1,0.4l-0.2,4.6c0,0.3,0,0.5,0,0.5c0,0.9,0.3,1.4,1,1.5c0.1,0,0.2,0.1,0.2,0.1
			c0.1,0,0.1,0.1,0.1,0.2c0,0.1-0.1,0.1-0.3,0.1c-0.1,0-0.3,0-0.6,0c-0.3,0-0.6,0-0.8,0c-0.2,0-0.4,0-0.7,0c-0.3,0-0.5,0-0.5,0
			c-0.1,0-0.2-0.1-0.2-0.2c0-0.1,0.1-0.2,0.4-0.3c0.2-0.1,0.4-0.2,0.5-0.4c0.1-0.2,0.2-0.5,0.2-0.8l0.3-3.9c0-0.5,0.1-1,0.1-1.6
			c0-0.9-0.1-1.6-0.2-2.1c-0.2-0.5-0.5-0.8-0.9-1c-0.2-0.1-0.2-0.1-0.2-0.3c0-0.1,0.1-0.2,0.3-0.2c0,0,0.2,0,0.4,0
			c0.2,0,0.4,0,0.4,0c0.1,0,0.2,0,0.4,0c0.2,0,0.3,0,0.4,0c0.1,0,0.2,0.1,0.2,0.2l0.2,0.3l3.5,7.6c0.1,0.3,0.2,0.4,0.3,0.4
			c0,0,0.2-0.2,0.3-0.5l3.8-7.6c0.1-0.3,0.3-0.4,0.4-0.4c0.1,0,0.2,0,0.4,0c0.2,0,0.3,0,0.4,0c0.1,0,0.2,0,0.4,0c0.2,0,0.3,0,0.3,0
			c0.1,0,0.2,0.1,0.2,0.2c0,0.1-0.1,0.2-0.3,0.3c-0.3,0.1-0.5,0.2-0.6,0.4c-0.1,0.2-0.2,0.5-0.2,0.9l0,0.5l0.2,6.7
			c0,0.4,0.1,0.7,0.1,0.8c0.1,0.1,0.2,0.2,0.5,0.3c0.1,0,0.3,0.1,0.4,0.1c0.1,0,0.1,0.1,0.1,0.2c0,0.1-0.1,0.2-0.2,0.2
			c-0.1,0-0.3,0-0.7,0c-0.4,0-0.6,0-0.7,0c-0.2,0-0.4,0-0.7,0c-0.3,0-0.6,0-0.7,0c-0.1,0-0.2,0-0.2-0.1c0-0.1,0.1-0.2,0.3-0.3
			c0.4-0.1,0.6-0.3,0.6-0.5v-0.4c0,0,0-0.2,0-0.4l-0.1-5.5c0-0.4-0.1-0.6-0.1-0.6c-0.1,0-0.3,0.1-0.4,0.4l-3.2,6.5
			c-0.2,0.4-0.3,0.6-0.4,0.6c-0.1,0-0.2-0.2-0.3-0.5l-3-6.4C136.3,69.3,136.2,69.2,136.1,69.2"/>
		<path d="M150.3,70.5c0,0.2,0,0.3,0.1,0.4c0,0,0.2,0.1,0.4,0.1h1.7c0.6,0,1.1-0.2,1.2-0.6c0-0.1,0.1-0.2,0.1-0.4
			c0-0.1,0.1-0.2,0.2-0.2c0.1,0,0.2,0.1,0.2,0.4c0,0.1,0,0.3,0,0.6c0,0.3,0,0.6,0,0.8c0,0.2,0,0.4,0,0.6c0,0.2,0,0.4,0,0.5
			c0,0.2-0.1,0.2-0.2,0.2c-0.1,0-0.2-0.2-0.3-0.6c-0.1-0.5-0.4-0.7-0.9-0.7h-2.1c-0.2,0-0.3,0.1-0.3,0.3v3.2c0,0.7,0.3,1,0.9,1.2
			c0.3,0.1,0.5,0.2,0.5,0.3c0,0.1-0.1,0.1-0.3,0.1c-0.1,0-0.2,0-0.5,0c-0.3,0-0.6,0-1.1,0c-0.3,0-0.6,0-1,0c-0.3,0-0.5,0-0.6,0
			c-0.1,0-0.2,0-0.2-0.1c0-0.1,0.1-0.2,0.4-0.3c0.5-0.2,0.7-0.6,0.7-1.3v-7.2c0-0.8-0.3-1.2-0.8-1.3c-0.2,0-0.3-0.1-0.4-0.1
			c-0.1,0-0.1-0.1-0.1-0.1c0,0,0-0.1,0.1-0.1c0,0,0.3-0.1,0.8-0.1c0.6,0,1.4,0,2.3,0c0.9,0,1.4,0,1.5,0c0.3,0,0.7,0,1.2,0
			c0.5,0,0.8,0,0.9,0c0.1,0,0.2,0.1,0.2,0.4c0,1.1-0.1,1.7-0.3,1.7c-0.2,0-0.2-0.2-0.2-0.7c0-0.3-0.1-0.5-0.4-0.7
			c-0.3-0.1-0.8-0.2-1.5-0.2c-1.2,0-1.9,0-2,0.1c-0.1,0.1-0.1,0.3-0.1,0.6V70.5z"/>
		<path d="M157.3,70.9c0,1.5,0.4,2.8,1.3,3.8c0.9,1.1,2,1.6,3.4,1.6c1.2,0,2.1-0.4,2.8-1.3c0.7-0.8,1.1-1.9,1.1-3.2
			c0-1.5-0.4-2.7-1.3-3.8c-0.9-1.1-2-1.6-3.4-1.6c-1.2,0-2.1,0.4-2.9,1.2C157.7,68.5,157.3,69.6,157.3,70.9 M156.2,71.4
			c0-1.5,0.5-2.8,1.6-3.8c1-1,2.3-1.5,3.9-1.5c1.5,0,2.8,0.5,3.9,1.5c1,1,1.5,2.3,1.5,3.8c0,1.7-0.5,3.1-1.6,4c-1.1,1-2.4,1.5-4,1.5
			c-1.6,0-2.8-0.5-3.8-1.5C156.7,74.3,156.2,73,156.2,71.4"/>
		<path d="M174.5,69c0-0.8-0.2-1.4-0.7-1.8c-0.5-0.4-1.2-0.6-2.1-0.6c-0.4,0-0.6,0.1-0.7,0.2c-0.1,0.1-0.1,0.2-0.1,0.4v3.4
			c0,0.2,0,0.4,0.1,0.5c0.1,0.1,0.3,0.1,0.6,0.1c0.6,0,0.9,0,0.9,0c0.6,0,1.1-0.2,1.5-0.5C174.3,70.3,174.5,69.7,174.5,69 M178,76.6
			c0,0.1-0.3,0.2-0.9,0.2c-0.5,0-0.9-0.1-1.2-0.4c-0.3-0.2-0.7-0.6-1-1.2l-1.9-3.1c-0.1-0.2-0.3-0.3-0.4-0.4c-0.1,0-0.5-0.1-1.1-0.1
			c-0.3,0-0.4,0-0.5,0.1c-0.1,0-0.1,0.1-0.1,0.3v3.2c0,0.4,0.1,0.6,0.3,0.8c0.2,0.1,0.4,0.2,0.7,0.3c0.3,0.1,0.5,0.2,0.5,0.3
			c0,0.1,0,0.1-0.1,0.1c-0.1,0-0.3,0-0.6,0c-0.3,0-0.7,0-1.1,0c-0.2,0-0.5,0-0.9,0c-0.4,0-0.7,0-0.8,0c-0.2,0-0.2,0-0.2-0.1
			c0-0.1,0-0.1,0.1-0.1c0,0,0.1-0.1,0.3-0.1c0.2-0.1,0.3-0.2,0.5-0.4c0.2-0.2,0.2-0.5,0.2-1v-7.3c0-0.6-0.3-0.9-0.9-1
			c-0.3,0-0.4-0.1-0.4-0.3c0-0.1,0.1-0.2,0.3-0.2c0,0,0.2,0,0.3,0c0.2,0,0.4,0,0.7,0c0.2,0,0.7,0,1.3,0c0.6,0,1.1,0,1.4,0
			c2.2,0,3.2,0.9,3.2,2.6c0,0.7-0.2,1.2-0.6,1.7c-0.4,0.4-0.8,0.8-1.3,1l2.2,3.3c0.4,0.6,0.7,1,0.9,1.2c0.2,0.2,0.5,0.4,0.7,0.5
			c0.1,0,0.3,0.1,0.3,0.1C178,76.4,178,76.5,178,76.6"/>
		<path d="M187.1,67.9c0,0.2-0.1,0.2-0.2,0.2c-0.1,0-0.2,0-0.2-0.1c0-0.1-0.1-0.2-0.1-0.3c0-0.3-0.1-0.5-0.3-0.6
			c-0.2-0.1-0.4-0.2-0.7-0.2h-2.4c-0.2,0-0.3,0.1-0.3,0.3v8c0,0.3,0.1,0.6,0.2,0.7c0.2,0.2,0.3,0.3,0.5,0.3c0.2,0,0.3,0.1,0.3,0.1
			c0.1,0,0.1,0.1,0.1,0.2c0,0.1-0.1,0.2-0.2,0.2c-0.1,0-0.2,0-0.5,0c-0.3,0-0.5,0-0.8,0c-0.4,0-0.8,0-1.2,0c-0.4,0-0.6,0-0.7,0
			c-0.1,0-0.2-0.1-0.2-0.2c0-0.1,0.1-0.2,0.3-0.3c0.3-0.1,0.5-0.2,0.7-0.3c0.1-0.1,0.2-0.4,0.2-0.7v-8c0-0.2-0.1-0.3-0.2-0.3h-2.4
			c-0.4,0-0.6,0.1-0.7,0.2c-0.1,0.1-0.2,0.3-0.3,0.6c-0.1,0.2-0.1,0.4-0.1,0.5c0,0.1-0.1,0.1-0.2,0.1c-0.1,0-0.1-0.1-0.1-0.2
			c0,0,0-0.1,0-0.3l0.1-1.3c0-0.3,0.1-0.5,0.3-0.5c0.3,0,0.9,0,1.9,0c1,0,1.8,0,2.3,0c1.4,0,2.5,0,3.2,0c0.7,0,1.1,0,1.2,0
			c0.2,0,0.3,0,0.3,0.1c0.1,0.1,0.1,0.2,0.1,0.4l0.1,1C187.1,67.8,187.1,67.8,187.1,67.9"/>
		<path d="M197.5,66.7L197.5,66.7c-0.7,0-1.3,0.3-1.8,1c-0.5,0.7-0.8,1.4-0.8,2.2c0,1.5,0.6,2.8,1.8,4c1.2,1.1,2.6,1.7,4.2,1.7
			c1.5,0,2.9-0.5,4.1-1.5v0c-2.2-2.1-3.6-3.4-4-3.8l-1.9-2.2c-0.4-0.5-0.8-0.8-1-1.1C197.8,66.8,197.6,66.7,197.5,66.7 M210.1,77
			c-0.7,0-1.4-0.2-2-0.6c-0.5-0.3-1.2-0.8-2.2-1.7c-1.7,1.6-3.6,2.3-5.7,2.3c-1.8,0-3.3-0.5-4.5-1.6c-1.2-1.1-1.8-2.5-1.8-4.3
			c0-1.3,0.3-2.4,1-3.2c0.7-0.8,1.6-1.4,2.8-1.7c-0.7-0.8-1.1-1.7-1.1-2.6c0-1,0.4-1.7,1.1-2.3c0.7-0.6,1.6-0.9,2.6-0.9
			c0.8,0,1.4,0.1,1.8,0.3c0.4,0.2,0.7,0.3,0.7,0.3c0.1,0,0.1,0,0.1-0.1c0-0.1,0.1-0.1,0.2-0.1c0.2,0,0.3,0.2,0.3,0.5l0.1,2.3
			c0,0.2-0.1,0.2-0.2,0.2c-0.1,0-0.2-0.1-0.3-0.2c-0.1-0.1-0.1-0.3-0.2-0.4c-0.2-0.4-0.6-0.9-1.2-1.4c-0.6-0.5-1.2-0.8-1.8-0.8
			c-0.6,0-1.1,0.2-1.4,0.5c-0.4,0.4-0.5,0.8-0.5,1.3c0,0.9,1,2.5,3,4.6c2,2.1,3.8,3.9,5.4,5.4l0,0c0.4-0.5,0.6-1.3,0.6-2.3
			c0-0.8-0.1-1.4-0.4-1.7c-0.3-0.3-0.7-0.5-1.3-0.6c-0.3-0.1-0.5-0.2-0.5-0.4c0-0.1,0.2-0.2,0.5-0.2c0.3,0,0.7,0,1.1,0
			c0.4,0,0.7,0,1,0c0.1,0,0.3,0,0.6,0c0.3,0,0.6,0,0.8,0c0.3,0,0.4,0.1,0.4,0.3c0,0.1-0.1,0.2-0.3,0.2c-0.3,0.1-0.5,0.3-0.6,0.5
			c-0.1,0.2-0.2,0.5-0.2,1c0,0.7-0.2,1.4-0.4,2.1c-0.2,0.7-0.4,1.2-0.6,1.6l0,0c0.7,0.6,1.4,1.2,2,1.8c1,0.8,1.7,1.2,2.1,1.2
			c0.1,0,0.3,0,0.4,0c0.2,0,0.3,0,0.4,0c0.1,0,0.2,0.1,0.2,0.2c0,0.2-0.2,0.3-0.6,0.5C210.9,76.9,210.5,77,210.1,77"/>
		<path d="M232.5,65.2c0,0.3-0.1,0.4-0.2,0.4c-0.1,0-0.2-0.1-0.3-0.2c-0.1-0.1-0.1-0.3-0.2-0.5c-0.5-1-1.3-2-2.3-2.8
			c-1-0.9-2.3-1.3-3.9-1.3c-2.1,0-3.7,0.6-4.9,1.9c-1.2,1.3-1.8,3.1-1.8,5.4c0,2.2,0.6,4.2,1.9,5.7c1.3,1.6,2.9,2.3,4.9,2.3
			c1.7,0,3.2-0.5,4.6-1.4c0.4-0.3,0.8-0.6,1.1-0.9c0.3-0.3,0.5-0.6,0.6-0.9c0.1-0.3,0.2-0.4,0.4-0.4c0.1,0,0.2,0.1,0.2,0.2
			c0,0,0,0.1-0.1,0.3l-0.4,1.9c-0.1,0.5-0.8,0.9-2.2,1.3c-1.3,0.4-2.7,0.6-4.2,0.6c-3,0-5.1-0.8-6.6-2.3c-1.4-1.6-2.2-3.4-2.2-5.7
			c0-2.5,0.8-4.6,2.4-6.3c1.6-1.7,3.6-2.5,6-2.5c1.1,0,2.1,0.1,3,0.4c0.8,0.2,1.6,0.6,2.3,1c0.5,0.3,0.8,0.5,0.9,0.5
			c0.1,0,0.2,0,0.3-0.1c0.1-0.1,0.2-0.1,0.3-0.1c0.1,0,0.2,0.1,0.2,0.4l0.2,2.5C232.5,65,232.5,65.2,232.5,65.2"/>
		<path d="M235.3,71c0,1.5,0.4,2.8,1.3,3.8c0.9,1.1,2,1.6,3.4,1.6c1.2,0,2.1-0.4,2.8-1.3c0.7-0.8,1.1-1.9,1.1-3.2
			c0-1.5-0.4-2.7-1.3-3.8c-0.9-1.1-2-1.6-3.4-1.6c-1.2,0-2.1,0.4-2.9,1.2C235.7,68.6,235.3,69.7,235.3,71 M234.2,71.5
			c0-1.5,0.5-2.8,1.6-3.8c1-1,2.3-1.5,3.9-1.5c1.5,0,2.8,0.5,3.9,1.5c1,1,1.5,2.3,1.5,3.8c0,1.7-0.5,3.1-1.6,4c-1.1,1-2.4,1.5-4,1.5
			c-1.6,0-2.8-0.5-3.8-1.5C234.7,74.4,234.2,73.1,234.2,71.5"/>
		<path d="M246.4,75.8c0-0.1,0.1-0.2,0.2-0.2c0.1-0.1,0.2-0.1,0.3-0.2c0.1-0.1,0.2-0.2,0.3-0.3c0.1-0.1,0.2-0.2,0.3-0.2
			c0.1,0,0.2,0.1,0.2,0.2c0.1,0.1,0.2,0.2,0.2,0.3c0.1,0.1,0.2,0.2,0.3,0.3c0.1,0.1,0.2,0.1,0.2,0.2c0,0.1-0.1,0.2-0.2,0.2
			c-0.1,0.1-0.2,0.2-0.3,0.3c-0.1,0.1-0.2,0.2-0.3,0.3c-0.1,0.1-0.2,0.2-0.2,0.2c-0.1,0-0.2-0.1-0.2-0.2c-0.1-0.1-0.2-0.2-0.2-0.3
			c-0.1-0.1-0.2-0.2-0.3-0.2C246.5,76,246.4,75.9,246.4,75.8"/>
	</g>
</g>
<g id="LeeJofa" class="st0">
	<g class="st1">
		<g>
			<path d="M85.3,72.1v-0.6H88l0-16.8l-2.8,0l0-0.6l8.3,0l0,0.6h-2.8l0,16.8h4.3c1.4,0,2.5-0.4,3.3-1.3c0.8-0.9,1.4-2.1,1.8-3.7
				l0-0.1h0.5l0,5.8L85.3,72.1z"/>
			<path d="M105.6,72.1l0-0.6l2.3,0l0-13.9l-2.3,0l0-0.6l12.1,0l0,3.9l-0.5,0l0-0.1c-0.2-0.5-0.4-1-0.6-1.4c-0.2-0.4-0.4-0.7-0.7-1
				c-0.3-0.3-0.6-0.5-1-0.6c-0.4-0.1-0.9-0.2-1.4-0.2h-3.3l0,6.1h1.2c0.4,0,0.8,0,1.1-0.1c0.3-0.1,0.5-0.2,0.8-0.4
				c0.2-0.2,0.4-0.5,0.5-0.9c0.2-0.4,0.3-0.9,0.5-1.5l0-0.1l0.5,0l0,6.7l-0.5,0l0-0.1c-0.1-0.4-0.2-0.8-0.3-1.2
				c-0.1-0.4-0.2-0.7-0.4-1c-0.2-0.3-0.4-0.5-0.7-0.7c-0.3-0.2-0.7-0.2-1.1-0.2h-1.5l0,7.2l3.8,0c0.7,0,1.3-0.2,1.8-0.5
				c0.5-0.3,0.9-0.7,1.2-1.1c0.3-0.4,0.5-0.9,0.7-1.4c0.1-0.5,0.2-0.9,0.3-1.2l0-0.1l0.5,0v4.8L105.6,72.1L105.6,72.1z"/>
			<path d="M123.6,72.1l0-0.6l2.3,0l0-13.9l-2.3,0l0-0.6l12.1,0l0,3.9l-0.5,0l0-0.1c-0.2-0.5-0.4-1-0.6-1.4c-0.2-0.4-0.4-0.7-0.7-1
				c-0.3-0.3-0.6-0.5-1-0.6c-0.4-0.1-0.9-0.2-1.4-0.2h-3.3l0,6.1h1.2c0.4,0,0.8,0,1.1-0.1c0.3-0.1,0.5-0.2,0.8-0.4
				c0.2-0.2,0.4-0.5,0.5-0.9c0.2-0.4,0.3-0.9,0.5-1.5l0-0.1h0.5l0,6.7h-0.5l0-0.1c-0.1-0.4-0.2-0.8-0.3-1.2c-0.1-0.4-0.2-0.7-0.4-1
				c-0.2-0.3-0.4-0.5-0.7-0.7c-0.3-0.2-0.7-0.2-1.1-0.2h-1.5l0,7.2l3.8,0c0.7,0,1.3-0.2,1.8-0.5c0.5-0.3,0.9-0.7,1.2-1.1
				c0.3-0.4,0.5-0.9,0.7-1.4c0.2-0.5,0.2-0.9,0.3-1.2l0-0.1h0.5v4.8C136.5,72.1,123.6,72.1,123.6,72.1z"/>
			<path d="M155.1,64.6L155.1,64.6c0-1.1,0.2-2.2,0.7-3.1c0.4-0.9,1-1.8,1.7-2.5c0.7-0.7,1.5-1.3,2.3-1.7c0.9-0.4,1.8-0.6,2.6-0.6
				c0.9,0,1.8,0.2,2.7,0.6c0.9,0.4,1.7,1,2.3,1.7c0.7,0.7,1.2,1.5,1.7,2.5c0.4,1,0.6,2,0.6,3.1c0,1-0.2,2-0.6,2.9
				c-0.4,0.9-0.9,1.8-1.6,2.5c-0.7,0.7-1.4,1.3-2.3,1.8c-0.9,0.5-1.9,0.7-2.9,0.7c-1.1,0-2-0.2-2.9-0.7c-0.9-0.4-1.7-1-2.3-1.7
				c-0.6-0.7-1.2-1.6-1.5-2.5C155.3,66.6,155.1,65.6,155.1,64.6 M157.8,64.6L157.8,64.6c0,1.2,0.1,2.3,0.2,3.2
				c0.2,0.9,0.4,1.7,0.8,2.3c0.4,0.6,0.9,1,1.4,1.3c0.6,0.3,1.3,0.4,2.2,0.4c0.9,0,1.6-0.1,2.2-0.4c0.6-0.3,1.1-0.7,1.4-1.3
				c0.4-0.6,0.6-1.4,0.8-2.3c0.2-0.9,0.2-2,0.2-3.2c0-0.9-0.1-1.9-0.2-2.8c-0.1-0.9-0.4-1.7-0.7-2.3c-0.3-0.7-0.8-1.2-1.4-1.6
				c-0.6-0.4-1.4-0.6-2.4-0.6c-1,0-1.8,0.2-2.4,0.6c-0.6,0.4-1.1,0.9-1.4,1.6c-0.3,0.7-0.6,1.5-0.7,2.3
				C157.8,62.7,157.8,63.6,157.8,64.6"/>
			<path d="M173.1,72.1v-0.6l2.3,0l0-13.9l-2.3,0V57l12.1,0v3.9l-0.5,0l0-0.1c-0.2-0.5-0.4-1-0.6-1.4c-0.2-0.4-0.4-0.7-0.7-1
				c-0.3-0.3-0.6-0.5-1-0.6c-0.4-0.1-0.9-0.2-1.4-0.2l-3.3,0l0,6.4h1.2c0.4,0,0.8,0,1.1-0.1c0.3-0.1,0.5-0.2,0.8-0.4
				c0.2-0.2,0.4-0.5,0.5-0.9c0.2-0.4,0.3-0.9,0.5-1.5l0-0.1l0.5,0l0,6.7l-0.5,0l0-0.1c-0.1-0.4-0.2-0.8-0.3-1.2
				c-0.1-0.4-0.2-0.7-0.4-1c-0.2-0.3-0.4-0.5-0.7-0.7c-0.3-0.2-0.7-0.2-1.1-0.2l-1.5,0v6.9l2.3,0v0.6H173.1z"/>
			<path d="M149.2,65.6c0,1.5,0.2,4-0.4,5.3c-0.8,1.8-2.2,3.1-4.1,3.1c-0.8,0-1.4,0-2.3-0.5c-0.6-0.4-1.1-1.3-1.1-2.1
				c0-0.9,0.4-1.7,1.3-1.8c0.7-0.1,1.5,0.3,1.5,1.5c0,0.4-0.2,0.8-0.4,1c-0.1,0.2-0.3,0.4-0.3,0.7c0,0.5,1,0.6,1.2,0.6
				c1.2,0,1.5-1.2,1.5-2.4l0-16.3h-2.6l0-0.6h8.3l0,0.6h-2.8L149.2,65.6"/>
			<path d="M186.1,72.1v-0.6h1.9l5.6-14.9h0.7l5.6,14.9h1.9v0.6h-6.7v-0.6h2.2l-2.1-5.5h-4.6l-2.1,5.5h2.2v0.6H186.1L186.1,72.1z
				 M193,60l-2.1,5.5l4.2,0L193,60z"/>
		</g>
		<g>
			<path d="M125.6,87.2h-4.5v-6.1h4.5v0.7h-3.7v1.9h3.3v0.7h-3.3v2h3.7C125.6,86.5,125.6,87.2,125.6,87.2z"/>
			<path d="M129.8,87.3c-1,0-1.8-0.3-2.5-1l0,0l0.5-0.6l0,0c0.7,0.6,1.2,0.8,2,0.8c0.8,0,1.3-0.4,1.3-1v0c0-0.5-0.2-0.8-1.5-1.1
				c-1.2-0.3-2.1-0.7-2.1-1.8v0c0-1,0.9-1.7,2-1.7c0.9,0,1.5,0.2,2.2,0.8l0,0l-0.5,0.6l0,0c-0.5-0.4-1.1-0.6-1.7-0.6
				c-0.7,0-1.2,0.4-1.2,0.9v0c0,0.5,0.2,0.8,1.6,1.1c1.4,0.3,2,0.8,2,1.8v0C131.9,86.6,131,87.3,129.8,87.3"/>
			<path d="M136.3,87.2h-0.8v-5.4h-2v-0.7h4.8v0.7h-2L136.3,87.2L136.3,87.2z"/>
			<path d="M140.2,87.2h-0.9v-1h0.9V87.2z"/>
			<path d="M147.3,87.2h-0.8v-5.3l-1.1,0.3l-0.2-0.7l1.5-0.5h0.6C147.3,81,147.3,87.2,147.3,87.2z"/>
			<path d="M151.7,87.3c-1.3,0-2.3-0.7-2.3-1.8v0c0-0.7,0.4-1.2,1.2-1.5c-0.6-0.3-1-0.8-1-1.4v0c0-0.9,0.9-1.6,2.1-1.6
				c1.2,0,2.1,0.7,2.1,1.6v0c0,0.6-0.3,1.1-1,1.4c0.7,0.3,1.2,0.8,1.2,1.5v0C154,86.6,153.1,87.3,151.7,87.3 M151.7,84.4
				c-0.9,0-1.5,0.5-1.5,1.1v0c0,0.6,0.6,1.1,1.5,1.1s1.5-0.4,1.5-1.1v0C153.2,84.9,152.6,84.4,151.7,84.4 M151.7,81.7
				c-0.8,0-1.3,0.4-1.3,1v0c0,0.6,0.6,1,1.3,1c0.8,0,1.3-0.4,1.3-1v0C153,82.1,152.5,81.7,151.7,81.7"/>
			<path d="M160,87.2h-4.3v-0.6l0,0l2.2-1.9c0.9-0.8,1.2-1.3,1.2-1.9c0-0.7-0.6-1.1-1.2-1.1c-0.7,0-1.1,0.4-1.6,1l0,0l-0.6-0.4l0,0
				c0.5-0.8,1.1-1.3,2.2-1.3c1.1,0,1.9,0.7,1.9,1.8v0c0,0.9-0.5,1.4-1.5,2.4l-1.5,1.3h3.1L160,87.2L160,87.2z"/>
			<path d="M164,87.3c-1.2,0-1.9-0.6-2.3-1.1l0,0l0.6-0.5l0,0c0.5,0.6,1,0.9,1.7,0.9c0.7,0,1.3-0.5,1.3-1.1v0c0-0.7-0.6-1.1-1.6-1.1
				h-0.4l-0.2-0.5l1.8-2.1H162v-0.7h4v0.6l0,0l-1.8,2c1.2,0.1,1.9,0.8,1.9,1.7v0C166,86.5,165.2,87.3,164,87.3"/>
		</g>
	</g>
</g>
<g id="Century" class="st0">
	<g class="st1">
		<path d="M79.6,75.7c-1.3,0.4-2.9,0.8-4.8,0.8c-4.1,0-8.5-2.9-8.5-8.3c0-5.8,4.9-8.1,8.9-8.1c1.6,0,2.9,0.4,3.3,0.6
			c0.2,0.1,0.7,0.2,1.1,0.2c0.1,0,0.4-0.1,0.5-0.1c0.1,0,0.2,0.1,0.2,0.1c0,0-0.1,0.7-0.2,0.7c-0.2,0.7-0.4,1.6-0.5,2.3
			c-0.3-0.1-0.4-0.2-0.4-0.5c0-0.8-0.1-0.9-0.2-1.1c-0.4-0.6-2.4-1.7-4.3-1.7c-3.5,0-6.3,2.7-6.3,7.4c0,6.1,4.9,7.7,6.8,7.7
			c2.9,0,3.8-1.7,4.5-3c0.2-0.3,0.2-0.4,0.3-0.4c0.1,0,0.2,0.1,0.2,0.2c0,0.2-0.2,0.8-0.2,1C80,74.1,79.6,75.6,79.6,75.7z"/>
		<path d="M100.1,72.7c-0.3,1.9-0.5,2.6-1,3.7c-0.5-0.1-1.8-0.1-3.1-0.1c-1.2,0-2.4-0.1-2.4-0.1c-2.3,0-5.1,0.1-6.6,0.2l0-0.4
			c1.4-0.3,1.5-0.3,1.6-1.4c0.2-1.2,0.3-5.5,0.3-6.4l-0.1-3.9c-0.1-3.4-0.2-3.4-1.7-3.7c0-0.2,0-0.2,0-0.3h7.9c0.9,0,2.7-0.1,4-0.1
			c-0.1,0.9-0.3,3.2-0.6,3.2c-0.1,0-0.3,0-0.3-0.2c0-0.2,0.1-0.8,0.1-0.9c0-1.4-2.5-1.4-3.7-1.4c-1.7,0-2.8,0.1-3.8,0.3
			c-0.1,0.9-0.2,2-0.2,3.4c0,1.1,0,2.8,0,3.2c0.3,0,1,0,1.8,0c1.3,0,2.9,0,3.6-0.1c0.9-0.1,1-0.1,1.5-1.7l0.4,0c0,1.3,0,2.5,0,4.6
			h-0.4c-0.1-2.2-0.5-2.3-4.6-2.3c-1.2,0-1.7,0.1-2.2,0.1l-0.1,1.7c0,1,0,3.5,0.2,4.9c0.5,0.1,1.1,0.4,3.2,0.4c3.9,0,4.9-0.8,5.7-3
			H100.1z"/>
		<path d="M106.6,60.3c1.5,0.1,1.5,0.1,2.1,0.1l1.1,0c1.6,2,4.5,4.8,5.4,5.6l7.3,6.9c0.1-1.5,0.1-3.1,0.1-4.7v-2.4
			c0-4.8-0.4-4.8-2.5-5.2l0.1-0.4c0.2,0,0.4,0,0.6,0c0.2,0,1.1,0,1.7,0.1c0.6,0.1,1,0,1.2,0l1.6,0l0,0.4c-1,0.2-1.4,0.4-1.5,1.1
			c-0.4,1.6-0.4,7.4-0.4,9.6c0,1.4,0,3.8,0.1,5.2l-0.5,0c-0.8-1.8-4-4.8-5.1-5.8l-4.6-4.3c-0.4-0.3-3.3-3.1-3.4-3.2l-0.2,7.6
			c-0.1,4.6,0.1,4.6,2.9,5.1c0,0.2,0,0.3-0.1,0.5c-0.2,0-0.7,0-1.2-0.1s-1-0.1-1.2-0.1s-0.8,0-1.4,0.1c-0.6,0-1.2,0.1-1.4,0.1
			c-0.3,0-0.3-0.1-0.3-0.3c0-0.3,0.1-0.3,0.3-0.3c1.2-0.1,1.4-0.5,1.5-4.1l0.1-5.9c0.1-3.1,0.1-4.8-2.2-5.1V60.3z"/>
		<path d="M131.4,63c0.5-1.2,0.6-1.6,1-2.9c0.3,0.3,0.4,0.4,1,0.5c0.6,0.1,1.6,0.1,3.6,0.1h6.2c0.5,0,2.6-0.1,3-0.1
			c0.8,0,0.8-0.1,1.1-0.4c0.1,0.2,0.2,0.2,0.3,0.3c-0.3,0.7-0.6,2-0.7,2.5l-0.5,0.1c0.1-0.5,0.1-0.6,0.1-1.1c-0.4-0.3-1-0.7-3.6-0.7
			c-1.5,0-2.2,0.2-2.2,0.5l-0.1,1.6c0,0.2,0,0.4-0.1,2.2c0,0.9-0.1,5-0.1,5.9c0,2.8,0.7,4.3,2,4.5c0.5,0.1,0.6,0.1,0.6,0.2
			c0,0,0,0.3,0,0.3c-0.2,0-0.3,0-0.5,0c-0.2,0-0.7-0.1-1.3-0.1c-0.6-0.1-1.1-0.1-1.3-0.1c-0.5,0-1.2,0-2.6,0.2
			c-0.6,0.1-0.7,0.1-0.9,0.1c-0.3,0-0.3-0.1-0.4-0.4c0.2-0.1,0.4-0.1,0.8-0.2c1.7-0.4,1.8-0.6,1.8-1.5c0-0.1,0.1-1.2,0.1-1.4
			c0-0.3,0.1-2.7,0.1-5.2c0-4.5,0-5.7-0.3-6.5c-0.5-0.1-1.2-0.1-2.3-0.1c-3.5,0-3.7,0.5-4.2,1.7L131.4,63z"/>
		<path d="M154,60.5c0.6,0,1.2,0,1.8,0c2.1,0,2.1,0,4.1-0.1l0.1,0.4c-1.6,0.2-1.9,0.5-2.1,0.9c-0.4,0.7-0.4,4.6-0.4,5.8
			c0,2.3,0,4.1,0.3,5.2c0.6,2.9,4.1,3.1,4.9,3.1c1.2,0,4.5-0.4,5.2-2.6c0.6-1.8,0.7-5.7,0.7-7.8c0-4.4-0.5-4.4-2.2-4.4l-0.1-0.4
			c0.4-0.1,1-0.1,1.2-0.1c0.9,0,2.7,0,3.6,0V61c-1.6,0.1-1.6,0.2-1.6,2.3c-0.1,6.3-0.3,9.2-1.1,10.7c-1.3,2.3-5.1,2.6-6.4,2.6
			c-3.1,0-6.3-1.3-6.3-5.2c0-0.9,0.1-4.6,0.1-5.4c0-1.9-0.1-3.6-0.3-4.5c-0.1-0.4-0.2-0.4-1.5-0.5L154,60.5z"/>
		<path d="M183.5,68.8c-1,0-1.8,0-2.7-0.2l0,3c0,0.8,0,3.1,0.3,3.7c0.2,0.4,0.5,0.5,1.4,0.8c0.2,0.1,0.3,0.1,0.3,0.2s0,0.3-0.2,0.3
			c0,0-0.5-0.1-1-0.1c-0.5-0.1-1.1-0.1-1.3-0.1c-0.5,0-1.4,0-2.5,0.2c-0.1,0-0.2,0-0.2,0c-0.2,0-0.3-0.1-0.3-0.2s0.1-0.2,0.5-0.3
			c1-0.3,1.3-0.5,1.3-4.5v-5.5c0-4.9-0.1-4.9-1.8-5.1c0-0.2,0-0.3,0.1-0.4c0.7,0,1.2,0,1.7,0c0.6,0,3.8-0.3,4.5-0.3
			c3.6,0,5.5,2.1,5.5,4.2c0,1.6-1,3.2-3.4,4.1l0.6,0.8c2.3,3.5,4.7,7,7.2,7.2c0.2,0,0.2,0.1,0.2,0.3c0,0.1,0,0.2-0.6,0.2
			c-3.4,0-5.9-3.2-8-6.3L183.5,68.8z M182.9,68.1c0.8,0,4.3,0,4.3-3.4c0-1.4-1.2-4-4-4c-0.5,0-1.8,0.1-2,0.6
			c-0.3,0.6-0.3,4.4-0.3,6.6C181.2,68,181.8,68.1,182.9,68.1z"/>
		<path d="M195.8,60.5h1.2c0.3,0,1.5,0.1,1.8,0.1c0.7,0,1.5-0.1,2.3-0.1l0.6,0l-0.1,0.5c-0.9,0.1-1.5,0.1-1.5,0.5
			c0,0.6,4.1,6,4.7,6.7c0.2-0.3,0.3-0.4,1.1-1.6l0.9-1.4c0.5-0.8,1.7-2.7,1.7-3.3c0-0.9-1.2-0.8-1.7-0.8l0.1-0.5l1,0.1
			c0.3,0,1.4,0.1,1.6,0.1c0.4,0,2-0.1,2.4-0.1l0,0.5c-1.5,0.1-2,0.4-4.3,3.8l-1.4,2c-0.2,0.3-1.3,2-1.3,2l0.1,4c0,2.7,0,2.7,0.9,2.9
			c0.5,0.1,1,0.3,1.3,0.3l0,0.3c-0.2,0-0.3,0-0.9-0.1l-0.8-0.1c-0.3,0-0.5-0.1-0.8-0.1h-0.5c-0.2,0-0.8,0.1-1.5,0.1
			c-0.6,0.1-1.3,0.1-1.5,0.1v-0.4c0.6,0,1.3-0.1,1.7-0.5c0.3-0.3,0.4-0.4,0.4-5.1c0-0.7,0-1.2,0-1.5l-1-1.5
			c-0.9-1.3-1.9-2.7-2.5-3.4c-2.5-3.1-2.6-3.2-4.1-3.3L195.8,60.5z"/>
		<path d="M221.5,63.7c0,1.7-1.4,3-3,3c-1.7,0-3-1.3-3-3c0-1.7,1.4-3,3-3C220.1,60.7,221.5,62,221.5,63.7z M215.7,63.7
			c0,1.5,1.2,2.7,2.7,2.7s2.8-1.2,2.8-2.7c0-1.5-1.3-2.8-2.8-2.8S215.7,62.1,215.7,63.7z M216.8,61.8h1.6c0.8,0,1.3,0.4,1.3,1
			c0,0.7-0.7,0.9-0.9,0.9l0.9,1.3c0.3,0.4,0.4,0.4,0.5,0.4v0.1h-0.8l-1.2-1.7h-0.3v1c0,0.5,0,0.6,0.5,0.6v0.1h-1.6v-0.1
			c0.4,0,0.4-0.2,0.4-0.6v-2.2c0-0.4,0-0.6-0.4-0.6V61.8z M217.8,63.6c0.6,0,1.2-0.1,1.2-0.8c0-0.4-0.3-0.8-0.9-0.8
			c-0.2,0-0.3,0-0.4,0.1V63.6z"/>
	</g>
</g>
<g id="Divider">
	<path d="M11,45.8c85.1-0.7,180.6-0.7,265.8,0C191.6,46.5,96.1,46.5,11,45.8L11,45.8z"/>
</g>
<g id="CAC_logo" class="st0">
	<g class="st1">
		<path class="st2" d="M58.3,29.5L58.3,29.5C58.3,29.5,58.3,29.5,58.3,29.5z M69,31.6L69,31.6C69,31.5,69,31.6,69,31.6z M89.3,23
			c-0.3-0.6-0.2-1.3-0.4-1.9c-0.4-0.4-0.8-0.9-1.5-0.7c-0.1,0.4-0.3,0.6-0.7,0.5c-0.1,0.1-0.1,0.3-0.1,0.3c-0.3,0.2-0.5,0.5-0.7,0.7
			c-0.3,0.3-0.5,0.5-0.8,0.8c-0.2,0.2-0.5,0.4-0.5,0.6c-0.1,0.4-0.4,0.3-0.5,0.5c-0.1,0.2-0.2,0.3-0.3,0.5c-0.1,0.1-0.3,0.2-0.4,0.3
			c-0.3,0.2-0.6,0.4-0.8,0.6c-0.2,0.2-0.4,0.5-0.6,0.7c-0.2,0.2-0.4,0.5-0.6,0.7c-0.2,0.2-0.4,0.4-0.6,0.6c-0.1,0.1-0.2,0.2-0.2,0.3
			c-0.5,0.3-1.1,0.5-1.4,1.2c0,0.1-0.1,0.1-0.1,0.1c-0.2,0.1-0.6,0.2-0.7,0.4c-0.2,0.3-0.4,0.4-0.6,0.6c-0.2,0.3-0.6,0.4-0.8,0.7
			c-0.4,0-0.7,0.4-1,0.5c-0.4,0.1-0.7,0.4-1,0.2c-0.3-0.1-0.4,0-0.7,0c-0.1-0.2-0.2-0.5-0.4-0.7c-0.4-0.7-0.3-2.2,0.2-2.8
			c0.3-0.3,0.4-0.8,0.6-1.2c0.2-0.1,0.5-0.3,0.8-0.5c-0.3-0.6,0.5-0.6,0.7-1c0.1-0.4,0.5-0.6,0.6-1.1c0.1-0.4,0.4-0.7,0.7-1.1
			c-0.2-0.5-0.4-0.9-0.6-1.4c-0.5,0-0.9,0.1-1.2,0.5c-0.4,0.5-0.7,1.1-1,1.6c-0.4,0.7-0.8,1.4-1.3,2.1c-0.6,1-0.6,1.1-1.7,1.6
			c-0.1,0.1-0.2,0.2-0.3,0.2c-0.2,0.2-0.3,0.5-0.6,0.6c-0.4,0.1-0.4,0.5-0.6,0.6c-0.4,0.2-0.7,0.5-1,0.8c-0.9,0.1-1.7,0.7-2.5,1.2
			c0,0.2,0,0.3-0.1,0.6c-0.3-0.2-0.5-0.3-0.7-0.5c-0.2,0.3-0.5-0.1-0.6,0.2c-0.2-0.3-0.4,0.1-0.6,0c-0.2-0.1-0.5-0.2-0.7-0.2
			c-0.2-0.2-0.5-0.5-0.7-0.7c-0.1-0.3-0.2-0.5-0.2-0.8c0-0.4-0.1-0.9,0-1.2c0.2-0.5,0.4-1,0.7-1.5c0.3-0.5,0.7-0.9,1-1.4
			c0.3-0.5,0.6-1,0.8-1.5c-0.2-0.3,0-0.5,0.3-0.8c-0.2-0.2-0.4-0.3-0.6-0.5c0-0.2,0-0.3-0.1-0.4h-0.4c-1,0.7-1.4,1.8-2,2.6
			c0,0,0.1,0.1,0.2,0.2c-0.6,0.7-1.2,1.3-1.8,2c-0.6,0.7-1.2,1.4-1.7,2c-0.2,0-0.4,0-0.5,0c0,0.3,0,0.6-0.4,0.7c0,0-0.1-0.1-0.1-0.1
			c-0.7-0.1-0.5,0.8-1.2,0.6c-0.4,0.2-0.8,0.4-1.2,0.3c-0.2-0.2-0.3-0.3-0.4-0.4c-0.1-0.7,0.1-1.4-0.2-2.1c0-0.1,0-0.2,0-0.3
			c0.3-0.6,0.3-1.3,0.3-2c0-0.3,0.1-0.5,0.1-0.8c0-0.2-0.3-0.4,0.1-0.6c0,0,0.1-0.3,0-0.3c-0.3-0.3-0.1-0.7-0.2-1.2
			c-0.3-0.4-0.6-0.8-1-1.3c-0.2,0.1-0.3,0.2-0.5,0.3c-0.5,0.4-0.9,0.9-1.4,1.4c-0.5,0.4-0.8,1.1-1.4,1.4c-0.1,0-0.1,0.1-0.1,0.2
			c-0.5,0.7-1,1.3-1.5,1.9c-0.3,0.3-0.5,0.7-0.7,1.1c0,0,0.1,0.2,0.1,0.3c-0.2,0.1-0.4,0.3-0.6,0.4c-0.2,0.1-0.5,0.2-0.5,0.4
			c-0.1,0.3-0.3,0.5-0.5,0.7c-0.2,0.3-0.5,0.5-0.6,0.8c-0.2,0.5-0.7,0.4-1,0.8c-0.1-0.2-0.2-0.4-0.3-0.7c0.2-0.1,0.3-0.2,0.5-0.3
			c-0.1-0.6-0.4-1.2-0.1-1.8c-0.3-0.3,0.3-0.6,0.1-0.9c0.1-0.8,0.1-1.6,0.2-2.4c0-0.1,0-0.1,0-0.2c0.3-0.2,0.1-0.5,0.2-0.7
			c0.1-0.3,0.2-0.5,0.2-0.8c0-0.6,0-1.1,0-1.4c-0.5-0.5-0.8-0.8-1.1-1.2c-0.6,0.7-1.3,1.3-1.8,2.2c-0.1-0.1-0.1-0.1-0.2-0.2
			c0,0.5-0.8,0.6-0.6,1.2c-0.2,0.1-0.4,0.1-0.6,0.3c-0.4,0.4-1,0.8-1.2,1.4c-0.5,0.2-0.7,0.9-1.2,1.1c-0.1,0-0.2,0.2-0.3,0.4
			c-0.1,0.1-0.1,0.3-0.2,0.3c-0.3,0.1-0.5,0.4-0.7,0.6c-0.2,0.2-0.7,0.2-0.7,0.7c-0.4,0-0.4,0.5-0.6,0.6c-0.4,0.1-0.5,0.4-0.8,0.7
			c-0.3,0.4-0.8,0.5-1.1,0.8c-0.6,0.5-1.3,0.7-1.8,1.2c-0.3-0.4-0.5,0.1-0.8,0c-0.3-0.1-0.6-0.2-0.7-0.3c-0.2-0.5-0.3-0.8-0.5-1.2
			c0-0.2,0-0.4,0-0.7c0-0.5,0.2-1,0.4-1.4c0.1-0.2,0.3-0.4,0.3-0.7c0-0.3,0.2-0.5,0.3-0.6c-0.1-0.2-0.1-0.3-0.1-0.5
			c0.2,0,0.4,0,0.4,0c0.5-0.7,0.8-1.5,0.6-2.3c-0.3-0.3-0.5-0.5-0.7-0.7c-0.5,0.1-0.8,0.3-0.9,0.8c-0.1,0.4-0.3,0.7-0.5,1.1
			c-0.1,0.2-0.1,0.4-0.2,0.7c-0.2,0.2-0.5,0.4-0.6,0.7c-0.2,0.3-0.3,0.8-0.7,0.9c-0.4,0.2-0.4,0.8-0.9,0.8c-0.1,0.4-0.6,0.6-0.7,0.9
			c-0.2,0.4-0.5,0.6-0.8,0.9c-0.4,0.4-0.8,0.9-1.3,1.2c-0.3,0.1-0.4,0.4-0.7,0.6c-0.3,0.1-0.8,0.1-1.2,0.2c-0.1-0.4,0-0.7-0.2-1
			c-0.2-0.4,0.1-0.9,0.2-1.4c0.5-0.1,0.5-0.7,0.9-0.8v-0.4c0.2-0.1,0.4-0.2,0.5-0.4c-0.1-0.1-0.1-0.1-0.2-0.2
			c0.6-0.2,1.1-0.4,1.6-0.6c0.1-0.3,0.2-0.6,0.3-0.9c0.1,0,0.2,0,0.2,0c0.3-0.2,0.5-0.5,0.8-0.5c0.5,0,0.5-0.3,0.6-0.7
			c0-0.1,0.3-0.2,0.4-0.2c0.4-0.2,0.9-0.2,1.2-0.6c0.2-0.2,0.5-0.4,0.7-0.6c0.3-0.2,0.4-0.5,0.8-0.6c0.1,0,0.2-0.1,0.2-0.2
			c0-0.1,0-0.3,0.1-0.4c0.2-0.2,0.4-0.4,0.6-0.5c0.1-0.1,0.2-0.2,0.3-0.4c0.2-0.3,0.4-0.6,0.5-0.9c0.1-0.2,0.1-0.5,0-0.8
			c-0.2-0.2-0.4-0.4-0.6-0.6h-0.4c-0.1,0.1-0.1,0.2-0.2,0.4c-0.1-0.1-0.2-0.1-0.3-0.1c-0.6,0.2-1.1,0.6-1.5,1
			c-0.2,0.2-0.5,0.4-0.7,0.6c-0.3,0.2-0.6,0.5-0.9,0.7c0,0.2,0,0.4,0,0.4c-0.3,0.1-0.8,0.2-0.8,0.4c-0.2,0.5-0.6,0.5-0.9,0.8
			c-0.2,0.3-0.4,0.7-0.7,0.8c-0.2,0.1-0.3,0.4-0.4,0.4c-0.4,0-0.2,0.6-0.5,0.5c-0.4,0-0.3,0.3-0.4,0.5c-0.3,0.3-0.6,0.7-1,1.1
			c-0.2,0.2-0.3,0.4-0.4,0.7c-0.2,0.4-0.4,0.9-0.9,1.1c-0.2,0.1-0.4,0.2-0.6,0.2c-0.2,0.1-0.4,0.3-0.6,0.4c-0.7,0.7-1.5,1.2-2.5,1.6
			c-1,0.4-1.8,1.1-2.8,1.4c-0.2,0.1-0.3,0.3-0.7,0.3c-0.2,0-0.5,0.2-0.7,0.3c-0.2,0.1-0.5,0.1-0.7,0.2c-0.2,0.1-0.5,0.1-0.7,0.2
			c-0.3,0.3-0.4-0.2-0.7-0.1c-0.4,0.3-0.9,0.2-1.4,0.2c-0.3,0-1.4-0.4-1.6-0.6c-0.5-0.3-0.7-0.8-1-1.3c-0.1-0.3-0.2-0.5-0.1-0.8
			c0.1,0,0.2-0.1,0.3-0.1c-0.3-0.6-0.3-1.3-0.1-1.9c0.1-0.6-0.1-1.3,0.4-1.8c0.1-0.3,0.1-0.6,0.2-0.9c0.1-0.3-0.1-0.6,0.2-0.8
			c0.1-0.1-0.1-0.4,0.2-0.4c0.2-0.1,0.2-0.5,0.2-0.8c0.3-0.3,0.5-0.7,0.8-1.1c-0.1-0.2-0.2-0.4-0.2-0.6c0.2-0.2,0.4-0.3,0.6-0.4
			c0.1-0.2,0.2-0.4,0.3-0.5c0-0.1-0.1-0.2-0.2-0.4c0.2,0,0.4-0.1,0.5-0.1c0-0.6,0.4-1,0.7-1.3v-0.5c0.4-0.3,0.7-0.6,1-0.8
			c0-0.2-0.1-0.4-0.1-0.7c0.4,0,0.6,0,0.7-0.3c0.1-0.2,0.3-0.3,0.5-0.6v-0.5c0.1,0,0.2-0.1,0.4-0.1v-0.5c0.5,0.2,0.9-0.1,1.1-0.4
			c0.3-0.3,0.6-0.6,0.9-0.9c0.3-0.3,0.5-0.7,1-0.9c0.1,0,0.2-0.1,0.2-0.2c0-0.3,0.3-0.4,0.5-0.5c0.1-0.1,0.4-0.1,0.4-0.3
			c0.2-0.6,0.8-0.7,1.1-1.1c0.5-0.5,1-0.9,1.7-1.1c0.1,0,0.1-0.1,0.2-0.1c-0.1-0.1-0.1-0.1-0.2-0.2c0.4-0.1,0.6-0.3,0.8-0.6h0.7
			c0.4-0.5,0.9-0.8,1.6-0.7c0.1-0.2,0.2-0.4,0.3-0.5c0.1,0,0.3,0,0.4,0c0.1-0.2,0.1-0.3,0.2-0.4c0.3,0.1,0.2,0.5,0.6,0.5
			c0.4,0.4,0.4,0.7,0.2,1.3c-0.1,0.3-0.2,0.6-0.2,0.8c-0.4,0.4-0.8,0.8-1.2,1.2v0.6c0.3-0.1,0.5-0.2,0.8-0.3c0.6-0.6,1-1.4,1.5-2.2
			c0.1-0.1,0.1-0.3,0.1-0.4c0.1-0.8-0.1-1.6-0.6-2.3c-1.6,0-1.7,0-3.2,0.7C24.2,7.9,24.1,8,23.9,8c-0.1,0-0.3,0-0.3,0.1
			c-0.2,0.3-0.7,0.2-0.9,0.5c-0.2,0.3-0.6,0.4-0.9,0.6c-0.7,0.5-1.4,1-2.1,1.5c-0.4,0.3-0.7,0.7-1.2,1c-0.2,0.1-0.5,0.3-0.6,0.4
			c-0.2,0.2-0.4,0.3-0.6,0.5c-0.3,0.4-0.9,0.6-1.1,1.2c-0.9,0.3-1.1,1.4-1.9,1.8c-0.1,0-0.1,0.1-0.1,0.2c-0.1,0.2-0.4,0.5-0.4,0.7
			c0,0.3-0.5,0.3-0.5,0.6c-0.4,0.1-0.5,0.5-0.7,0.8c-0.3,0.6-0.9,1.1-1.1,1.7C11,19.6,11.2,20,11,20.1c-0.3,0.1-0.2,0.4-0.2,0.6
			c-0.2,0.5-0.5,0.9-0.7,1.4c-0.1,0.1-0.3,0.2-0.5,0.3c0.1,0.9-0.6,1.4-0.9,2.3v0.4c-0.2,0.4-0.5,0.7-0.5,1c0,0.5-0.2,0.9-0.3,1.3
			c-0.1,0.2-0.2,0.5-0.2,0.7c0.1,0.1,0.1,0.1,0.2,0.2c-0.3,0.3-0.1,0.8-0.2,1.1c-0.2,0.5-0.1,0.9-0.1,1.4c0,0.4,0.4,0.7,0.2,1
			C8,33.2,9.1,34,10,34.9c0.1-0.1,0.1-0.1,0.2-0.2c0.1,0.1,0.2,0.2,0.3,0.3c0.5,0.1,1,0.2,1.4,0.2c0.4,0.1,0.9-0.4,1.3,0
			c0-0.3,0.1-0.5,0.1-0.8c0.3,0.2,0.4,0.3,0.6,0.5c0.3,0,0.6,0.1,0.7-0.3c-0.1-0.1-0.1-0.2-0.2-0.3c0.2-0.1,0.3-0.2,0.5-0.3
			c0.1,0.2,0.1,0.4,0.2,0.7c0.6-0.5,1.3-0.4,1.9-0.8c0.4,0.1,0.5-0.3,0.5-0.4c0.4-0.1,0.6-0.1,0.8-0.2c0.1-0.3,0.5-0.4,0.6-0.8
			c0-0.1,0.2-0.3,0.3-0.3c0.5,0,0.7-0.5,0.9-0.6c0.6-0.2,1-0.3,1.5-0.4v-0.7c0.2-0.1,0.3-0.1,0.5-0.2c0.1,0.1,0.1,0.1,0.2,0.2
			c-0.1,0.1-0.2,0.1-0.1,0.2c0.1,0.3,0.1,0.7,0.2,1c0.1,0.5,0.5,0.9,0.7,1.5c0.1,0.4,0.7,0.6,1,1c0,0,0.1-0.1,0.2-0.1
			c0.2,0.1,0.3,0.2,0.3,0.2c0.3-0.1,0.6-0.2,0.8-0.4c0.3-0.2,0.5-0.4,0.8-0.5c0.3-0.1,0.5-0.1,0.6-0.5c0-0.1,0.2-0.2,0.3-0.3
			c0.5-0.3,1-0.6,1.3-1.1c0.3-0.3,0.5-0.7,0.8-1.1c0-0.1,0.1-0.2,0.1-0.6c0.3,0.4,0.4,0.6,0.6,0.8c0.1,0.2,0,0.5,0.2,0.7
			c0.2,0.2,0.2,0.5,0.2,0.7c0.4,0.3,0.7,0.5,1,0.7c0,0.2,0.1,0.3,0.1,0.5c0.6-0.1,1,0.3,1.6,0.2c0.5-0.1,0.9-0.3,1.4-0.4
			c0.2-0.3,0.4-0.6,0.6-0.9h0.6c0-0.2,0-0.3,0-0.5h0.6c0.1-0.1,0.1-0.2,0.2-0.2c0.2-0.1,0.4-0.3,0.6-0.4c0.2-0.1,0.1-0.5,0.5-0.5
			c0.2,0-0.1-0.5,0.3-0.6c0,0,0.1,0,0.1,0c0,0,0.1,0.1,0.1,0.1c0.3-0.2,0.5-0.4,0.8-0.6v-0.3c0.2-0.3,0.4-0.5,0.7-0.8h0.3
			c0.4-0.4,0.7-0.7,1-1c-0.1,0-0.2-0.1-0.3-0.1c0.1-0.1,0.1-0.3,0.2-0.4c0.4-0.2,0.8-0.4,1.2-0.5v-0.5c0.2-0.2,0.3-0.4,0.4-0.5h0.4
			c0.1-0.2,0.2-0.5,0.3-0.7c0.2,0,0.4,0,0.4,0c0.5-0.2,0.6-0.7,1.1-0.7c0,0.2,0,0.3,0,0.5c0.1,0.7-0.2,1.4-0.2,2.1
			c0,0.5,0.2,1.1-0.2,1.6c0,1.3-0.2,2.6,0.2,3.9c0.1,0.5,0.1,1,0.6,1.3c0.4,0.1,0.7,0.1,1.1,0.2c0.2-0.1,0.4-0.3,0.6-0.4v-0.8
			c0.2-0.1,0.5-0.2,0.6-0.2c0.3-0.3,0.6-0.5,0.7-0.8c0.1-0.7,0.7-0.9,1.1-1.3c0.1-0.1,0.3-0.2,0.4-0.3c0.1-0.5,0.5-0.8,0.9-1.2
			c0.2-0.2,0.3-0.3,0.4-0.5c-0.1-0.1-0.2-0.2-0.2-0.2c0.3-0.4,1-0.6,0.9-1.3c0.4-0.1,0.7-0.3,0.9-0.6c0.2-0.3,0.6-0.4,0.7-0.7
			c0.1-0.3,0.4-0.6,0.6-0.8h0.7c-0.1,0.7,0.1,1.3-0.2,2c0.1,0.5-0.3,1.1,0,1.6c0.1,0.1-0.1,0.3-0.1,0.5c0,0.3-0.1,0.6,0,0.8
			c0.1,0.2,0.2,0.4,0,0.5C53.8,29.9,54,30,54,30c-0.1,0.5,0.5,0.6,0.4,1.1c0,0.1,0.1,0.2,0.2,0.2c0.2,0.1,0,0.4,0.4,0.4
			c0.2,0,0.4,0.3,0.6,0.4c0.2,0.1,0.6,0.4,0.7,0.3c0.3-0.3,0.5,0.2,0.7,0c0-0.1,0.1-0.2,0.1-0.3c0.6,0,1.1-0.2,1.4-0.7
			c0.1-0.1,0.1-0.3,0.3-0.3c0.5-0.2,0.8-0.7,1.1-1.1h0.2c0.4-0.3,0.7-0.5,1.1-0.8c0.1,0.2,0.2,0.3,0.3,0.4c-0.1,0.7,0.1,1.4,0.8,1.9
			c0,0,0.1,0.1,0.1,0.1c0.1,0.6,0.7,0.7,1.1,0.9c0.8,0.4,1.7,0.3,2.6,0.2c0.2,0,0.5-0.2,0.7-0.3c0.5-0.3,1.3-0.6,1.8-0.6
			c0,0,0.1-0.1,0.1-0.1c0-0.1,0-0.2,0.1-0.3c0.1,0,0.2,0,0.2,0c0.8-0.6,1.5-1,2.2-1.5v-0.8c0.2-0.1,0.4-0.1,0.7-0.2
			c0.1,0.4,0.2,0.8,0.2,1.1c0,0.9,0.4,1.6,0.9,2.3c0.1,0.1,0.1,0.2,0.2,0.3c0.3,0.1,0.7,0.3,1.1,0.4h1.1c0.1-0.1,0.3-0.3,0.4-0.4
			c0.1,0.1,0.2,0.1,0.3,0.2c0.1-0.1,0.2-0.2,0.3-0.3h0.5c0.7-0.6,1.4-1.1,1.9-1.8c0.5-0.7,1.3-1.1,2-1.7c-0.2-0.3-0.2-0.6-0.1-0.9
			c0.5,0,0.9-0.1,1.1-0.6c0.1-0.1,0.2-0.2,0.4-0.3c0.3-0.2,0.9-0.5,0.9-0.6c0-0.4,0.4-0.3,0.5-0.5c0.1-0.2,0.4-0.3,0.5-0.4
			c0.1-0.3,0.2-0.6,0.3-0.8c0.4-0.2,0.8-0.3,1.2-0.4c-0.1-0.1-0.1-0.3-0.2-0.4c0.3-0.1,0.5-0.2,0.8-0.3c-0.1-0.1-0.2-0.2-0.2-0.2
			c0.3-0.3,0.6-0.5,0.9-0.8C87,22.9,87,23,87.1,23c0.1-0.1,0.1-0.1,0.2-0.2c0.1,0.1,0.2,0.2,0.3,0.3c0,0.4,0,0.8,0,1.2
			c0,0.5,0,1.1-0.2,1.6c-0.4,1-0.4,2-0.7,3c0.1,0.8-0.2,1.5-0.2,2.3c0,0.4-0.1,0.8-0.5,1c-0.1,0-0.1,0.1-0.2,0.1V33
			c0.4,0.2,0.8,0.3,1.1,0.5c0.5,0,0.7-0.4,0.9-0.7c0.1-0.2,0.3-0.5,0.4-0.7c0-0.3,0.3-0.5,0-0.8c0.4-0.6,0.1-1.2,0.2-1.8
			c0-0.2,0-0.4,0-0.6c0.1-0.4,0.3-0.8,0.3-1.2c0-0.5,0.2-0.9,0.2-1.3c0.4-0.4,0-1,0.4-1.4C89.1,24.3,89.1,23.7,89.3,23
			C89.3,23.1,89.3,23,89.3,23L89.3,23z M217.3,27.3c0-0.6-0.2-1-0.5-1.5c-0.4-0.7-0.9-1.3-1.3-1.9c-0.4-0.1-0.7-0.1-1.2-0.2
			c-0.5,0.3-1.2,0.5-1.7,1.1c-0.4,0.6-1.3,1-1.3,1.9c-0.3,0-0.6,0-0.7,0.4c0,0-0.5,0.7-0.5,0.7c-0.1,0.1-0.3,0.2-0.4,0.3
			c-0.3,0.7-0.8,1.3-1.1,1.9c-0.3,0.7-0.7,1.3-1,2c-0.3,0.6-0.7,1.1-0.8,1.7c0,0.1-0.2,0.2-0.3,0.3c-0.2-0.1-0.3-0.3-0.4-0.4
			c0.4-0.3,0.1-0.6,0.1-0.8c0-1.6,0-3.2,0-4.9c0-0.2,0.1-0.4,0.1-0.6c0-0.2,0-0.4-0.1-0.6c0-0.2,0-0.5-0.1-0.7c0-0.1,0.1-0.3,0-0.5
			c-0.1-0.1,0-0.4,0-0.8c-0.1-0.1-0.2-0.1-0.4-0.2c0.1-0.1,0.1-0.2,0.2-0.3c-0.3-0.6-0.5-1.1-0.8-1.7c-0.2-0.2-0.4-0.4-0.5-0.6
			c-0.1,0-0.3,0-0.4,0c-0.3,0.1-0.6,0.4-1,0.5c-0.1,0-0.3,0.1-0.4,0.2c-0.6,0.4-1.1,0.8-1.7,1.3c-0.3,0.3-0.6,0.6-0.8,1
			c-0.2,0.4-0.6,0.8-0.9,1.1c-0.1,0.1-0.2,0.1-0.3,0.1c0,0.2,0,0.3,0,0.3c-0.4,0.4-0.7,0.7-0.9,0.9c-0.2,0.4-0.3,0.7-0.3,0.9
			c-0.6,0.2-0.7,0.4-1.2,0.7c-0.3,0.3-0.5,0.7-1,0.7c0-0.1-0.1-0.2-0.1-0.2c0-0.7-0.1-1.3,0.2-2c0.1-0.2-0.1-0.6,0-0.8
			c0.2-0.3,0-0.4,0-0.7c0-0.6,0-1.3,0-1.8c-0.4-0.5-0.8-0.8-1.2-1c-0.3,0.2-0.6,0.2-0.9,0.5c-0.2,0.2-0.6,0.2-0.7,0.6
			c0,0.1-0.2,0.2-0.3,0.2c-0.3,0-0.4,0.2-0.5,0.5c-0.1,0.2-0.3,0.6-0.4,0.6c-0.6,0.1-0.8,0.4-1,0.8c-0.2,0.4-0.9,0.7-1.4,0.8
			c0-0.2,0-0.5,0.1-0.6c0.2-0.3-0.1-0.7,0.2-1c0.1-0.1,0-0.4-0.1-0.5c-0.2-0.2-0.2-0.4-0.2-0.6c0-0.6-0.3-1.1-0.7-1.5
			c-0.4-0.4-1.5-0.7-2-0.5c-0.3,0.1-0.3-0.2-0.5-0.1c-0.3,0.1-0.5,0.1-0.8,0.1c-0.4,0-0.7,0.1-1.1,0.2c-0.5,0.2-1,0.4-1.5,0.3
			c-0.2-0.4-0.5-0.6-0.7-0.9c-0.5,0.2-1,0.3-1.5,0.4c0,0.1-0.1,0.2-0.1,0.3c-1.1,0.6-1.2,0.7-1.8,1.9c-0.1,0.1-0.2,0.2-0.3,0.3
			c-0.1,0.1-0.3,0.1-0.3,0.2c-0.2,0.3-0.4,0.7-0.6,1c-0.3,0.6-0.7,1.2-1.3,1.5c-0.4,0.3-0.9,0.5-1.2,0.9c-0.1,0.1-0.3,0.2-0.5,0.3
			c-0.4,0.1-0.7,0.4-1,0.7c-0.3,0.3-0.6,0.6-0.9,0.7c-0.4,0.2-0.8,0.2-1.3,0.2c-0.2,0.2-0.3,0.4-0.5,0.5c-0.2,0.1-0.4,0.1-0.6,0.2
			c-0.2,0.1-0.3,0.3-0.5,0.3c-0.3,0-0.4,0.1-0.6,0.3c-0.2,0.1-0.4,0.1-0.7,0.2c-0.1,0.1-0.2,0.2-0.3,0.3c-0.7,0.1-1.4,0-2,0.2
			c-0.7,0.3-1.4-0.1-2,0.3c-0.2-0.1-0.3-0.3-0.6-0.3c-0.8-0.2-1.4-0.7-1.8-1.5c-0.1-0.2-0.1-0.5-0.2-0.7c-0.1-0.2,0.1-0.4,0.2-0.6
			c0-0.2-0.3-0.4-0.1-0.7c0.2-0.3,0.2-0.7,0-1c0.4-0.9,0.8-1.8,0.9-2.7c0.6-0.2,0.5-0.7,0.5-1.1c0.2-0.2,0.3-0.3,0.5-0.5
			c0-0.2,0-0.3,0.1-0.5c0.3-0.5,0.5-1,0.8-1.5c0.4-0.7,1-1.3,1.2-2.1c0,0,0-0.1,0.1-0.1c0.5-0.1,0.4-0.5,0.5-0.8
			c0.3-0.2,0.6-0.4,0.7-0.6c0.1-0.2,0.3-0.4,0.4-0.5c0.5-0.6,1.1-1.2,1.4-1.9c0.1-0.2,0.3-0.3,0.5-0.5c0.1-0.1,0.3-0.1,0.3-0.2
			c0.2-0.5,0.7-0.7,0.9-1.1c0-0.1,0-0.3,0-0.4h0.4c0.5-0.4,0.9-0.7,1.3-1h0.6c-0.1,0.3-0.1,0.5-0.2,0.7c0,0,0.1,0.1,0.2,0.2
			c0.1-0.2,0.3-0.4,0.4-0.6h0.8c0.1-0.3,0.4-0.3,0.6-0.6c0.2-0.2,0.4-0.4,0.7-0.6c0.3-0.2,0.6-0.4,0.9-0.6c0.6-0.5,0.5-0.5,0.8-1
			c0.2-0.3,0-0.6,0.1-0.8c-0.1-0.2-0.3-0.3-0.4-0.4c0.1-0.1,0.1-0.2,0.2-0.3c-0.1-0.2-0.3-0.3-0.4-0.5h-0.8
			c-0.3,0.4-0.7,0.6-1.2,0.5c-0.6,0.5-1.2,1-1.8,1.6h-0.3c-0.8,0.4-1.2,1.1-1.6,1.5c-0.3,0.1-0.6,0.2-0.7,0.3
			c-0.3,0.3-0.6,0.6-0.8,0.9c-0.2,0.3-0.2,0.7-0.3,1.1c-0.1-0.1-0.2-0.1-0.3-0.2c-0.6,0.4-1,0.9-1.4,1.4c-0.5,0.6-1,1.3-1.3,2
			c-0.2,0.3-0.3,0.7-0.7,0.8c-0.3,0.1-0.1,0.4-0.2,0.6c-0.2,0.2-0.4,0.4-0.7,0.7c0,0.1,0,0.3,0,0.3c-0.2,0.2-0.4,0.2-0.5,0.4
			c-0.2,0.3-0.4,0.7-0.5,1c-0.2,0.4-0.6,0.7-0.6,1.1c-0.1,0.4-0.4,0.6-0.5,1c-0.1,0.4-0.4,0.7-0.5,1c-0.1,0.3-0.4,0.4-0.4,0.6
			c0,0.6-0.4,1.2-0.5,1.7c-0.1,0.3-0.2,0.7-0.3,1c0,0-0.1,1-0.1,1.1c0,0.4-0.1,0.7-0.1,1.1c0,0.6,0.1,1.3,0.2,1.9
			c0,0.2,0.1,0.3,0.2,0.5c0.3,0.4,0.6,0.7,0.9,1.1c0.1,0.2,0.3,0.3,0.4,0.4c0.2,0.1,0.3,0.2,0.4,0.4h0.5c0.5,0.4,1,0.7,1.5,1
			c0,0,0.1-0.1,0.1-0.1c0.1,0.1,0.1,0.1,0.2,0.2c0.2-0.3,0.5-0.3,0.8-0.1c0.1-0.1,0.2-0.1,0.3-0.1c0.7-0.3,1.4-0.2,2.1-0.4
			c0-0.2,0.1-0.3,0.3-0.3c0.1,0,0.2,0,0.2-0.1c0.1,0.1,0.2,0.1,0.3,0.2c0.2-0.1,0.3-0.4,0.4-0.4c0.5-0.1,1-0.4,1.5-0.5
			c0.4-0.1,0.6-0.2,0.9-0.4c0.3-0.2,0.7-0.4,1.1-0.6c0.2-0.6,0.9-0.4,1.2-0.8c0-0.2,0-0.4,0-0.6c0.1-0.1,0.1-0.1,0.2-0.2
			c0.2-0.1,0.4-0.2,0.6-0.3c0.1,0.1,0.1,0.3,0.2,0.4c0.1-0.1,0.2-0.2,0.3-0.2c0.1,0,0.3,0,0.4,0c-0.4,2.9-0.1,3.1,0.3,3.9
			c0.7,1.5,2,2,3.4,2.3c0.2-0.2,0.5-0.5,0.7-0.7h0.3c0.5-0.6,0.9-1.3,1.4-1.9c-0.1-0.1-0.1-0.1-0.2-0.2c0.7-0.8,0.8-1.7,0.8-2.7
			c0-0.3-0.2-0.6-0.2-1c0-0.4,0-0.8-0.2-1.1c-0.2-0.3-0.1-0.7-0.1-0.8c-0.3-0.6-0.5-1-0.8-1.4c0.5-0.5,1-1.1,1.8-1.1
			c0.1,0,0.3-0.2,0.4-0.2c0.3-0.2,0.6-0.4,0.9-0.5c0-0.1,0-0.3,0.1-0.5c0.3,0.1,0.6,0.3,0.8,0.2c0.3-0.2,0.6-0.1,0.8-0.1
			c0.5,0,1.1,0,1.6,0c0.1,0,0.3-0.1,0.5-0.1c0.1,0.2,0.3,0.4,0.5,0.7c0.1,0.1,0.1,0.3,0.1,0.4c-0.2,0.2-0.2,0.4-0.2,0.6
			c0,0.2-0.3,0.4,0,0.6c-0.2,0.1-0.1,0.4-0.2,0.6c0,0.2-0.2,0.4-0.2,0.6c0,0.8-0.4,1.5-0.4,2.3c0,0.6,0,0.8,0.6,1.1v0.7
			c0.4,0.2,0.6-0.1,0.8-0.3c0,0,0.1,0.1,0.1,0.1s0,0,0.1,0.1h0c0.2-0.4,0.5-0.7,0.8-1c0.3-0.4,0.7-0.8,1-1.3
			c0.3-0.5,0.9-0.6,1.2-1.2c0-0.1,0.2-0.1,0.2-0.1c0.6-0.6,1.3-1.3,1.9-1.9c0.1-0.1,0.2-0.2,0.3-0.3c0.1,0.4,0,0.7,0.2,0.9
			c0.1,0.1,0.1,0.4,0,0.5c-0.3,0.3,0,0.7-0.2,1c-0.2,0.3-0.2,0.7-0.2,1c0,0.4,0,0.9,0,1.3c0,0.6,0.3,1.1,0.7,1.6
			c0.2,0.2,0.3,0.3,0.5,0.5h1c0.1-0.2,0.1-0.5,0.3-0.7c0.2-0.2,0.4-0.3,0.7-0.5c0.2-0.1,0.3-0.2,0.5-0.4c0.3-0.3,0.6-0.6,0.5-1
			c0.1-0.1,0.3-0.1,0.3-0.2c0.3-0.3,0.5-0.6,0.8-0.9c0.5-0.6,0.9-1.1,1.4-1.7c0.2-0.2,0.3-0.5,0.5-0.7c0.7-0.6,1.4-1.3,2.2-1.8
			c0.3-0.2,0.6-0.4,1.1-0.2c0.1,0.3,0.2,0.7,0.3,1c0,0.4,0.1,0.7,0.3,1c-0.1,0.2-0.2,0.4-0.2,0.7c0,0.2,0.1,0.3,0.1,0.5
			c0,0.2-0.3,0.4-0.2,0.6c0.2,0.2,0.2,0.5,0.2,0.7c0,0.2,0,0.4-0.1,0.7c-0.1,0.2,0,0.5,0.1,0.7c0.1,0.3-0.2,0.5,0,0.8
			c0.1,0.3,0,0.6,0,1c0,0.3,0,0.7,0,1c0,0.2-0.1,0.5,0.2,0.6c-0.3,0.2-0.2,0.4,0,0.6c0.1,0.1,0,0.2,0,0.3c-0.1,0.4-0.2,0.8,0,1.2
			c0.1,0.3-0.2,0.4-0.1,0.7c0.1,0.3,0.1,0.6,0.1,0.9c0,0.2-0.1,0.4-0.1,0.6c-0.2,0.8-0.6,1.5-0.6,2.3c-0.3,0.1,0.1,0.4-0.2,0.6
			c-0.2,0.1-0.2,0.5-0.2,0.7c0,0.3-0.1,0.5-0.2,0.7c-0.2,0.6-0.3,1.1-0.4,1.7c0,1-0.3,1.9-0.2,2.9c0,0.2-0.1,0.5-0.1,0.8
			c0,0.1,0.1,0.2,0.2,0.3c-0.1,0.1-0.1,0.2-0.2,0.3c0,0.2,0.3,0.3,0.1,0.6c-0.1,0.1,0.1,0.4,0.1,0.6c0,0.2,0,0.5,0,0.5
			c0.2,0.4,0.3,0.7,0.3,0.9c0,0.4,0.1,0.6,0.3,0.9c0.3,0.1,0.6,0.2,0.8,0.3c-0.1,0.1-0.1,0.3-0.2,0.4c0.1,0,0.1-0.1,0.2-0.1
			c0,0.2,0,0.3,0.1,0.5c0,0,0.1,0,0.1-0.1c0-0.1,0-0.3,0-0.3c0.3-0.3,0.5-0.6,0.8-0.8c-0.1-0.3-0.1-0.7-0.2-1.1
			c0.1-0.1,0.2-0.2,0.3-0.3c0-0.4,0.1-0.7,0.2-1.1c0.1-0.4,0.1-0.7,0.1-1.1c0.3-0.2-0.1-0.4,0-0.5c0.2-0.2,0.1-0.6,0.2-0.7
			c0.3-0.3,0.1-0.5,0-0.7c0.3-0.5,0.1-1.1,0.1-1.7c0-0.1-0.1-0.3-0.1-0.4c0.2-0.3,0.3-0.6,0.3-0.9c-0.1-1.7,0.2-3.4,0.2-5.1
			c0-0.2,0.1-0.3,0.1-0.5c0.1-0.4,0.3-0.8,0.4-1.3c0.1-0.1,0.4-0.3,0.5-0.5c0.2-0.5,0.7-1,0.8-1.5c0.2-0.6,0.5-1,0.8-1.5
			c0.3-0.6,0.5-1.3,0.9-1.9c0.5-0.8,1-1.7,1.7-2.3c0-0.2,0-0.3,0.1-0.5c0.4-0.2,0.6-0.5,0.9-0.9c0.3-0.5,0.8-0.8,1.2-1.2
			c0.4,0.2,0.5-0.4,0.9-0.4c0.1,0.1,0.1,0.2,0.2,0.2c0.5,0.6,0.9,1.2,0.7,2c-0.1,0.3,0,0.7,0,1c-0.2,0.5-0.4,0.9-0.7,1.3
			c-0.3,0.4-0.5,0.7-0.9,1c-0.3,0.3-0.6,0.6-0.9,0.9c-0.3,0.3-0.8,0.3-1,0.7c-1.4,0-1.5,0-2,0.9v1c0.3,0.2,0.5,0.4,0.8,0.6
			c0.1-0.3,0.3-0.1,0.5,0c0.7-0.3,1.6-0.5,2.1-1c0.5-0.6,1.5-0.7,1.6-1.5c0.2,0,0.4-0.1,0.5-0.1c0.1-0.4,0.3-0.5,0.5-0.8
			c0.4-0.5,0.6-1.1,0.8-1.7c0.2-0.4,0.2-0.9,0.4-1.3c0-0.1,0-0.2,0-0.3C217.1,28.3,217.3,27.8,217.3,27.3L217.3,27.3z M280.3,14.4
			c0.2-0.3-0.1-0.5-0.1-0.7c-0.2-0.2-0.4-0.4-0.7-0.7c0-0.1,0-0.3,0-0.4c-0.2-0.1-0.3-0.2-0.4-0.3c-0.1-0.1-0.3-0.1-0.4-0.2
			c-0.4,0.2-0.5,0.7-1,0.6c-0.2,0.2-0.4,0.5-0.7,0.7c-0.6,0.3-1.2,0.7-1.8,1.1c-0.6,0.4-1.2,0.7-1.8,1.1c-0.5,0.4-1.2,0.7-1.6,1.2
			c-0.2,0.2-0.5,0.5-0.7,0.5c-0.7,0.2-1.2,0.6-1.5,1.2c-0.3,0.1-0.6,0.1-0.8,0.3c-0.4,0.5-1,0.7-1.5,1c-0.3,0.2-0.5,0.5-0.5,0.9
			c-0.1,0-0.3,0-0.4,0c-0.4,0.1-0.8,0.5-1.1,0.7c-0.5,0.2-0.9,0.6-1.2,0.9c-0.4,0.3-1,0.5-1.1,1.1c-0.1,0-0.3,0-0.4,0
			c-0.3,0.2-0.3,0.9-0.8,0.7c-1.4,1.1-2.6,2.5-4.2,3.7c-0.1-0.5-0.5-0.7-0.7-1c-0.5-0.7-1.4-1.1-2.1-1.6c-0.4-0.3-0.8-0.2-1.3,0
			c-1.5,0.6-2.6,1.8-3.8,2.7c0,0.2,0,0.3,0,0.4c-0.3,0.2-0.6,0.2-0.8,0.6c-0.3,0.8-1.3,1-1.6,1.8c-0.6,0.2-0.8,0.7-1.2,1.1
			c-0.1-0.1-0.3-0.3-0.4-0.4c0-0.4,0.1-0.9,0-1.2c-0.2-0.4,0-0.8-0.2-1.1c-0.3-0.4-0.1-0.7-0.1-1.1c0-0.2,0-0.4-0.1-0.7
			c-0.2-0.3-0.2-0.8-0.2-1.1c0-0.3-0.2-0.6-0.2-0.9c-0.1-0.2-0.1-0.4-0.2-0.5c0,0-0.1,0.1-0.1,0.1c-0.1-0.2-0.2-0.4-0.3-0.4h-0.6
			c0,0.1-0.1,0.2-0.1,0.3H243c-0.3,0.3-0.7,0.6-1,0.8c-0.1,0.1-0.1,0.4-0.2,0.4c-0.5,0.2-0.6,0.6-0.9,0.9c-0.5,0.4-0.6,1.2-1.2,1.4
			c0,0.5-0.5,0.6-0.8,0.9c-0.2,0.2-0.3,0.4-0.4,0.6c-0.1,0.1-0.2,0.1-0.4,0.2c0.1-0.4,0.1-0.8,0.2-1c0.2-0.3,0-0.6,0.2-0.9
			c0.1-0.3,0.3-0.6,0.3-0.9c0-0.1,0-0.2,0-0.2c0-0.1,0-0.2,0.1-0.2c0,0,0-0.1,0-0.1c0-0.1,0-0.2-0.1-0.3c0.1-0.2,0.3-0.4,0.4-0.7
			c0-0.1,0-0.3-0.1-0.5c0.1-0.1,0.1-0.2,0.2-0.3c-0.5-0.2-0.3-1-1-1.2c-0.3,0.3-0.5,0.6-0.8,0.9h-0.5c0,0.1-0.1,0.3-0.1,0.3
			c-0.4,0.1-0.5,0.4-0.7,0.6c-0.3,0.3-0.6,0.6-0.9,0.9c-0.3,0.3-0.7,0.4-0.8,0.8c-0.3,0-0.4,0.4-0.7,0.5c-0.3,0.1-0.4,0.5-0.7,0.8
			c-0.2,0-0.4,0-0.6,0c-0.2,0.5-0.9,0.5-1,1c-0.6,0.1-0.9,0.5-1.1,0.8c-0.8,0.3-1.4,0.7-2.1,0.4c-0.1-0.1-0.2-0.3-0.2-0.4
			c0.2-0.7,0.4-1.3,0.6-2c0.3-0.2,0.5-0.7,0.7-1.1c0.1-0.2,0.2-0.4,0.3-0.5c0.3-0.1,0.3-0.4,0.5-0.6c0.2-0.3,0.3-0.6,0.5-0.9
			c-0.1-0.4,0-0.8-0.2-1.2c-0.2-0.5,0.1-1,0.7-1.4c-0.1-0.5-0.2-1-0.5-1.2c-0.3,0-0.4,0-0.5,0c-0.1,0.1-0.2,0.2-0.3,0.3h-0.5
			c-0.2,0.5-0.4,1-0.8,1.3c-0.4,0.3-0.8,0.5-1.2,0.7V24c-0.4,0.3-0.7,0.5-0.9,0.7c-0.2,0.2-0.4,0.4-0.7,0.5
			c-0.3,0.1-0.3,0.4-0.5,0.6c-1.3,0.8-2.1,2.1-3.3,2.9c-0.1,0.4-0.5,0.5-0.7,0.7c-0.2,0.3-0.3,0.6-0.5,0.9c-0.1,0.1-0.1,0.2-0.2,0.3
			c-0.5,0.4-0.7,1-0.9,1.6c0,0.2-0.1,0.3-0.2,0.5c0.2,0.4,0.4,0.8,0.5,1.2c0.3,0,0.5,0.1,0.7,0.1c0,0.1,0.1,0.2,0.1,0.3
			c0.3,0,0.6,0.1,0.9,0c0.2-0.1,0.3-0.2,0.6-0.2c0-0.5,0.7-0.3,0.8-0.8c0.5-0.3,1-0.7,1.5-1c0.5-0.3,0.9-0.6,1.1-1.1
			c0.2-0.3,0.4-0.5,1-0.8c-0.4,0.6,0.1,0.9,0.2,1.3c0.2,0.4,0.5,0.7,0.7,1c0.1-0.1,0.2-0.1,0.3-0.3c0.2,0.2,0.3,0.4,0.5,0.6
			c0.5-0.1,1-0.2,1.4-0.2c0.4-0.3,0.7-0.5,1-0.7c0.4,0.2,0.4-0.3,0.6-0.4c0.3-0.1,0.4-0.4,0.6-0.6c0.4-0.2,0.7-0.4,1-0.6v-0.3
			c0.3-0.3,0.6-0.6,0.8-0.9c0.4,0.2,0.4-0.2,0.5-0.3c0.5-0.3,1-0.5,1.2-1.1c0.1-0.2,0.3-0.3,0.4-0.4c0.3-0.2,0.5-0.4,0.8-0.6
			c0.1,0.2,0.1,0.4,0.2,0.6c-0.1,0.2-0.3,0.5-0.3,0.8c0,0.8-0.5,1.5-0.4,2.2c-0.4,0.4-0.2,0.9-0.2,1.3c0,0.4,0.2,0.8,0.4,1.2
			c0.4,0.2,0.8-0.1,1.1,0.2c0.2-0.2,0.4-0.4,0.6-0.6c0-0.8,0.7-0.8,1-1.1c0.2-0.2,0.1-0.5,0.5-0.7c0.2-0.1,0.4-0.4,0.6-0.7
			c0.4-0.6,1.1-1.1,1.3-1.9c0.4-0.1,0.4-0.5,0.7-0.7c0.3-0.2,0.5-0.5,0.8-0.7c0.2,0.4,0.4,0.8,0.4,1.2c0.1,0.5,0.2,1,0.2,1.5
			c0,0.5,0.2,1,0.2,1.5c0,0.5,0.2,1,0.3,1.5c0.2,0.9,0.8,1.3,1.5,1.7c0.3-0.2,0.6-0.3,0.8-0.7c0.1-0.3,0.6-0.5,0.8-0.7
			c0.6-0.7,1.2-1.4,1.9-2.1c0.2-0.2,0.5-0.2,0.6-0.6c0.1-0.3,0.5-0.3,0.6-0.6c0.1-0.4,0.5-0.4,0.7-0.7c0.4-0.7,0.7-0.9,1.3-1.2
			c0.5-0.2,1-0.5,1.3-0.7c1.1,0.2,1.8,0.9,2.4,1.5c0.1-0.1,0.1-0.1,0.2-0.2c0.1,0.6,0.1,1.1-0.5,1.4c-0.1,0.1-0.3,0.2-0.3,0.4
			c-0.2,0.6-0.6,1-1.1,1.4c0.1,0.1,0.1,0.1,0.2,0.2c-0.2,0.2-0.3,0.4-0.5,0.6h-0.3c-0.2,0.2-0.3,0.4-0.4,0.5
			c-0.1,0.2-0.4,0.3-0.4,0.5c-0.2,0.6-0.7,1.1-1.1,1.7c-0.6,1-1.5,1.9-1.8,3.2c-0.5,0.3-0.3,0.9-0.6,1.3c-0.3,0.4-0.3,1.1-0.6,1.6
			c-0.1,0.2-0.2,0.5-0.2,0.7c0.1,0.3-0.3,0.5,0,0.7c-0.3,0.2,0,0.6-0.2,0.9c-0.2,0.3,0,0.7-0.2,1c-0.2,0.3,0,0.6-0.1,0.8
			c0,0.2,0.1,0.4-0.1,0.5c-0.1,0,0.1,0.3,0,0.6c-0.1,0.1,0,0.4,0,0.6v1.4c0,0.1,0,0.3,0,0.3c-0.5,0.6,0.1,1.2,0.1,1.9
			c0.3,0.3,0,0.7,0.3,1.1c0.1,0.2,0.1,0.5,0.2,0.7c0,0.1,0,0.3,0.1,0.4c0.1,0.3,0.2,0.7,0.5,0.9c0.3,0.2,0.2,0.6,0.5,0.9
			c0.2,0.2,0.4,0.4,0.4,0.6c0.1,0.3,0.3,0.5,0.5,0.7c0.5-0.1,0.8-0.1,1.2-0.2c0.4-0.1,0.7,0.3,1.1,0.4c0.2-0.3,0.6-0.3,0.7-0.7h0.8
			c0.5-0.3,1-0.5,1.5-0.8c0.4-0.2,0.7-0.5,1.1-0.8c0.3-0.3,0.6-0.6,1-0.8c0.4-0.3,0.7-0.6,0.9-1c0.2-0.3,0.6-0.3,0.6-0.6
			c0.1-0.6,0.6-1,0.7-1.6c0.4-0.3,0.4-0.7,0.3-1.2c0.2-0.2,0.6-0.6,0.9-0.9c0,0-0.1-0.1-0.2-0.2c0.1,0,0.2-0.1,0.4-0.1
			c-0.2-0.3,0.3-0.6,0-1c0.1,0,0.2,0,0.2-0.1c0.1-0.4,0.3-0.7,0.4-1.1c0.1-0.3,0.2-0.6,0.2-0.9c0-0.1,0-0.2,0-0.3c0-0.1,0-0.2,0-0.3
			c0-0.2,0.1-0.3,0.2-0.5c-0.1-0.1-0.1-0.1-0.2-0.2c0.1-0.1,0.2-0.3,0.2-0.4c-0.1-0.6,0.4-1.1,0-1.7c0-0.9,0.1-1.8-0.2-2.7
			c-0.1-0.3-0.1-0.5-0.2-0.8c0,0,0.1-0.1,0.2-0.2c-0.1-0.1-0.2-0.2-0.3-0.3c-0.1-0.5-0.1-1-0.2-1.5c0-0.2-0.1-0.3-0.1-0.5
			c0.2-0.4-0.6-0.2-0.4-0.6c-0.3-0.6-0.3-1.2-0.6-1.8c-0.4-0.8-0.9-1.5-1.4-2.3c-0.3-0.4-0.6-0.8-0.9-1.2c0.5-0.5,0.9-0.9,1.4-1.4
			c0.1-0.1,0.1-0.2,0.1-0.2c0-0.1-0.1-0.1-0.2-0.1c-0.1,0-0.3-0.1-0.1-0.3c0.1,0.1,0.2,0.1,0.2,0.2c0.3-0.1,0.4-0.4,0.8-0.4
			c0.5,0,0.3-0.5,0.3-0.8c0.3-0.1,0.6-0.2,0.8-0.3c0.1-0.2,0.2-0.3,0.3-0.5c0.1,0.1,0.1,0.1,0.2,0.2c0-0.1,0.1-0.2,0.1-0.3
			c0.4,0,0.8-0.2,0.8-0.6c0-0.4,0.4-0.2,0.4-0.5c0-0.4,0.4-0.1,0.5-0.3c0-0.1,0-0.2,0.1-0.2c0.2,0,0.5,0,0.7-0.1
			c0.4-0.4,1-0.5,1.4-0.8c0.1-0.1,0.2-0.2,0.3-0.4h0.5c0.3-0.5,0.9-0.6,1.3-1.1c0.4-0.5,0.9-0.8,1.4-1.2c0.1,0,0.3,0,0.4,0
			c-0.1-0.1-0.2-0.2-0.2-0.2c0.2-0.2,0.4-0.4,0.6-0.7c0.1,0.1,0.2,0.1,0.3,0.2c0.3-0.2,0.6-0.4,0.9-0.5c0.1,0,0.2-0.1,0.2-0.1
			c0.1,0,0.2-0.1,0.3-0.1c0,0,0.1,0,0.1-0.1c0.3-0.1,0.5-0.3,0.8-0.5c0.1-0.1,0.3-0.3,0.4-0.5c0.1,0,0.3,0,0.4,0h0.2
			c0.1-0.2,0.3-0.4,0.5-0.5h0.5c0.2-0.2,0.3-0.3,0.5-0.5h0.5c0.6-0.7,1.6-0.4,2.3-0.9c0.2,0.2,0.3,0.3,0.4,0.4
			c0.1-0.1,0.1-0.1,0.2-0.2c0.2,0.1,0.5,0.1,0.7,0.2c0.1-0.3,0.2-0.5,0.2-0.7C280.4,14.9,280.1,14.7,280.3,14.4L280.3,14.4z
			 M150.3,10.9c0.1-0.1,0.1-0.1,0.1-0.1c-0.2-0.4-0.4-0.8-0.6-1.2h-0.4c-0.2,0.2-0.3,0.5-0.5,0.7c-0.3,0.4-0.6,0.7-0.9,1.1
			c-0.3,0.4-0.6,0.8-0.8,1.3c-0.2,0.5-0.4,1-0.7,1.4c-0.5,1-1.1,1.9-1.3,2.9c0,0.2-0.2,0.4-0.3,0.6c-0.1,0.1-0.1,0.2-0.2,0.4
			c-0.2,0.6-0.6,1.1-0.6,1.8c0,0.1-0.1,0.2-0.2,0.4c0,0.1-0.1,0.2-0.1,0.3c0,0.3-0.1,0.6-0.3,0.8c-0.3,0.2-0.1,0.5-0.3,0.7
			c-0.2,0.2-0.4,0.4-0.6,0.6c-0.7,0.1-0.9-0.8-1.4-0.9c-0.3,0.1-0.6,0.3-0.9,0.3c-0.3,0.1-0.4,0.5-0.8,0.4c-0.2,0.2-0.5,0.5-0.7,0.7
			c-0.4-0.1-0.7,0.1-1,0.3c-0.2,0.1-0.3,0.2-0.5,0.3c0,0.1,0,0.1,0,0.2c0,0.1,0,0.1,0,0.2c-0.2,0.1-0.5,0.2-0.6,0.3
			c-0.7,0.5-1.3,1.1-2,1.6c-0.4,0.3-0.8,0.6-1.2,0.9c-0.3,0.2-0.7,0.5-0.9,0.8c-0.1,0.2-0.2,0.3-0.5,0.4c-0.3,0.1-0.6,0.4-0.8,0.6
			c-0.2,0.2-0.5,0.4-0.7,0.7c-0.2,0.3-0.4,0.4-0.6,0.7c-0.2,0.4-0.4,0.4-0.9,0c0-0.7,0.2-1.4,0.5-2.1c0.2-0.4,0.3-0.9,0.6-1.3
			c0.3-0.5,0.4-1.1,0.4-1.6c0.2-0.2,0.3-0.3,0.3-0.4c-0.1-0.3-0.2-0.5-0.1-0.7c0-0.5-0.1-0.9-0.5-1.2c-0.1-0.1-0.1-0.2-0.2-0.4
			c-0.5,0.1-0.9,0.3-1.1,0.7c-0.1,0.1-0.2,0.4-0.3,0.4c-0.7,0.1-0.9,0.6-1.2,1.1c-0.4,0.1-0.7,0.2-0.8,0.5c-0.1,0.3-0.3,0.5-0.5,0.6
			c-0.2,0.1-0.3,0.3-0.5,0.5c-0.3,0.4-0.6,0.9-1,1.2c-0.4,0.3-0.7,0.6-1,0.9c0,0.1-0.1,0.2-0.1,0.2c-0.1,0.1-0.2,0.1-0.4,0.2
			c-0.1,0.1-0.3,0.2-0.4,0.3c-0.1,0.1-0.1,0.3-0.3,0.2c0-0.4,0.1-0.7,0.1-1.1c0-0.3,0.1-0.4,0.2-0.6c0.3-0.5,0.4-1,0.3-1.5
			c0.5-0.5,0.3-1.2,0.5-1.8c0-0.1,0-0.2-0.1-0.2c-0.3-0.4-0.4-0.9-0.9-1.1c-0.2,0.1-0.4,0.1-0.5,0.2c-0.5,0.4-1,0.8-1.4,1.2
			c-0.3,0.2-0.3,0.5-0.3,0.6c-0.5,0.4-1.2,0.5-1.3,1.3h-0.4c-0.1,0.4-0.6,0.4-0.8,0.8c-0.2,0.4-0.4,0.7-0.6,1h-0.7
			c0.1,0.5-0.4,0.4-0.5,0.7c-0.2,0.2-0.3,0.5-0.5,0.6c-0.3,0.2-0.4,0.5-0.6,0.6c-0.3,0.2-0.3,0.5-0.4,0.7c-0.2,0.1-0.4,0.1-0.6,0.2
			c-0.3,0.3-0.7,0.5-1,0.8c-0.3,0.3-0.6,0.5-1,0.4c-0.2-1,0.1-2,0.2-3c0.1-0.1,0.2-0.2,0.3-0.3c0-0.3-0.1-0.6,0.2-0.8
			c0.2-0.1,0.3-0.3,0.4-0.5c0.2-0.6,0.9-1,0.6-1.7c0.1-0.1,0.3-0.2,0.4-0.3v-0.8c-0.2-0.5-1.1-0.8-0.5-1.6c0,0-0.1-0.1-0.1-0.1
			c0-0.3-0.1-0.5-0.2-0.7c-0.2-0.3-0.5-0.6-0.8-0.9c-0.5,0-0.8,0.1-1,0.3c-0.2,0.1-0.3,0.3-0.5,0.6c-0.1,0.2-0.2,0.3-0.4,0.4
			c-0.1,0-0.4,0.1-0.4,0.2c-0.1,0.2-0.2,0.2-0.3,0.3c-0.3,0.2-0.4,0.5-0.6,0.7c-0.2,0.2-0.4,0.4-0.6,0.6c-0.2,0.3-0.3,0.6-0.5,0.9
			c-0.1,0-0.3,0-0.4,0c-0.7,0.7-1.3,1.4-1.7,2.2c-0.2,0.2-0.4,0.3-0.5,0.4c-0.4,0.5-0.7,1-0.8,1.6c-0.1,0.3-0.4,0.2-0.4,0.4
			c-0.1,0.4-0.3,0.8-0.4,1.2c0.2,0.3,0.2,0.7,0,1c0.3,0.6,0.7,1,1.4,1.2c0.4-0.2,0.7-0.5,1.1-0.6c0.4-0.1,0.4-0.6,0.8-0.7
			c0.3-0.1,0.5-0.6,0.7-0.9c0.2-0.1,0.4-0.1,0.5-0.2c0.2-0.2,0.4-0.5,0.7-0.7c0.5-0.4,0.9-0.8,0.9-1.5c0.2,0.1,0.3,0.2,0.4,0.2
			c0,0,0.1-0.1,0.2-0.2c0.1,0.1,0.2,0.2,0.2,0.2c-0.1,0.5-0.4,1-0.3,1.4c0.1,0.4,0.1,0.8,0.1,1.3c0.1,0.7,0.4,1.3,0.9,1.8
			c0.3,0.3,0.7,0.4,0.9,0.6c0.5-0.1,0.8-0.1,1.1-0.2c0.1-0.2,0.2-0.4,0.4-0.5c0.4-0.3,0.8-0.6,1.1-1c0.2-0.3,0.5-0.4,0.8-0.5
			c0.1-0.3,0.2-0.6,0.2-1h0.6c0.5-0.4,0.9-0.9,1.3-1.3c0.5-0.4,0.9-0.9,1.1-1.5h0.4c0.5-0.5,1-1,1.6-1.4c0.2-0.1,0.5-0.3,0.5-0.6
			c0,0,0.2,0,0.4-0.1c-0.2,0.7-0.4,1.4-0.7,2c-0.1,0.4,0,0.9-0.1,1.4c-0.2,1-0.2,1,0,1.6c0.1,0.3,0.3,0.7,0.6,0.9
			c0.2,0.2,0.6,0.4,0.9,0.2c0.2-0.2,0.4-0.4,0.6-0.5c0-0.2,0-0.4,0.1-0.6c0.2-0.1,0.4-0.2,0.6-0.4c0.2-0.1,0.4-0.2,0.5-0.4
			c0.2-0.3,0.5-0.6,0.7-0.9c0.2-0.4,0.5-0.7,0.9-0.9c0.3-0.2,0.4-0.7,0.9-0.8c0-0.3,0.3-0.3,0.4-0.4c0.1-0.5,0.5-0.7,0.9-0.9
			c0.1,0,0.1-0.1,0.2-0.1v-0.4c0.2-0.1,0.3-0.2,0.6-0.3c-0.1,0.4-0.2,0.6-0.2,0.9c-0.1,0.3-0.1,0.6-0.2,0.8
			c-0.1,0.2-0.4,0.4-0.2,0.8c0.1,0.2-0.2,0.5-0.3,0.7c-0.1,0.3-0.1,0.5-0.2,0.8c0,0,0.1,0.1,0.2,0.2c-0.3,0.5-0.1,1.1-0.2,1.5
			c0.2,0.5,0.3,0.8,0.4,1.1c0.3,0.1,0.5,0.2,0.8,0.3c0,0.1,0.1,0.2,0.1,0.3c0.5-0.3,0.9-0.5,1.3-0.7c0.1-0.1,0.2-0.1,0.3-0.2
			c0.2-0.6,0.8-0.9,1.1-1.3c0.1-0.2,0.2-0.3,0.4-0.5c0.1-0.1,0.2-0.1,0.4-0.2c0,0.3,0.1,0.7,0,0.8c-0.3,0.3,0,0.5,0,0.8
			c0,0.2,0.1,0.4,0.2,0.5c0.2,1.2,1.9,1.5,2.7,0.7c0.2-0.2,0.4-0.5,0.6-0.8h0.6c0-0.1,0-0.2,0-0.2c0.4-0.4,0.8-0.8,1.3-1.2V30
			c0.5-0.1,1-0.2,1.1-0.7c0.5-0.1,0.6-0.5,0.9-0.9c0.2-0.4,0.6-0.6,0.8-1c0.2-0.4,0.6-0.6,0.7-1c0,0,0.1-0.1,0.1-0.1
			c0,0,0.1,0.1,0.2,0.2c0.2-0.2,0.4-0.5,0.8-0.3c0,0.4,0.1,0.9,0,1.4c-0.1,0.2-0.1,0.5-0.2,0.7c0,0.2-0.2,0.6-0.1,0.7
			c0.2,0.3-0.1,0.4,0,0.7c0.1,0.3,0,0.5,0,0.8c0,0.4,0,0.8,0,1.2c0,0.3-0.2,0.6,0,0.9c0.1,0.3,0,0.8,0,1.1c0,0.1,0,0.1,0,0.1
			c0.1,0.2,0.3,0.4,0.4,0.5c-0.1,0.1-0.2,0.2-0.2,0.2c0.2,0.8,0.7,1.4,1.7,1.4c0.2-0.5,0.3-1,0.3-1.4c0-0.5,0.1-1.1-0.4-1.5
			c0-0.5,0-1,0-1.5c0-0.2,0.2-0.5,0.1-0.6c-0.4-0.8-0.1-1.6-0.1-2.4c0-0.3,0.3-0.7,0.3-0.9c-0.1-0.3,0.1-0.5,0.1-0.8
			c0-0.3,0.1-0.7,0.2-1c0-0.2,0.2-0.4,0.2-0.6c0-0.7,0.2-1.4,0.4-2c0.2-0.5,0.3-0.9,0.3-1.4c0.2-0.1,0.3-0.1,0.3-0.2
			c0-0.3,0.3-0.4,0.4-0.6c0.1-0.2,0-0.4,0.1-0.6c0-0.1,0.1-0.2,0.1-0.3c0.1-0.1,0.2,0,0.3-0.2c0.1-0.2,0.2-0.4,0.4-0.6
			s0.2-0.4,0.2-0.7c0.1-0.2,0.2-0.4,0.3-0.6c0.3-0.6,0.6-1.2,0.9-1.8v-1.4c0.2-0.1,0.4-0.1,0.6-0.2c0.2-0.2,0.3-0.4,0.5-0.7V13
			c0.6-0.5,0.6-1.3,1.2-1.8c0-0.1,0-0.2-0.1-0.2C150.4,11,150.3,10.9,150.3,10.9L150.3,10.9z M78.1,12.9c0.1,0.1,0.3,0.2,0.5,0.4
			c0-0.4,0-0.7,0.1-0.9c0.1,0,0.2-0.1,0.3-0.1c-0.1-0.4-0.1-0.7-0.2-1.1c0.4-0.2,0.6-0.7,0.9-0.9c-0.5-0.1-0.6-0.6-0.7-0.9
			c-0.1,0.1-0.1,0.1-0.2,0.2c-0.1-0.1-0.1-0.1-0.2-0.2c-0.1,0.1-0.2,0.3-0.3,0.4h-0.7c-0.4,0.4-0.5,1-0.7,1.4
			c0.3,0.6,0.5,1.1,0.7,1.7C77.8,12.8,78,12.8,78.1,12.9z M178.8,33.6c-0.2,0.1-0.3,0.3-0.5,0.4c0,0-0.1-0.1-0.2-0.1
			c-0.1,0-0.1,0.1-0.2,0.1c-0.1,0-0.2,0-0.2,0c-0.3-0.3-0.6-0.6-0.9-0.9c0-0.3-0.5-0.8,0-1.3c-0.1-0.2-0.1-0.4-0.2-0.5
			c0-0.1,0.1-0.2,0.1-0.2c0.2-0.3,0.3-0.5,0.5-0.8c0.2-0.3,0.3-0.7,0.4-1c0,0,0.2,0,0.3-0.1v-0.5c0.2-0.2,0.3-0.3,0.4-0.4
			c0.1-0.2,0.2-0.3,0.3-0.5c0.1-0.1,0.3-0.2,0.4-0.3c0.1-0.3,0.3-0.1,0.4-0.2c0.7,1.2,1,2.7,0.8,3.9c-0.4,0.3,0,0.8-0.3,1.1
			c-0.2,0.3-0.3,0.7-0.6,0.9c-0.2,0.2-0.1,0.4-0.3,0.7C179,33.8,178.9,33.7,178.8,33.6L178.8,33.6z M261.4,41.2
			c-0.1,0.2-0.2,0.4-0.4,0.6c0,0.4-0.1,0.9,0.2,1.4c-0.1,0-0.2,0.1-0.3,0.1c-0.3,1.1-0.3,2.2-0.8,3.2c0.1,0.4-0.5,0.6-0.4,1
			c-0.4,0.4-0.5,1-0.7,1.5c-0.1,0.2-0.5,0.3-0.5,0.6c0,0.4-0.3,0.6-0.5,0.9c-0.2,0.3-0.5,0.6-0.7,0.9c-0.5,0.6-1.1,1-1.7,1.4
			c-0.3,0.3-0.7,0.4-1,0.5c-0.3,0.2-0.7,0.3-1,0.5c-0.4,0.2-0.8,0.4-1.4,0.4c-0.4,0-0.7-0.1-1-0.4c-0.6-0.6-0.9-1.4-1.3-2.1
			c-0.1-0.3-0.3-0.7-0.3-1c0-0.7-0.3-1.4-0.2-2.1c0.1-0.8-0.1-1.6-0.2-2.4c0-0.2-0.1-0.5,0.1-0.7c0.1-0.1,0.1-0.3,0-0.4
			c-0.3-0.3-0.1-0.6-0.1-0.8c0-0.2,0.1-0.5,0.2-0.7c0-0.2-0.1-0.5,0.2-0.7c-0.1-0.6,0.2-1,0.4-1.5c0.1-0.2,0.1-0.5,0.2-0.9
			c0.1-0.1,0.3-0.3,0.4-0.4c0.1-0.3,0.2-0.5,0.2-0.8c0-0.2,0-0.5,0-0.7c0.3-0.1,0.5-0.4,0.7-0.7c0.2-0.3,0.3-0.6,0.5-0.9
			c0-0.1-0.1-0.2-0.2-0.4c0.2,0,0.4-0.1,0.5-0.1c0.3-0.4,0.5-0.7,0.8-1c0.1-0.2,0-0.4,0.1-0.5c0.1-0.2,0.4-0.3,0.4-0.4
			c0-0.5,0.5-0.3,0.6-0.7c0.1-0.3,0.4-0.6,0.6-0.8c0.3-0.3,0.4-0.6,0.8-0.8c0.3-0.2,0.6-0.4,0.9-0.7c-0.1-0.1-0.1-0.2-0.2-0.3
			c0.3-0.2,0.6-0.4,0.9-0.6c0.3,0.2,0.6,0.5,0.8,0.9c0.2,0.3,0.3,0.7,0.7,0.9c0.1,0,0.1,0.2,0.1,0.3c0.1,0.2,0.1,0.3,0.2,0.5
			c0.5,0.5,0.7,1.2,0.9,1.8c0.3,0.6,0.5,1.2,0.7,1.8c0.2,0.5,0.4,1,0.4,1.5c0,0.2,0.1,0.3,0.2,0.5c-0.1,0.1-0.1,0.2-0.2,0.3
			c0.1,0.1,0.1,0.2,0.2,0.4c-0.1,0.1-0.1,0.2-0.2,0.3c0.3,0.5,0.3,1,0.2,1.4C261.3,40.9,261.4,41,261.4,41.2
			C261.4,41.1,261.5,41.2,261.4,41.2L261.4,41.2z M228.4,25v0.6c-0.3,0.4-0.7,0.7-1,1.1c-0.2,0.2-0.4,0.4-0.5,0.7
			c-0.1,0.3-0.4,0.4-0.6,0.5c-0.3,0.2-0.2,0.6-0.6,0.7c-0.3,0.1-0.5,0.5-0.6,0.8c-0.1,0.2-0.3,0.2-0.4,0.4c-0.1,0.1-0.2,0.3-0.2,0.4
			c-0.2,0.1-0.4,0.2-0.6,0.3c-0.5,0.4-1.1,0.8-1.6,1.2c-0.1,0.1-0.3,0.1-0.6,0.2c0.1-0.3,0.2-0.6,0.2-0.8c0.3-0.3,0.5-0.7,0.8-1
			c0.1-0.1,0.3-0.2,0.5-0.4c0.1-0.1,0.2-0.1,0.3-0.2c0.1-0.1,0.4-0.2,0.4-0.3c0.2-0.5,0.9-0.5,0.9-1.1c0.3-0.1,0.6-0.4,0.8-0.6
			c0.8-0.8,1.6-1.5,2.5-2.1C228.3,25.3,228.3,25.1,228.4,25L228.4,25z M137.2,27c0-0.4,0.5-0.5,0.6-0.8c0.5-0.1,0.9-0.1,1-0.6
			c0-0.1,0.1-0.2,0.2-0.2c0.5-0.2,1.1-0.4,1.7-0.7c-0.1,0.3-0.1,0.4-0.2,0.5c-0.1,0.1-0.3,0.1-0.3,0.2c-0.2,0.3-0.4,0.7-0.7,1
			c-0.3,0.2-0.6,0.5-0.8,0.7c-0.1,0.1-0.2,0.4-0.3,0.5c-0.3,0-0.2,0.3-0.4,0.4h-0.4c-0.3,0.4-0.7,0.8-1.1,1.1
			c-0.6,0.5-1.2,0.9-1.8,1.4c-0.2,0.2-0.5,0.1-0.7,0.1c0.2-0.4,0.3-0.8,0.5-1.2c0.2-0.4,0.5-0.7,0.8-1c0.3-0.3,0.7-0.5,0.8-1
			C136.5,27.4,136.8,27.2,137.2,27z M107.1,29.8c-0.1,0.1-0.2,0.2-0.4,0.3c-0.2,0.1-0.3,0.2-0.6,0.3c-0.1-0.1-0.2-0.3-0.3-0.5
			c0,0.1,0,0,0,0c0.6-0.3,0.9-0.8,1.2-1.4c0.1-0.3,0.4-0.5,0.6-0.7c0.3-0.4,0.7-0.7,1-1.1c0.3-0.5,0.9-0.8,1.6-0.7
			c0.1,0.2,0.2,0.3,0.3,0.5c0,0.1,0,0.1,0,0.2c-0.3,0.3-0.6,0.5-0.7,0.9c-0.4,0.1-0.6,0.5-0.9,0.8c-0.2,0.1-0.3,0.2-0.5,0.3
			c-0.5,0.2-0.8,0.6-0.9,1.2C107.3,29.9,107.2,29.9,107.1,29.8L107.1,29.8z"/>
		<g>
			<path class="st3" d="M270.6,29.6c0,1.3-1,2.3-2.3,2.3c-1.3,0-2.3-1-2.3-2.3c0-1.3,1-2.3,2.3-2.3
				C269.6,27.3,270.6,28.3,270.6,29.6z M268.3,31.5c1,0,1.9-0.8,1.9-1.9c0-1.1-0.9-1.9-1.9-1.9c-1,0-1.9,0.8-1.9,1.9
				C266.4,30.6,267.3,31.5,268.3,31.5z M268.5,28.3c0.6,0,0.9,0.2,0.9,0.7c0,0.5-0.3,0.7-0.7,0.7l0.7,1.2h-0.4l-0.7-1.2h-0.5v1.2
				h-0.4v-2.6H268.5z M268.1,29.3c0.1,0,0.3,0,0.4,0c0.2,0,0.5,0,0.5-0.3c0-0.3-0.1-0.3-0.6-0.3h-0.7v0.6H268.1z"/>
		</g>
	</g>
</g>
</svg>
