<?xml version="1.0" encoding="utf-8"?>
<!-- Generator: Adobe Illustrator 26.5.2, SVG Export Plug-In . SVG Version: 6.00 Build 0)  -->
<svg version="1.1" id="Layer_1" xmlns="http://www.w3.org/2000/svg" xmlns:xlink="http://www.w3.org/1999/xlink" x="0px" y="0px"
	 viewBox="0 0 107.7 107.7" style="enable-background:new 0 0 107.7 107.7;" xml:space="preserve">
<style type="text/css">
	.st0{fill:#5A5A5A;}
</style>
<path class="st0" d="M107.7,90.7V16.9c0-9.3-7.6-16.9-16.9-16.9H16.9C7.6,0,0,7.6,0,16.9v73.8c0,9.3,7.6,16.9,16.9,16.9h73.8
	C100.1,107.7,107.7,100.1,107.7,90.7z M90.7,98.7H16.9c-4.4,0-8-3.6-8-8V16.9c0-4.4,3.6-8,8-8h73.8c4.4,0,8,3.6,8,8v73.8
	C98.7,95.1,95.1,98.7,90.7,98.7z M16.9,15.1c-1,0-1.9,0.8-1.9,1.9v73.8c0,1,0.8,1.9,1.9,1.9h73.8c1,0,1.9-0.8,1.9-1.9V16.9
	c0-1-0.8-1.9-1.9-1.9H16.9z M55.2,77.4c-13,0-23.5-10.6-23.5-23.5s10.6-23.5,23.5-23.5s23.5,10.6,23.5,23.5S68.2,77.4,55.2,77.4z
	 M55.2,36c-9.8,0-17.8,8-17.8,17.8c0,9.8,8,17.8,17.8,17.8c9.8,0,17.8-8,17.8-17.8C73.1,44,65.1,36,55.2,36z M85.6,29.5
	c0,3.2-2.6,5.7-5.7,5.7s-5.7-2.6-5.7-5.7s2.6-5.7,5.7-5.7S85.6,26.4,85.6,29.5z"/>
</svg>
