<?xml version="1.0" encoding="UTF-8"?><svg id="Layer_1" xmlns="http://www.w3.org/2000/svg" viewBox="0 0 107.65332031 107.65380859"><defs><style>.cls-1{fill:#c50018;}</style></defs><path class="cls-1" d="M107.65332031,90.70751953V16.94628906c0-9.34423828-7.60253906-16.94628906-16.94628906-16.94628906H16.94628906C7.60205078,0,0,7.60205078,0,16.94628906V90.70751953c0,9.34375,7.60205078,16.94628906,16.94628906,16.94628906H90.70703125c9.34375,0,16.94628906-7.60253906,16.94628906-16.94628906Zm-16.94628906,8.03613281H16.94628906c-4.43115234,0-8.03662109-3.60449219-8.03662109-8.03613281V16.94628906c0-4.43115234,3.60546875-8.03662109,8.03662109-8.03662109H90.70703125c4.43164062,0,8.03613281,3.60546875,8.03613281,8.03662109V90.70751953c0,4.43164062-3.60449219,8.03613281-8.03613281,8.03613281ZM16.94628906,15.09033203c-1.0234375,0-1.85595703,.83251953-1.85595703,1.85595703V90.70751953c0,1.0234375,.83251953,1.85644531,1.85595703,1.85644531H90.70703125c1.0234375,0,1.85644531-.83300781,1.85644531-1.85644531V16.94628906c0-1.0234375-.83300781-1.85595703-1.85644531-1.85595703H16.94628906Zm38.29443359,62.26953125c-12.97607422,0-23.53271484-10.55664062-23.53271484-23.53271484s10.55664062-23.53271484,23.53271484-23.53271484,23.53271484,10.55664062,23.53271484,23.53271484-10.55664062,23.53271484-23.53271484,23.53271484Zm0-41.35644531c-9.828125,0-17.82373047,7.99560547-17.82373047,17.82373047,0,9.82763672,7.99560547,17.82373047,17.82373047,17.82373047,9.82763672,0,17.82373047-7.99609375,17.82373047-17.82373047,0-9.828125-7.99609375-17.82373047-17.82373047-17.82373047Zm30.31498958-6.49494529c0,3.15587483-2.55834203,5.71421686-5.71421686,5.71421686s-5.71421686-2.55834203-5.71421686-5.71421686,2.55834203-5.71421686,5.71421686-5.71421686,5.71421686,2.55834203,5.71421686,5.71421686Z"/></svg>