<?xml version="1.0" encoding="UTF-8"?><svg id="Layer_1" xmlns="http://www.w3.org/2000/svg" viewBox="0 0 208.80000824 65.95217035"><defs><style>.cls-1{fill:#ef58a0;}</style></defs><path class="cls-1" d="M208.78853363,13.73260713s-.05773926-.05535889,.01147461-.0770874c-.21173096-.91400146-.58209229-2.04656982-1.01434326-2.57946777-.47167969-.51055908-.72753906-1.34570312-1.30316162-2.21929932-.0022583-.11309814-.00457764-.22625732-.00927734-.45239258-.93341064-1.06860352-1.7434082-2.26580811-2.84692383-3.23339844-1.50244141-.63586426-2.49304199-1.78704834-4.80224609-1.7376709-.60107422-.49060059-1.18292236-1.00134277-1.84588623-1.58062744-1.24731445,.44439697-2.11566162-.13800049-3.26647949-.27856445-.12322998-.76959229-1.28295898-.90100098-1.77966309-1.47467041,.00231934,.11315918,.00457764,.22625732-.10620117,.3416748,.09771729,.16778564-.1473999,.17272949-.32440186-.01397705-.46490479-.2409668-.21520996,.61975098-.68676758,.37408447-.24243164,.13696289,.01385498-.2454834-.3416748-.10626221-.24780273-.12695312,.02380371,.24475098-.35949707,.13793945-.39489746,.14086914-.03741455,.85162354-.52246094,1.01171875-.1104126,.13427734-.23126221-.24047852-.34399414-.21936035-.11309814,.00231934-.22619629,.00463867-.41003418,.04998779,.09490967,1.3850708-.79241943,1.8270874-1.34454346,2.70507812-.56506348,.0390625-1.13726807-.27532959-1.83056641-.19317627-.78601074,.81634521-2.72698975,1.27709961-3.33166504,2.33190918-.2477417-.12695312,.02386475,.24468994-.33703613,.12005615,.13696289,.24237061-.2454834-.01391602-.09869385,.35162354-1.06079102,.42962646-2.00976562,1.32885742-2.67242432,2.20428467-.5402832,.88104248-1.57537842,1.24237061-2.00439453,2.53070068-.73425293,.49890137-1.35040283,1.46948242-2.00079346,2.237854-.30670166,1.14660645-.98382568,1.62121582-1.60614014,2.39831543-.96374512,1.30004883-1.91455078,3.02069092-2.7699585,4.66357422-.61010742,.25958252-.55255127,1.54919434-1.13311768,2.1630249-.82800293,1.40704346-1.32305908,2.90496826-1.99505615,4.69085693-1.06964111,2.1307373-2.18927002,5.99969482-3.07800293,9.18066406-.375,2.46636963-.90106201,5.28497314-.63397217,7.99121094-.10003662,1.84259033,.41046143,4.05688477,.98345947,5.80303955,1.03082275,2.37115479,2.2109375,3.84075928,3.70483398,5.56799316,.70513916,.76733398,1.45800781,1.48492432,2.36987305,2.1852417,.20098877,.27337646,1.26843262,.47991943,1.58325195,.85107422,.60046387,.17034912,.83532715,.48150635,1.61303711,.69604492,1.63024902,.40057373,3.24633789,.10723877,4.99023438,.53167725,.26257324-.0713501,.52099609-.34869385,.784729-.36578369,.24353027-.0803833-.02539062-.32012939,.17895508-.45111084,1.89660645,.24975586,3.3236084-.23730469,4.74163818-.8145752,.42730713-.33929443,1.67370605-.25262451,2.13452148-.84240723,1.14746094-.16021729,.91473389-.71850586,2.08361816-1.01495361,.03149414-.87695312,1.57519531-.95904541,2.11224365-1.60223389,.83898926-.85809326,1.91888428-1.48498535,2.58746338-2.61218262,.33203125-.54034424,.98339844-.58581543,1.15032959-1.52636719-.10461426-1.21624756,.63171387-1.11804199,.57043457-2.34759521,.57220459-.26202393,.73535156-.41778564,.78912354-1.26361084,.60760498,.02880859,.74975586-.38928223,.81646729-.99072266,.34460449-.22363281,.53509521-.59533691,.85876465-1.04693604,.17944336-.87127686-.1920166-1.73132324,.1852417-2.7197876-.24737549-.1081543,.01428223-.22662354-.2354126-.44787598,.24353027-.08044434-.02539062-.32012939,.21929932-.34399414,.11315918-.00231934,.22625732-.00457764,.51495361,.06048584-.04553223-.60235596,.39367676-.94726562,.71295166-1.35632324-.01165771-.43493652-.49700928-.80114746-.73693848-1.32611084,.21868896-.42431641,.32012939-.58508301,.68432617-.79699707,.11309814-.00231934,.22625732-.00457764,.45245361-.00921631,.20550537-.09844971,.07849121,.14929199,.12005615,.33709717-.07312012,.11462402-.31591797,.23272705-.33013916,.45935059,.11657715,.16741943,.22967529,.1651001,.33703613-.11999512,.24700928,.08929443-.02191162-.15045166,.20220947-.34362793,.24597168-.26904297-.18383789-.52435303-.11437988-.90301514-.13427734-.1104126,.24047852-.23126221,.21087646-.33520508,.10241699-.3762207-.16937256-.3626709-.23706055-.69818115,.06072998-.10290527,.23175049-.39404297,.23822021-.76446533,.02545166-.13989258,.50396729-.22894287,.6628418-.38879395,.01568604-.39569092-.46722412-.39666748-.51605225-1.12115479,.20037842-.3994751,.53137207-.41699219,.54821777-1.11865234,.46691895-.1204834,.30456543-.27203369,.21148682-.68884277l.10845947,.0526123c.24383545-.21624756,.44818115,.08734131,.4798584,.27929688,.10028076-.02526855,.22412109,.03820801,.17492676-.06451416-.00231934-.11315918-.003479-.16967773-.00463867-.22625732-.57202148-.29266357-.99151611-1.04016113-.796875-1.77648926,.19970703-.05389404,.35101318-.11193848,.59411621-.08190918-.00488281-.00463867,.03973389-.17852783,.03973389-.17852783,.0512085-.2276001,.14050293-.29730225,.32904053-.44891357,.1227417-.00970459,.17926025-.01086426,.23583984-.01202393,.17889404-.01306152,.05078125,.17816162,.17199707,.10968018,.18157959,.11889648,.04577637-.06695557,.16967773-.003479-.03265381-.23358154-.16827393-.21502686-.11694336-.39630127,.09375-.30987549,.36950684-.3963623,.2467041-.86547852-.07556152-.39910889-.00854492-.7588501-.05371094-1.11627197-.3013916-.18792725-.3770752-.58374023-.49139404-1.07855225,.18548584-.2177124,.30926514-.31561279,.55169678-.47167969,.184021,.08789062,.15527344,.4630127,.25073242,.51416016,.10943604,.00897217,.16601562,.0078125,.22259521,.00671387,.22796631-.26171875,.39935303-.52233887,.3536377-.99145508,.4274292-.09967041,.60656738-.38085938,.72613525-.83782959,.01977539-.57519531-.2946167-.88232422-.17089844-1.42388916,.23071289-.29119873,.34783936-.5637207,.40252686-1.14813232-.00457764-.45294189-.25286865-1.05133057,.13830566-1.21429443,.01171875-.29888916,.21948242-.52508545,.30236816-.67895508-.3237915-.13348389-.30065918-.4699707-.37445068-.87261963,.34869385-.39001465,.29949951-1.14532471,.8605957-1.31231689,.34381104,.16430664,.08703613,.63092041,.18212891,.95819092l.1071167-.02349854c.253479-.18377686,.23522949-.65045166,.5335083-.71063232-.00622559-.12457275-.00738525-.18115234-.00854492-.2376709-.14141846-.23626709-.33428955-.49951172-.23706055-.90643311-.00183105-.17327881-.18768311-.03747559-.12414551-.16131592-.2623291,.08679199-.46862793,.14465332-.67651367,.12506104-.11077881-.07525635-.12109375-.19927979-.22741699-.2232666-.00567627-.10961914-.00683594-.16619873-.00799561-.22277832,.20947266-.12878418,.50848389-.22503662,.59997559-.35827637,.10998535,.02319336,.23114014-.04528809,.18615723,.05938721,.09387207-.02081299,.21777344,.04272461,.16851807-.05999756,.15692139-.33465576,.60754395-.8237915,.40826416-1.4977417-.29309082-.61712646,.08428955-1.20947266-.04919434-1.79144287,.17327881-.14013672,.47235107-.1262207,.64160156-.12475586,.2477417,.09576416,.30169678,.1739502,.41955566,.38153076-.02752686,.31726074-.18164062,.36529541-.27331543,.47106934,.21148682,.21820068-.04614258,.5222168,.10437012,.62567139,.19812012-.00769043,.28674316,.29815674,.42279053,.16217041,.02032471-.25170898-.13189697-.67510986,.14978027-.76208496-.00769043-.66088867,.07086182-1.28125,.51959229-1.35980225,.18817139-.06988525,.05999756,.12133789,.18121338,.05285645,.07733154,.18707275,.06817627,.3192749,.06408691,.45135498-.04217529,.16119385,.07904053,.0927124,.11712646,.11077881,.10351562-.01153564,.03503418-.13269043,.05310059-.1708374Zm-13.98028564,30.387146c-.01806641,.03808594,.05041504,.15930176-.11749268,.12237549-.18737793-.0166626-.22583008-.18841553-.23010254-.39575195l-.00299072-.11108398c.07171631-.20074463,.05493164-.33117676,.11663818-.45068359-.0022583-.11254883,.12164307-.04907227,.15899658-.06866455,.15924072-.05041504,.09576416,.07348633,.11541748,.11077881l.01098633,.11297607c-.12164307,.20996094-.04919434,.41595459-.05145264,.68005371Zm3.24157715-26.16955566c-.20794678,.21783447-.22875977,.78314209-.45050049,1.17163086-.2166748,.56896973-.47924805,1.20489502-.76306152,1.72772217-.26092529,.50720215-.39697266,.87658691-.62585449,1.3782959-.16723633,.29058838-.34411621,.44592285-.534729,.93121338-.50732422,.91876221-1.02648926,1.87060547-1.57513428,2.8682251,.00115967,.05657959,.00231934,.11315918-.00756836,.26837158-.50244141,.58673096-.89782715,1.44598389-1.27307129,2.15985107l-.02502441,.09814453c-.26745605,.01959229-.19927979,.52069092-.37445068,.69067383-.20483398,.21380615-.28796387,.39318848-.4397583,.65814209-.27313232,.58361816-.4901123,.97888184-.74822998,1.41400146-.49700928,1.17718506-1.09741211,1.75500488-1.59020996,2.78619385-.45098877,.49005127-.6895752,1.26928711-1.10241699,1.78735352-.12762451,.54675293-.4586792,.59881592-.57946777,1.12133789-.28753662,.44891357-.43933105,.7791748-.75018311,1.09570312-.23675537,.6159668-.61450195,.93328857-.81390381,1.56243896-.31347656,.57012939-.56872559,1.04669189-1.04785156,1.36999512-.03735352,.53234863-.13293457,.80126953-.47369385,.86157227-.26715088,.2053833-.19555664,.5847168-.33239746,1.02075195-.17346191,.26959229-.32012939,.51696777-.54492188,.68933105-.30718994,.55535889-.49725342,1.16778564-1.04229736,1.43933105-.27935791,.39154053-.47711182,.83190918-.7979126,1.05578613-.33404541,.31591797-.37872314,.84606934-.80773926,1.00720215-.24609375,.46612549-.52593994,.84442139-.92150879,1.1116333-.60510254,.95330811-1.47467041,1.597229-2.42034912,2.16809082-.40698242,.08654785-1.04821777,.50805664-1.39367676,.24761963-.18688965-.31530762-.3069458-.81243896-.49786377-.9552002-.13262939-.52404785-.31555176-.9541626-.41223145-1.38598633-.23669434-.09100342-.16772461-.46405029-.15600586-.7322998-.13696289-1.2421875-.12799072-2.43060303-.206604-3.61730957,.07336426-.03918457,.00488281-.16040039,.10955811-.11535645,.00274658-.24169922,.06390381-.52618408,.16479492-.61956787-.0100708-.57183838,.03643799-1.08209229,.15148926-1.59368896-.05853271-.5067749,.02258301-1.17602539,.20410156-1.50640869-.02984619-.23577881,.09802246-.46582031,.17486572-.54406738-.02789307-.30932617,.00799561-.69329834,.17785645-.7755127-.07202148-.27709961,.05444336-.48712158,.0302124-.69415283,.11572266-.07226562,.10498047-.2119751,.2166748-.23413086-.13244629-.79077148,.33813477-.81488037,.38336182-1.45874023,.206604-.45483398,.14343262-1.2913208,.54760742-1.51074219,.02624512-.44061279,.12591553-.93103027,.25335693-1.27996826,.21795654-.3605957,.24377441-.73443604,.40905762-1.18060303,.30908203-.76782227,.79650879-1.31463623,.94061279-2.13360596,.19750977-.20202637,.21160889-.68817139,.39801025-.82098389,.14147949-.27313232,.30108643-.47113037,.39221191-.73480225,.00183105,.00177002,.05725098-.05596924,.07470703-.02990723,.02252197-.4319458,.16638184-.79443359,.41430664-1.05334473-.00115967-.05657959-.0022583-.11309814,.01287842-.20947266,.09143066-.26342773,.31488037-.40014648,.42004395-.76123047-.00115967-.05657959-.00231934-.11315918,.0022583-.262146,.29650879-.29541016,.49310303-.80828857,.71807861-1.21099854,.15283203-.24926758,.33612061-.59332275,.46807861-.98815918,.31951904-.35198975,.59686279-.81842041,.81469727-1.37017822,.16021729-.60723877,.5032959-1.05023193,.83215332-1.4319458-.00115967-.05657959-.00231934-.11315918,.00360107-.23809814,.44555664-.67822266,.77081299-1.45037842,1.15185547-2.22485352,.25463867-.62109375,.49395752-1.06341553,.73583984-1.70874023,.19696045-.60791016,.32769775-.81768799,.5880127-1.33050537,.24926758-.10461426,.12615967-.78625488,.45599365-.88519287,.35211182-.29040527,.53009033-.74804688,.86975098-1.16131592,.12390137-.50958252,.73492432-.5513916,.89660645-1.08013916,.25616455-.17913818,.93096924,.04351807,1.19561768-.28283691,.38391113,.07373047,.65124512,.23797607,1.30926514,.37438965,.35681152,.16540527,.76623535,.26623535,1.37481689,.22406006,.32220459,.32531738,1.42816162,.62097168,1.76116943,.1439209,.6361084-.14978027,1.05090332,.04614258,1.38879395,.29956055,.10021973,.17254639,.63439941,.32171631,.84265137,.48577881,.7310791,.56512451,1.52142334,.93676758,1.64093018,2.27416992,.30761719,.28979492,.27880859,1.06329346,.18273926,1.62969971Zm1.24481201,10.16790771l-.00445557-.1027832c.05651855-.00115967,.11309814-.00231934,.21954346-.02032471,.32501221,.07287598-.07122803,.19012451-.21508789,.12310791Zm2.29852295-3.71447754c-.11309814,.00231934-.16967773,.003479-.22619629,.00463867,.00823975-.0567627-.18145752-.10949707-.11657715-.16741943,.10137939-.11517334,.03424072-.17041016,.05194092-.22735596l.18518066,.22540283c-.09643555-.16625977,.07171631-.34143066,.17016602-.17718506,.04400635,.11340332,.04516602,.16998291,.04632568,.22650146-.1227417-.00689697,.01306152,.17895508-.11083984,.11541748Zm.74407959,5.19061279c-.07104492,.0769043-.12890625,.01202393-.18341064,.11688232-.09576416-.07348633-.21697998-.00500488-.17193604-.10968018-.06964111-.17773438,.12158203-.04962158,.05310059-.1708374,.13458252-.01599121,.33898926-.01287842,.30224609,.16363525ZM118.7574057,2.73626924c-.4597168-.56390381-1.66461182-.64831543-2.08044434-1.18884277-1.31488037-.00909424-2.25927734-.14086914-3.62298584-.06567383-.52276611,.66009521-1.44006348,.206604-1.97625732,.89428711,.12365723,.29040527-.25878906,.03411865-.12182617,.27655029-.01464844,.20776367-.26239014,.08074951-.33703613,.11999512-.1706543,.35375977-.15307617,.77734375-.6708374,.68688965-.98571777,1.85064697-1.93066406,3.64331055-2.85754395,5.37536621-.22735596,.9934082-.71447754,1.32196045-.84710693,1.92803955-1.12854004,2.78100586-2.19915771,5.44976807-3.15826416,7.98895264-.05786133,.24505615-.05554199,.35821533-.05322266,.47131348-.46539307,.70129395-.53491211,2.00921631-.94519043,2.40917969-.41491699,.93713379-.49377441,1.78448486-.84686279,2.56866455-.63793945,1.6137085-1.04772949,3.51141357-1.57922363,5.11303711-1.64123535,5.60266113-2.73248291,11.4821167-4.03613281,17.43200684-.10253906,.12969971,.03173828,.2401123-.17333984,.35748291,.12005615,.60998535-.37786865,1.07629395-.3102417,1.71710205-.83929443,2.71722412-1.4508667,5.53210449-1.48937988,8.24066162-.05206299,3.52636719,1.39654541,5.12072754,2.75769043,6.44647217,1.21917725,.46478271,1.41046143-.52191162,2.04388428-.52160645,.39221191,.18182373,.69940186,.28546143,1.18267822,.20562744,.47003174-.34332275,.81298828-.7164917,1.1741333-1.07220459,.51727295,.05548096,.31451416,.33947754,.61279297,.37322998,.57385254-.45721436,1.66296387-.65716553,2.23986816-1.07861328-.13134766-.63769531,.11157227-.81115723,.23071289-1.10339355,.30480957-.07702637,.31536865-.32568359,.52587891-.38238525,.00238037-.21948242,.00012207-.3326416-.00219727-.44573975,.66796875-.61566162,.72625732-1.59484863,1.2253418-2.15087891,.50860596-.95947266,.93029785-1.22009277,1.00848389-2.45605469,.38635254-.33911133,.74401855-.7822876,.83276367-1.58190918,.25695801-1.04211426,.19610596-1.98797607,.76184082-2.34063721-.00006104-1.29736328,.69500732-2.32788086,.68139648-3.68994141,.23962402-.00506592-.02929688-.24475098,.21429443-.32513428,.1071167-1.09869385,.5925293-1.66369629,.50921631-2.62036133,.57196045-.38812256,.45483398-1.66717529,.83911133-2.17791748,.1048584-2.36975098,1.62133789-3.99157715,1.71588135-6.24249268,.5803833-1.98095703,1.41973877-3.70410156,1.86486816-5.90667725,.16070557-.34729004,.30969238-1.16320801,.54821777-1.47186279,.44647217-1.78668213,1.10601807-4.19067383,1.41113281-5.91479492,.11877441-.21502686-.01818848-.45739746,.19116211-.36737061-.08874512-.37542725,.22509766-.64587402-.03900146-.90454102,.91693115-2.78173828,1.26293945-6.41021729,2.27978516-9.00177002,.21331787-1.27734375,.83111572-1.73345947,.69506836-2.78479004,.47991943-1.24157715,1.09942627-1.86132812,1.66430664-2.75762939-.15704346-2.43475342-1.23950195-3.02246094-2.06341553-4.05163574Zm41.18145752,10.12316895c.24475098-.02386475-.01153564,.35858154,.230896,.22161865,.18353271-.24890137,.43395996,.01000977,.3347168-.2331543-.0010376-.86523438-.2388916-2.05108643-.56555176-2.52648926-.44952393-.4197998-.87731934-1.144104-.7979126-2.0614624-.43481445-.23907471-.66296387-.57910156-.99499512-.81079102-2.21563721-.80688477-4.5512085-.67376709-6.90710449-1.03753662-.09912109-.39361572-.33575439-1.15655518-.54351807-1.4932251-.8449707-.66864014-2.30236816-1.44555664-4.10400391-1.00323486-.50427246,.42364502-1.34429932,.20489502-2.02557373,.40783691-.64880371,.46209717-1.28863525,.50561523-1.77734375,.96246338-.68029785,.96612549-1.64715576,1.47241211-2.25408936,2.62084961-1.3458252,1.93560791-2.88787842,3.44018555-4.03997803,5.56567383-.32781982-.03448486-.05621338,.3371582-.30401611,.21020508-1.14007568,1.4274292-1.88995361,3.29541016-3.02050781,4.77929688-.51751709,.15875244-.54058838,1.36108398-1.01660156,1.80639648-.54730225,.69372559-.64971924,1.77587891-1.19537354,2.25537109-.43865967,1.07385254-1.13446045,2.2980957-1.69549561,3.01641846-.27978516,.58074951-.8371582,1.71624756-.62701416,2.13568115-.79052734,.65338135-1.13348389,1.99145508-1.59185791,2.58435059-.44055176,1.10540771-.84417725,2.07000732-1.25726318,2.94641113-.83856201,2.2890625-1.66430664,4.55639648-2.20562744,7.00457764-1.00494385,4.34155273-1.29156494,8.57232666-.67974854,12.78479004,.88391113,4.51446533,2.46655273,7.49041748,4.59173584,9.3314209,1.80987549,1.3347168,3.35998535,2.24365234,5.73266602,3.17749023,1.77825928,.58502197,3.25006104,.01977539,4.67755127,.44775391,.74957275-.51239014,1.70544434,.12530518,2.2802124-.51934814,.37982178-.00878906,.64379883-.01416016,.90771484-.01953125,.01391602-.2454834,.26434326,.01348877,.33477783-.2331543,.94293213,.05603027,1.78399658-.25964355,2.34667969-.52081299,1.14398193-1.35955811,3.15484619-1.73638916,3.57928467-3.42022705,.84277344-.10754395,.90441895-.41870117,1.33172607-.63513184,.32659912-.31994629,.22674561-.79309082,.54107666-1.04064941,.66473389-.01019287,.5020752-.72094727,.8815918-.91107178,.46710205-.21704102,.61004639-.63433838,.81518555-.99188232,.44348145-1.0057373,1.08624268-1.46276855,1.53051758-2.18902588,.3404541,.10345459,.06884766-.26824951,.31658936-.14123535,.20281982-.23046875,.06854248-.34094238,.10394287-.45483398,.01464844-.20776367,.26239014-.08074951,.33703613-.11999512,.54455566-.84509277,1.04418945-1.62231445,1.55358887-2.39025879,.47869873-1.09466553,.85693359-2.23846436,1.41046143-2.88909912,1.14019775-1.71691895,2.02545166-4.45690918,1.56988525-7.02813721,.32293701-.2020874,.05401611-.44177246,.30102539-.35253906-.00567627-.3770752-.10620117-.63909912-.00476074-.9052124-.03485107-.11248779,.33990479-.23327637,.20562744-.34368896-.35308838-.74725342,.44769287-1.40484619-.07714844-2.03546143,.04754639-.89807129,.72711182-.81018066,.41461182-1.74237061,.52246094-.16577148,.32983398-.9052124,.34881592-1.44152832-.02130127-.36352539-.48944092-.14544678-.4619751-.44360352,.28900146-1.44293213,1.61157227-2.80895996,.62164307-4.26531982-.16467285-.15753174,.21008301-.27832031,.07580566-.38873291-.48492432-.51397705-.40716553-1.17779541-.81011963-1.64709473,.13220215-.58483887,.44384766-.51324463,.62261963-.94616699-.07928467-.47265625,.21691895-.44708252,.11322021-.80541992-.21398926-.21960449-.12750244-.38244629-.33764648-.6652832,.18255615-.47186279-.01916504-.53131104-.03479004-.78460693-.01776123-.36657715,.36468506-.11029053,.22772217-.35266113,.06011963-.31201172-.14178467-.76464844,.08477783-.8059082,.37310791,.13641357,.10150146-.23529053,.3493042-.10827637-.21203613-.2220459-.08233643-.33782959-.12237549-.45019531,.65820312-.66375732-.02801514-1.8394165,.12054443-2.70965576,.09765625-1.06707764-.0043335-2.00805664-.00537109-2.9510498-.02783203-.24468994,.35461426,.01159668,.21765137-.23077393-.20776367-.01464844-.08081055-.26245117-.12005615-.33709717,.2454834,.01385498-.02612305-.35778809,.22167969-.23083496,.38537598-.3850708-.40612793-.63299561-.02185059-.90490723,.11700439-.17126465,.39904785-.44903564,.67883301-.34472656-1.409729-.2142334-.71124268-2.33410645-.81652832-3.29003906,.08209229-.19293213,.32983398-.06591797,.40447998-.10516357Zm-12.09539795,5.88189697c-.02404785,1.37567139-.43756104,2.38824463-.60931396,3.76953125,.13696289,.24243164-.2454834-.01385498-.15216064,.3782959-.47711182,2.16241455-.78552246,4.05963135-1.34698486,6.74072266-.68560791,2.57647705-1.57836914,5.41595459-2.26934814,7.89581299,.00231934,.11309814,.00463867,.22625732,.00921631,.45245361-.24353027,.08044434,.02539062,.32012939-.18695068,.33569336-.55755615,2.91369629-1.5368042,5.53198242-2.39221191,8.02728271-.70800781,2.48406982-1.8560791,3.96765137-3.13311768,5.6729126-.11309814,.00231934-.22619629,.00463867-.46734619,.07995605-.40838623-1.52557373,.33721924-2.93450928,.26397705-4.60253906,.19262695-1.55053711,.2401123-3.09814453,.54412842-4.68267822,.27532959-1.25195312,.56982422-2.51477051,.98248291-4.21966553,.65612793-1.1350708,.69854736-3.17022705,1.15252686-4.61743164,.13110352-.35577393,.34210205-.2230835,.4085083-.72357178,.10040283-1.29620361,.89129639-2.32025146,1.16082764-3.81243896,.16162109-1.57434082,.67346191-2.54119873,1.10595703-4.07983398,.52728271-1.43365479,1.00518799-3.19219971,1.60742188-4.61560059,.58996582-1.62200928,1.10528564-3.35119629,1.84259033-4.37792969,.78765869,.4387207,1.92791748,.76751709,1.47979736,2.37902832Zm1.04248047-9.71276855c-.41937256-.07598877-.2230835-.63043213-.01416016-.58380127,.24243164-.13696289-.01385498,.2454834,.23083496,.22161865-.03613281,.07617188,.10083008,.31860352-.2166748,.36218262Zm53.71447754,23.16314697c-.03729248,.01965332-.16119385-.04388428-.17340088,.05535889,.03631592,.23815918,.00799561,.41430664-.15447998,.51715088,.06713867,.05523682-.12023926,.11560059,.003479,.16967773-.04504395,.10467529,.07617188,.03619385,.12744141,.02362061,.18188477-.30389404,.37011719-.4543457,.42358398-.95172119l-.11694336,.01391602c-.12176514,.04022217,.01269531,.16009521-.10968018,.17199707Zm3.94500732-14.85211182c-.10461426,.04742432-.03430176,.49633789,.10473633,.45898438,.06964111-.06298828,.06848145-.11956787,.06732178-.17608643-.03234863-.15887451-.02728271-.29888916-.17205811-.28289795Zm1.0447998-1.31921387l.00231934,.11309814-.00115967-.05657959-.00115967-.05651855Z"/><g id="Architectural-Digest"><g id="eCap_architecturaldigest_unveil_v2"><g id="email-capture"><g id="content"><g id="logo-ad-xs"><path id="Shape" d="M0,64.77100453H10.69953843v-.47441577H5.75064415c.39848856-1.02672798,7.425728-20.34095699,7.425728-20.34095699h20.32291846s6.9484962,19.11832757,7.38755113,20.34095699h-6.62875049v.47205755h17.7291619L28.62436721,0,5.23284754,64.29658876H0v.47441577Zm13.2956798-21.28979166L23.31754956,15.95554168l10.02186976,27.52803254H13.2956798v-.00236135Z"/><path id="Shape-2" d="M52.02554769,64.77100453h15.54907184c17.94124563,0,32.45148874-10.46578969,32.45148874-31.67246492,0-20.9315747-13.87407947-31.79003451-32.65162497-31.79003451h-21.96789352v.47026689h6.61895792v62.99223254Zm10.24532707-.43264331V1.81639332h3.98614836c4.70570679,0,8.61322685,.27745739,11.52242395,1.655339,7.89366843,3.69629681,10.60510628,13.25917073,10.60510628,29.62680728,0,15.54231618-3.94563946,24.74778866-10.40496379,28.91670248-2.99020865,1.85049862-7.1359906,2.32311914-10.80524878,2.32311914h-4.90346603Z"/></g></g></g></g></g></svg>