<?xml version="1.0" encoding="UTF-8"?><svg id="Layer_1" xmlns="http://www.w3.org/2000/svg" viewBox="0 0 136.8 76.70067342"><defs><style>.cls-1{fill:#c50018;}</style></defs><path class="cls-1" d="M136.2737002,3.79834417c.23498965-.20891535,.36175088-.32187726,.42280487-.37643272-.60267745-1.17101706-1.18754415-2.30737535-1.76101839-3.42191145h-1.09977403c-.46813405,.65723292-.91741436,1.3488037-1.42831027,1.99159546-.83181042,1.04650223-1.75395827,2.02400783-2.54557414,3.09842962-.8667901,1.17679352-1.87245595,2.34010863-2.37019436,3.67575483-.53544586,1.43673427-1.2759561,2.79580723-1.95172184,4.10834759-1.43392627,2.78553797-3.12193661,5.41799971-3.84575929,8.52830317-.13879553,.59593825-.67544482,1.0946394-1.00181488,1.65367248-.20073203,.34369944-.38750427,.70440735-.51715374,1.07923551-.60211585,1.74096123-1.83498918,3.26979797-1.7148067,5.26396075,.02077921,.34369944-.3472295,.70601193-.51779557,1.06768258-.1359073,.28850215-.360387,.59593825-.34434127,.88411948,.05447524,.98103566-.30037598,1.89788843-.97574058,2.42611371-.88460085,.69253352-.39304005,1.58916867-.86815399,2.16232199-.58326213,.61776044-1.16652425,1.23519996-1.76511005,1.86900612-2.07752033,.30551062-2.49992405-2.25859634-4.1905017-2.58175725-.87994759,.36744712-1.66554632,.80003988-2.50682371,1.01761992-.87770119,.22688656-1.253813,1.54231515-2.41415965,1.06318978-.67191476,.67167407-1.34374929,1.34366906-2.09693565,2.09685542-1.12681108-.28721849-1.96520025,.23041662-2.79564678,.80774183-.49830001,.34658767-.99371179,.71467662-1.54696841,.94316775-.0159655,.20442254-.03201122,.409166-.04613146,.59080362-.01420047,.18195853-.02655568,.34113213-.03546105,.45505678-.72422383,.35108048-1.36974337,.53753181-1.85833571,.92295014-1.96415727,1.54905435-3.8581145,3.18732294-5.82162994,4.73734003-1.15553293,.91235996-2.41215393,1.69539137-3.58758356,2.58400365-.92335128,.69766815-1.93174491,1.35843113-2.63109786,2.24864799-.40387091,.51442596-.62088935,.96081805-1.31671224,1.2560594-.88363811,.37482815-1.62342629,1.12576811-2.36842933,1.77947097-.71275113,.62546238-1.5357364,1.23359539-1.97378471,2.03331435-.45208832,.82571304-1.31454607,1.18256998-1.73149425,2.07888421-.52638003,1.13154457-1.1167825,1.04746497-2.49944268,.04107706-.14168376-2.1382534,.63533051-4.11155673,1.38611001-6.08518099,.48321703-1.27017964,.93329963-2.55961415,1.71095572-3.69629336,1.02139066-1.49321523,1.12199736-3.21556342,1.03053673-4.70877864,.53055192-.58663173,.85555809-.94573507,.98376344-1.08757928-.20169477-.85331169-.46315987-1.40432191-.43283345-1.93896548,.08111114-1.43224147-.35453031-2.59812389-1.38233926-3.59488437-.24686349-.23940223-.31048479-.6678231-.48249497-1.06479435-1.53726074,.23555125-2.60173418,.89920246-3.35155094,2.1051992-.25007263,.4024268-.54739993,1.02917284-.89029709,1.07763093-1.92845553,.27213551-2.63358495,1.83498918-3.58437442,3.15587332-1.16949271,.22720747-1.9011778,.48072994-2.20115264,1.37223046-.30679427,.91203904-.95504159,1.4617656-1.59735199,1.89596294-.61792089,.41750978-.99114447,.91749459-1.41715849,1.47299761-.91725391,1.19604839-1.76125907,2.57084616-2.96380598,3.39014091-1.14036972,.77693403-2.05513654,1.66137443-2.88542261,2.70145837-.1392769,.17457749-.19808448,.44350386-.36849009,.55710759-.32925829,.21918461-.72655046,.33375109-1.06808373,.53817364-.41927481,.25095515-.79795394,.56962326-1.21771012,.81993658-.30222124,.18003304-.38060461,.75093996-.81849246,.62193233,.126681-1.13186549,.35573374-2.17708405,.32187726-3.21363793-.02398836-.73553606,.22736793-1.29970378,.56601297-1.85360222,.84544928-1.38282063,1.27892456-2.84875813,1.01384917-4.34582433,1.36172051-1.59109415,.98191818-3.5425753,1.55210304-5.21678632,.06723159-.19736243-.02711728-.50704493-.14762068-.70216095-.74147298-1.19989936-1.23327447-2.61930425-2.5821584-3.08976493-.61551404,.19479511-1.14879373,.36327523-1.52185685,.48137177-1.4578344,1.19669022-2.79668975,2.35294521-4.20036983,3.42415785-.74323801,.56737686-.84504814,1.37511869-.93610763,1.86772246-1.5715986,1.26472409-3.63259182,1.60489348-3.73135327,3.91419431h-1.16171054c-.41959573,1.06254795-1.79864561,1.16909157-2.3097822,2.29485968-.46572719,1.02564278-1.10506912,1.97234059-1.68656622,2.98675137h-1.97073602c.42136075,1.44411531-1.03831891,1.23712545-1.54656726,1.92291976-.48185314,.6501728-.94380958,1.48390871-1.57881917,1.85649045-.82266435,.48265543-1.21113137,1.36067753-1.83089752,1.75411873-.88917389,.56480954-.89374692,1.40688922-1.28518239,1.95308572-.62786924,.24902966-1.21538349,.36199157-1.65327134,.68065968-1.0099982,.73457332-1.98108551,1.53204588-2.90435657,2.37380465-.87497342,.79779348-1.76944239,1.42646501-3.00881424,1.29103908-.53672952-2.99894612,.2580955-5.79764158,.47928582-8.63035399,.30535016-.3051897,.61078055-.61070032,.92463494-.92455471,.07766131-.8048536-.17096721-1.66394175,.70127844-2.31058449,.49444904-.36648437,.89414806-1.00029054,1.09616375-1.59526604,.56577229-1.66650906,2.50176931-2.82083857,1.73261745-5.04317156,.42039801-.31385439,.83156973-.62064867,1.11028398-.82860127v-2.23452775c-.49789887-1.56221185-3.1732027-2.39338043-1.58411426-4.65005129,.01700847-.0243895-.3273328-.22688656-.33423246-.35525237-.04212003-.77757586-.28834169-1.41940489-.64664274-1.98678175-.59714168-.94541415-1.50573089-1.68415936-2.29999431-2.49896131-1.36565171,.02984505-2.23629278,.24357412-3.01723825,.90112795-.46853519,.39440394-.90473824,.94830238-1.39621882,1.71849721-.32725257,.51250048-.56248291,.9531161-1.28277554,1.02371729-.43852968,.04300254-1.07000921,.35236413-1.20760131,.70216095-.2023366,.51410505-.47703942,.64375451-.89823972,.92391288-.73401172,.4887528-1.19307993,1.37511869-1.81517271,2.05096465-.59786374,.64953097-1.25630009,1.24322282-1.86002051,1.83402644-.4803288,.89374692-.96892114,1.80289773-1.45534731,2.70819757-.41807138,.03080779-.8269967,.06161559-1.1122897,.08279594-2.10327372,2.01117125-3.82481962,4.12343057-4.99158456,6.3265087-.62137072,.49196195-1.15144127,.77340398-1.49048745,1.20535491-1.10001472,1.40079185-2.05409357,2.97744485-2.45403328,4.65967872-.20779215,.87417113-1.07843322,.48105085-1.20832337,1.30483841-.1818783,1.15400859-.82218298,2.23613232-1.31430539,3.46908588,.58494693,.85876724,.57539972,1.91650147-.09121995,2.90716457,.80966732,1.74449129,2.01742908,3.01467093,4.01255461,3.48609435,1.02780895-.60781209,2.00395067-1.39854545,3.12009135-1.78588926,1.14325795-.39665034,1.28975543-1.65463523,2.43293315-2.15365729,.93755175-.40884509,1.41314706-1.87670807,1.94875338-2.66294862,.63870011-.26667996,1.17542963-.34979682,1.5026822-.65627018,.69959364-.65530743,1.17912015-1.59045232,1.95003704-2.11514755,1.52273936-1.03655388,2.53434213-2.31636095,2.69600282-4.36764652,.51803625,.27341916,.86350072,.45537769,1.22444932,.64600091,.12475552-.11328282,.30559084-.27727014,.48562389-.44061563,.25801527,.25801527,.50239167,.50255213,.6036402,.6036402-.30775702,1.43545061-1.05276006,2.88823061-.75655596,4.08299534,.31337302,1.26376135,.26226739,2.47296723,.39697125,3.70303256,.23073753,2.10905018,1.18585935,3.91997077,2.67730955,5.34675669,.84769568,.81095097,2.03917104,1.26279861,2.71341243,1.66169535,1.33989832-.21629638,2.29895134-.37161901,3.09690527-.50062664,.39817468-.5240534,.68138174-1.03912119,1.09327552-1.41170294,1.05460532-.95407885,2.43558069-1.6716437,3.17191904-2.8150621,.61086077-.9486233,1.44780582-1.10330409,2.27424092-1.5965497,.22512153-.89470966,.4609937-1.83242187,.72069377-2.86512477h1.69571228c1.34407021-1.29136,2.50457731-2.67674795,3.82209184-3.90167864,1.39493516-1.29681555,2.58320137-2.74734914,3.33735047-4.39973797h1.02636484c1.53485388-1.37576052,2.84354327-3.05799439,4.67187347-4.19756182,.56625366-.35268505,1.36172051-.80292811,1.35626496-1.75764879-.00040114-.05936918,.62273461-.12226843,1.06952784-.20474346-.68804071,2.14146254-1.29817943,4.0399928-1.90831815,5.93884397-.24124748,1.30868938-.05431478,2.71782501-.27959677,4.05796401-.4893144,2.91069463-.65282035,2.92706127,.06987914,4.74728838,.38188827,.96178079,.92744294,1.98870723,1.69699594,2.62732711,.68539317,.56866052,1.6965948,1.05741332,2.60550493,.47655805,.6445568-.55839125,1.28903337-1.11710342,1.82455946-1.58082489,.06723159-.71916942,.12018248-1.28590445,.16936263-1.81156242,.70392598-.40050131,1.28333714-.69285443,1.82223283-1.04682314,.54980679-.36070791,1.21819149-.68001785,1.55322624-1.19925753,.63517005-.98456572,1.48278551-1.82536175,2.09091851-2.73740079,.7286364-1.09271392,1.57087654-2.08369793,2.54469163-2.75055829,.97959155-.67039042,1.27419107-2.0962136,2.63342449-2.24351336-.02310584-.80389085,.9923479-.80870457,1.12560765-1.29713646,.37988255-1.39212716,1.55988522-1.93415177,2.52495538-2.71365312,.16912195-.13670958,.43251253-.15628537,.6406256-.22624473v-1.11036421c.48859235-.236514,.94605598-.45794501,1.70148875-.82346664-.27718991,1.05516692-.49003646,1.813167-.6734391,2.57822719-.18893842,.78848696-.23635354,1.63281304-.55381822,2.36193081-.31353348,.72013217-1.07682865,1.13796286-.63797805,2.23196043,.20674917,.51538871-.63204113,1.39918727-.86486461,2.15654552-.23619308,.76826934-.30952205,1.58628044-.4682945,2.46077248,.09627435,.10301356,.27021002,.2897858,.45016283,.48233451-.85435466,1.48390871-.40667892,3.11158711-.50142893,4.25693101,.53536564,1.3311534,.92046305,2.2887623,1.29850035,3.22904183,.76987392,.2564107,1.52923788,.50929133,2.1979435,.732006,.1347841,.33888573,.24469732,.61551404,.35445008,.89150052,1.39806407-.7541491,2.67289697-1.43320421,3.93762107-2.13023053,.28513254-.15724811,.67416116-.32155634,.77869906-.57892978,.67456231-1.65976986,2.25755337-2.50441686,3.31857697-3.80925526,.36439843-.44799666,.67480299-.94316775,1.06487458-1.36613308,.20779215-.2256029,.53295878-.34241578,1.02516141-.64279177,0,1.01344803,.28264546,1.96207133-.05559844,2.31443546-.84729454,.88219399-.03505991,1.50284266,.07340919,2.21238465,.08359823,.54683833,.38212896,1.05805515,.49172126,1.60393073,.69429855,3.45785387,5.52253762,4.37470663,7.79766105,2.04711368,.62963427-.64407543,1.1100433-1.43416696,1.79647944-2.33850405h1.77762571c.02061876-.35172231-.03850974-.5904827,.05070449-.67777145,1.23062693-1.20567582,2.4815517-2.39081312,3.71185771-3.56600206v-1.3311534c1.52947857-.18003304,2.80679856-.5859899,3.30734497-2.15558278,1.34495272-.35525237,1.88529253-1.4816623,2.54172317-2.54613574,.65618995-1.06383161,1.85175697-1.62543201,2.44191875-2.87443129,.50086733-1.06030155,1.78909841-1.72138545,1.99336049-3.0692264,.01548413-.10205082,.1984054-.17874938,.30270261-.26667996,.13093312,.13093312,.25312132,.25320155,.45281038,.45281038,.62947382-.53464358,1.16387671-1.49867077,2.34267594-.80902549,0,1.30740572,.23298394,2.73515439-.09218269,4.02202159-.1790703,.70825833-.3438599,1.40624739-.44270157,2.13857431-.0966755,.71596028-.7036853,1.74449129-.42922316,2.05577837,.72687137,.82314572-.27654808,1.29681555-.11264099,1.97619157,.17714481,.73489423,.04011431,1.54552429,.04011431,2.32277924,0,1.12287988-.12058363,2.26308914,.03722608,3.36350501,.13189586,.91942008-.52188723,1.68255479-.11873837,2.71718318,.37988255,.97493829,.07806246,2.21431014,.08528303,3.3368691,.00104297,.16109909,.05311135,.32219817,.05271021,.31963085,.42705699,.57700429,.76554157,1.03430747,1.09431849,1.47845316-.2779922,.30037598-.45096512,.48714823-.53672952,.57957161,.71932988,2.48034827,2.11081521,4.11123582,4.87661693,3.97260075,.67247636-1.60360982,.82234344-2.81666668,.74564487-4.01624512-.10012533-1.56542099,.28882306-3.22198171-1.05308097-4.52810377,0-1.44026433-.04982198-2.9078064,.02334653-4.36925109,.03128916-.62546238,.63886057-1.38378338,.43540076-1.83274278-1.05524715-2.32759296-.25272018-4.72386162-.39833514-7.07135128-.05471592-.88219399,.98921898-1.91585964,.78640101-2.68348715-.24806692-.93835403,.33896595-1.58050397,.25175744-2.42065817-.09715687-.93707038,.26210693-1.92805439,.46404239-2.88694695,.13229701-.6280297,.51699328-1.25188751,.47840331-1.85809503-.13518524-2.12092401,.6131874-4.06245681,1.23038624-5.98954846,.44815712-1.39918727,1.01986632-2.73451256,.86374141-4.14974556,.46821427-.2012134,1.01713855-.35108048,1.0077518-.44639209-.08584463-.86999924,.75406888-1.08854203,1.10819804-1.62703658,.39552714-.60171471,.01034949-1.22910258,.28858238-1.79102389,.14120239-.28561392,.18292127-.64856823,.38670199-.86743193,.23498965-.25255972,.71202907-.01508298,.88925411-.63765714,.19567762-.68804071,.66036184-1.27050056,1.04722428-1.88794008,.38686244-.61743952,.69598335-1.26985873,.58029367-2.09717634,.2847314-.55229388,.5694628-1.10426684,.85668129-1.66105352,.86157524-1.67036004,1.74505289-3.38308079,2.71597975-5.26556532v-4.16867952c.63653394-.20891535,1.24129733-.40756143,1.67308781-.54940565,.50600196-.68483157,.93835403-1.27017964,1.42486044-1.92869622v-1.94795109c1.78396378-1.38891801,1.80698939-3.92157534,3.62737696-5.11826556-.08680738-.31610079-.1045379-.48426-.17842847-.62289507-.09017698-.16848012-.22760862-.31192891-.34787133-.47078159Zm-38.40640773,47.25791359c.01993082-1.23839189,1.40063034-1.41719981,1.68019961-2.28913355,1.375005-.19572538,2.59932668-.31708983,3.02015167-1.82461895,.08092545-.28995386,.40016654-.60838031,.68726523-.72994249,1.53771007-.65107339,3.10006476-1.24396778,5.00054736-1.99372245-.26254898,.78544032-.3094655,1.24707604-.55157748,1.55535518-.22097899,.28134881-.7882164,.31221785-.96847958,.60018653-.63047821,1.00702831-1.11868835,2.05731916-2.06201714,2.8969286-.80590105,.71729591-1.63559254,1.4063644-2.44114559,2.12288522-.40614578,.3612619-.60153107,1.31431091-.93352156,1.33494564-.86234006,.05358385-.6903023,.79643391-1.07202493,1.15079911h-1.06076243c-1.00267833,1.12050743-2.08204286,2.20159614-3.1812433,3.26774463-1.62306459,1.57432109-3.53424024,2.74583402-5.25006222,4.17706448-.71839527,.59923745-1.4017376,.20629188-2.17992533,.3754982,.58305552-1.27435437,.96598032-2.40902692,1.58889748-3.39152134,.66217771-1.04439069,1.55542636-1.94164923,2.34120677-2.90846,.78581205-.96686613,2.0181377-1.56724248,2.36958446-2.83592606,1.1631056-.58217762,2.08799047-1.04513414,3.01290698-1.50808275ZM10.02398313,59.14877101c-.3077255,.27510856-.66493006,.66107044-1.08683068,.9537371-.46514733,.32268153-.98970748,.55967636-1.62749366,.91052203-.21949209-.31061231-.54828732-.775902-.94940294-1.34357441-.07871091,.16331407-.05096595-.02572816,.04030454-.06425316,1.80304305-.76096971,2.59413834-2.37474116,3.46157184-3.96256301,.42980968-.78673741,1.04222361-1.48482222,1.63404236-2.16937465,.93004157-1.07572636,1.97776988-2.0148159,2.789144-3.23527005,1.00891067-1.51759735,2.54877201-2.44441203,4.57785584-1.99076446,.2302484,.44168908,.48909595,.93824326,.74949367,1.43782662-.04451216,.15006641-.04612561,.34307107-.14271099,.45120367-.77676409,.86946612-1.80968665,1.53018065-2.1888151,2.72029568-1.31166929,.22887223-1.76900247,1.51332646-2.71277417,2.19753879-.46018045,.33361975-.83630346,.71076303-1.40600849,.97392101-1.41907425,.65552619-2.32833083,1.88112914-2.50612638,3.54100248-.17418902-.11578065-.2960201-.19675356-.63224984-.42024763Z"/></svg>