<?xml version="1.0" encoding="UTF-8"?><svg id="Layer_1" xmlns="http://www.w3.org/2000/svg" viewBox="0 0 84.89924758 108.52401452"><defs><style>.cls-1{fill:#c50018;}</style></defs><path class="cls-1" d="M17.32692996,54.84481373l-2.63996069,8.79986898S-5.5527294,55.72480063,1.48716579,29.32519368C1.48716579,29.32519368,7.94040304,4.39223156,37.56662862,.28562603c0,0,28.74623868-3.81327656,40.77272629,16.4264221,0,0,16.71975107,21.41301453-3.22661863,49.86592424,0,0-17.89306693,22.87965936-39.89273939,4.69326346l-4.98659242,19.35971176s-4.69326346,11.14650071-11.14650071,17.89306693c0,0-3.51994759-8.50654002-1.46664483-22.29300142l8.21321105-32.26618627s1.46664483-1.46664483-.58665793-7.91988208c-2.05330276-6.45323725-.8799869-24.05297522,13.78646141-21.11968556,0,0,13.19980347-1.7599738,.29332897,31.67952834,0,0,.74589222,20.28399825,19.0663828,8.50654002,4.10660553-2.63996069,16.4264221-21.70634349,9.67985588-39.01275249,0,0-4.39993449-19.35971176-30.79954144-14.95977727,0,0-17.306409,2.05330276-23.17298832,18.77305383-5.59249078,15.93859871,3.22661863,24.93296212,3.22661863,24.93296212Z"/></svg>