<?xml version="1.0" encoding="UTF-8"?><svg id="Layer_1" xmlns="http://www.w3.org/2000/svg" viewBox="0 0 101.07132277 136.8"><defs><style>.cls-1{fill:#c50018;}</style></defs><path class="cls-1" d="M32.67132277,112.81988071c27.52119167-.16147747,38.94822367,14.32362349,54.07637651,14.32362349,6.59842684,0,11.26555452-3.05806896,11.26555452-10.62250264h3.05806896c0,12.5538018-4.34560174,20.27899844-15.12815284,20.27899844-21.56653122,0-27.84343212-21.24429077-54.55937993-21.24429077-6.75990432,0-11.74855794,2.09206213-16.25492265,5.63313451l-1.77053619-2.89730599c7.88595962-6.59842684,15.28963032-8.36896303,30.74002361-12.87532774,32.18831935-9.17349239,42.97158496-22.04882013,42.97158496-53.91489904C87.06993973,18.66851072,70.81430258,3.21811743,49.73148928,3.21811743,27.84343212,3.21811743,12.23156135,18.66851072,12.23156135,51.50131097c0,31.54383846,14.96738987,46.67270581,35.8901547,46.67270581v3.21883194C24.78536315,101.39284871,0,86.58622181,0,51.50131097,0,15.28891582,25.58989251,0,49.73148928,0c24.14088226,0,49.73077478,15.28891582,49.73077478,51.50131097,0,36.05091768-23.01482696,49.24777136-66.79094128,60.67480336v.64376639Z"/></svg>