<?xml version="1.0" encoding="utf-8"?>
<!-- Generator: Adobe Illustrator 26.5.2, SVG Export Plug-In . SVG Version: 6.00 Build 0)  -->
<svg version="1.1" id="Layer_1" xmlns="http://www.w3.org/2000/svg" xmlns:xlink="http://www.w3.org/1999/xlink" x="0px" y="0px"
	 viewBox="0 0 84.9 108.5" style="enable-background:new 0 0 84.9 108.5;" xml:space="preserve">
<style type="text/css">
	.st0{fill:#5A5A5A;}
</style>
<path class="st0" d="M17.3,54.8l-2.6,8.8c0,0-20.2-7.9-13.2-34.3c0,0,6.5-24.9,36.1-29c0,0,28.7-3.8,40.8,16.4
	c0,0,16.7,21.4-3.2,49.9c0,0-17.9,22.9-39.9,4.7l-5,19.4c0,0-4.7,11.1-11.1,17.9c0,0-3.5-8.5-1.5-22.3L25.8,54c0,0,1.5-1.5-0.6-7.9
	S24.4,22,39,24.9c0,0,13.2-1.8,0.3,31.7c0,0,0.7,20.3,19.1,8.5c4.1-2.6,16.4-21.7,9.7-39c0,0-4.4-19.4-30.8-15
	c0,0-17.3,2.1-23.2,18.8C8.5,45.9,17.3,54.8,17.3,54.8z"/>
</svg>
