<?xml version="1.0" encoding="utf-8"?>
<!-- Generator: Adobe Illustrator 26.5.2, SVG Export Plug-In . SVG Version: 6.00 Build 0)  -->
<svg version="1.1" id="Layer_1" xmlns="http://www.w3.org/2000/svg" xmlns:xlink="http://www.w3.org/1999/xlink" x="0px" y="0px"
	 viewBox="0 0 216 216" style="enable-background:new 0 0 216 216;" xml:space="preserve">
<style type="text/css">
	.st0{fill:#BD9A34;}
</style>
<g>
	<path d="M212.2,139.1V139h-59.3v0.2c0,0.1,0,0.3,0,0.4c0,0.3-0.1,0.5-0.1,0.8c0,5.6,0,11.2,0,16.8v3.4c0,1.9,0,3.9,0,5.8
		c0,0,0,0.1,0,0.2c0,0.3-0.1,0.7,0.5,0.9l0.2,0.1l0.1-0.2c0-0.1,0-0.1,0.1-0.2c0-0.1,0.1-0.3,0.1-0.4c0-0.5,0.1-0.9,0.1-1.4
		c0-0.6,0.1-1.2,0.1-1.8c0.3-2.9,0.9-5.8,1.9-8.6c1.1-3.1,2.5-5.7,4.3-8c3-3.7,6.8-6,11.3-6.9c0.4-0.1,0.8-0.1,1.3-0.2
		c0.2,0,0.3,0,0.5,0c0,0.1,0,0.2,0,0.3c0,0.3,0,0.6,0,0.9c0,11.7,0,23.4,0,35.1v32.3c0,0.7-0.3,1-1,1c-1.4,0-2.8,0-4.1,0
		c-1.1,0-2.2,0-3.3,0h-0.5v0.6h0.2c4,0,8.6,0,13.5,0c7.1,0,14.9,0,22.6-0.2h0.9l-0.8-0.4c-0.3-0.2-0.7-0.2-1-0.2c-1.3,0-2.5,0-3.8,0
		h-2.8c-0.3,0-0.6,0-0.9,0c-0.3,0-0.4-0.1-0.4-0.4c0-0.2,0-0.4,0-0.6c0-22.5,0-45.1,0-67.6c0-0.2,0-0.4,0-0.7c0-0.1,0-0.2,0-0.3
		c0.3,0.1,0.7,0.1,1,0.2c0.8,0.1,1.6,0.3,2.3,0.5c3.7,1,6.8,3,9.3,6c2.9,3.4,4.9,7.7,6.1,12.9c0.5,2.1,0.8,4.4,0.9,7.4
		c0,0.1,0.1,0.3,0.1,0.4c0,0.1,0.1,0.1,0.1,0.2l0.2,0.5l0.2-0.5c0.1-0.3,0.2-3.1,0.2-6.8C212.5,152.5,212.4,139.8,212.2,139.1
		L212.2,139.1z"/>
	<path d="M150.6,178c-1.5-2.9-3.7-5.4-6.7-7.8c-3.2-2.5-6.7-4.4-10.7-6.3c-1.4-0.7-2.8-1.3-4.1-2c-1.7-0.8-3.5-1.7-5.2-2.6
		c-2.5-1.3-4.3-2.5-5.8-4c-0.4-0.4-0.7-0.7-1-1.1c-0.9-1.1-1.4-2.3-1.6-3.5c-0.3-2.4,0.2-4.5,1.5-6.5c0.2-0.3,0.4-0.6,0.6-0.8
		c1.7-2,3.9-3.2,6.8-3.5c0.3,0,0.6-0.1,1-0.1c2.2-0.1,4.5,0.5,6.9,1.8c2.9,1.5,5.4,3.9,7.7,7.2c3.4,5,5.6,10.4,6.5,16.1
		c0,0.2,0.1,0.5,0.2,0.7c0,0.1,0.1,0.2,0.1,0.3v0.2l0.6-0.1v-0.2c0-0.1,0-0.2,0-0.3c0-0.3,0.1-0.5,0.1-0.8c0-6.4,0-12.8,0-19.2v-3.9
		c0-0.6,0-1.1,0-1.7c0-0.2,0-0.4-0.1-0.5c0-0.1,0-0.2,0-0.2V139l-0.4,0c-0.5,0.2-0.5,0.5-0.6,0.7c0,0.1,0,0.1,0,0.1
		c-0.1,0.2-0.1,0.5-0.1,0.7c-0.1,0.6-0.3,1.3-0.5,1.9c-0.2,0.7-0.8,1.2-1.5,1.2c-0.8,0.1-1.6,0-2.4-0.1c-1.6-0.3-3.1-0.9-4.6-1.5
		l-0.5-0.2c-0.4-0.1-0.7-0.3-1.1-0.4c-1.9-0.8-4-1.6-6-2.1c-2.8-0.7-5.7-0.7-8.5,0c-2.8,0.6-5.5,1.9-7.9,3.8
		c-3.4,2.7-5.9,6.2-7.3,10.5c-0.8,2.3-1.1,4.8-0.9,7.8c0.2,3.4,1.2,6.6,2.9,9.5c1.5,2.4,3.5,4.7,6.2,6.8c2.9,2.3,6.1,4.1,9.2,5.7
		c1.1,0.6,2.2,1.2,3.4,1.8c1.9,1,3.8,2,5.6,3c2.3,1.3,4.1,2.6,5.6,4.2c1.8,1.9,2.8,4,2.9,6.2c0.1,2.1-0.2,3.8-0.9,5.3
		c-1.5,3.1-4,4.7-7.9,4.9c-2.5,0.1-5-0.5-7.6-1.7c-3.4-1.7-6.3-4.2-9.2-7.9c-2.5-3.3-4.6-7.1-6.2-11.3c-1-2.8-1.7-5-2-7.1
		c-0.1-0.6-0.2-1.2-0.2-1.8c-0.1-0.5-0.1-1-0.2-1.5c0-0.2-0.1-0.3-0.2-0.4l-0.1-0.1l-0.1-0.1l-0.5,0.1v0.1c0,0.1,0,0.2,0,0.2
		c0,0.2-0.1,0.4-0.1,0.6c-0.2,6.2-0.1,32.3,0.2,33.2l0.1,0.2l0.2-0.1c0.5-0.3,0.5-0.7,0.6-1v-0.1c0.2-1,0.6-1.9,1.1-2.7
		c1.3-2,3.1-3,5.3-2.9c1.5,0.1,3,0.4,4.4,1c1.1,0.5,2.2,1,3.3,1.5c0.9,0.4,1.7,0.8,2.6,1.1c2.1,0.9,4,1.5,5.9,1.7
		c0.3,0,0.5,0.1,0.8,0.1c2.3,0.1,4.3,0,6.2-0.4c2.2-0.4,4.1-1.1,5.8-2.1c2.2-1.2,4.2-2.8,5.8-4.6c2.2-2.6,3.8-5.7,4.6-9.2
		c0.4-1.9,0.6-4,0.6-6.2C152.8,183.8,152,180.7,150.6,178L150.6,178z"/>
	<path d="M62.2,182.2c0-0.1-0.1-0.1-0.1-0.2l-0.2-0.4l-0.1,0.4c0,0.1-0.1,0.2-0.1,0.3c-0.1,0.1-0.1,0.2-0.1,0.3
		c-0.1,0.6-0.3,1.2-0.4,1.9c-0.3,1.3-0.5,2.6-0.8,3.9c-1,3.6-2.5,7.1-4.6,10.1c-2.5,3.7-5.7,6.4-9.4,8.2c-2.2,1.1-4.5,1.8-6.8,2.1
		s-4.8,0.6-7.4,0.6c-0.6,0-0.9-0.3-0.9-0.9v-0.3v-63V144c0-1.2,0-2.3,0-3.5c0-0.5,0.3-0.8,0.8-0.8c0.9,0,1.8,0,2.7,0H37
		c0.8,0,1.6,0,2.3,0h0.1c0.2,0,0.6,0,0.8-0.4l0.1-0.2l-0.2-0.1c-0.7-0.2-34-0.3-34.9,0H5.1L5,139.5h0.2c0.1,0,0.2,0,0.3,0
		c0.2,0,0.4,0.1,0.7,0.1c1.3,0,2.5,0,3.8,0h2.5c0.8,0,1.3,0.4,1.3,1.3v66.8v0.2c0,0.2,0,0.3,0,0.5c0,0.6-0.3,0.9-0.9,0.9
		c-1.2,0-2.4,0-3.6,0c-1,0-2,0-3,0c-0.2,0-0.4,0-0.5,0l-0.7,0.1l0.4,0.3c0.3,0.2,0.6,0.3,0.8,0.3H8c2.2,0,4.5,0,6.7,0H15
		c2.7,0,5.5,0,8.2,0c3.2,0,6.3,0,9.5,0c6.1,0,12.1,0,18.2,0h10.4l0,0c0.1,0,0.1,0,0.2,0c0.1,0,0.2,0,0.2,0c0.1,0,0.1,0,0.2,0H62
		c0.1,0,0.1,0,0.2,0c0,0,0,0,0.1,0s0.1-0.1,0.1-0.1l0,0c0.2-0.2,0.2-0.5,0.2-1.1v-25.4v-0.2c0-0.2,0-0.4,0-0.6
		C62.3,182.5,62.3,182.4,62.2,182.2L62.2,182.2z"/>
	<path d="M100.8,139c-0.3,0-0.5,0-0.7,0c-10.5,0-21.1,0-31.6,0h-2.9h-0.2c-0.2,0-0.3,0-0.5,0c-0.1,0-0.3,0.1-0.4,0.1
		c0,0-0.1,0-0.1,0.1l-0.3,0.1l0.3,0.2c0.3,0.2,0.5,0.3,0.8,0.3c0.9,0,1.8,0,2.6,0H70c1,0,2,0,3,0c0.5,0,0.5,0,0.5,0.5
		c0,0.1,0,0.2,0,0.3v0.1v67.1v0.2c0,0.2,0,0.5,0,0.7c0,0.4-0.2,0.6-0.6,0.6c-0.1,0-0.3,0-0.4,0h-1.8c-1.7,0-3.5,0-5.2,0
		c-0.2,0-0.3,0-0.4,0.1c-0.1,0-0.1,0-0.2,0l-0.2,0.1l0.1,0.5h36.4v-0.6h-2.9c-1.6,0-3.1,0-4.7,0c-0.9,0-1.3-0.4-1.3-1.3v-66.9v-0.3
		c0-0.5,0-0.8,0.1-1c0.1-0.1,0.5-0.1,1-0.1h2.4c1.5,0,3,0,4.5,0h0.1c0.3,0,0.7,0,1-0.5l0.2-0.3h-0.3C101,139,100.9,139,100.8,139
		L100.8,139z"/>
	<path d="M144.2,128.5c2.9-2.7,5.2-6.3,6.8-11c0.8-2.4,1.3-5,1.8-7.4c0.1-0.3,0.2-0.5,0.4-0.7l0.3-0.3v0.4c0.2,1.6,0.2,3.1,0.2,4.7
		c0,0.5,0,0.9,0,1.4c0,1.4,0,2.8,0,4.2v4.5v9.2h0.1c0.2,0,0.3,0,0.4,0c1.9,0,3.7,0,5.6,0c0.5,0,0.8-0.2,0.8-0.7c0-0.2,0-0.5,0-0.7
		v-0.3v-14.7c0-14.7,0-29.4,0-44.2c0-0.8,0-1.2-0.2-1.4c-0.1-0.1-0.4-0.1-0.9-0.1c-0.1,0-0.3,0-0.5,0c-0.8,0-1.6,0-2.4,0
		c-0.6,0-1.2,0-1.8,0c-0.2,0-0.4,0-0.6,0h-0.4v-0.6h0.5c0.2,0,0.5,0,0.7,0h9.2c5.1,0,10.3,0,15.4,0l0,0c4,0,7.6,0.6,11,1.8
		c7.9,2.9,13.9,7.9,17.7,15c1.7,3.3,2.8,6.8,3.3,10.9c0.5,3.8,0.3,7.5-0.4,11.2c-0.9,4.5-2.8,8.6-5.5,12.2c-4,5.3-9.3,9-15.9,11.1
		c-2.6,0.8-5.3,1.3-8.2,1.4c-3.8,0.2-7.7,0.2-11.6,0.2c-2.2,0-4.4,0-6.6,0c-2.7,0-5.5,0-8.3,0c-4.9,0-9.9,0-14.8,0
		c-4.9,0-9.9,0-14.7,0c-3.7,0-7.5,0-11.2,0c-2.4,0-4.8,0-7.3,0c-0.1,0-0.1,0-0.2,0c-0.3,0-0.7,0.1-0.9-0.4l-0.1-0.1l0.1-0.1
		c0.2-0.4,0.6-0.4,0.9-0.3c0.1,0,0.1,0,0.2,0c1,0,2,0,3.1,0c0.7,0,1.3,0,2,0c0.2,0,0.4,0,0.7,0h0.2c0-0.1,0-0.2,0-0.3
		c0-0.3,0-0.6,0-0.8c0-14.2,0-28.3,0-42.5V74.7c0-0.7,0-1.4,0-2.1c0-0.6-0.3-1-1-1c-0.8,0-1.5,0-2.3,0s-1.6,0-2.4,0
		c-0.2,0-0.4,0-0.6,0h-0.5V71h28.4l0.1,0.5h-0.2c-0.1,0-0.1,0-0.2,0c-0.1,0-0.3,0.1-0.5,0.1c-1.2,0-2.4,0-3.6,0H129
		c-0.1,0-0.2,0-0.3,0s-0.2,0-0.3,0l0,0c-0.3,0-0.5,0.1-0.5,0.5c0,0.2,0,0.4,0,0.6v60c0,0.1,0,0.2,0,0.3c0,0.5,0.2,0.7,0.7,0.7
		c2.2,0,4.5,0.1,6.6-0.4C138.8,132.4,141.7,130.9,144.2,128.5L144.2,128.5z M175.3,102.4L175.3,102.4v29.5c0,0.1,0,0.3,0,0.4
		c0,0.3,0,0.5,0,0.8c0,0.4,0.2,0.6,0.6,0.6c0.9,0,1.7,0,2.6,0c0.6,0,1.2,0,1.8,0h0.1c1.4,0,2.7-0.1,4-0.4c4.3-0.9,7.5-3.3,9.5-7.1
		c1.8-3.5,2.4-7.2,2.8-10.4c0.3-2.5,0.5-4.6,0.5-6.6c0.1-4.6,0.2-9.3-0.1-14V95c-0.2-2.9-0.4-6-1-8.9c-0.6-2.8-1.3-5-2.3-7
		c-1.9-3.7-4.9-6-8.9-6.9c-2-0.5-4.1-0.7-6.2-0.7c-0.4,0-0.9,0-1.3,0h-0.9c-0.5,0-0.8,0-0.9,0.1c-0.1,0.1-0.1,0.5-0.1,1.2
		c0,7.5,0,14.9,0,22.3L175.3,102.4L175.3,102.4z"/>
	<path d="M78.1,135.7c-5-0.5-9.7-2.6-14.3-6.3c-3.4-2.8-6.2-6.2-8.5-10.2c-1.7-3.1-2.9-6.4-3.6-9.9c-0.6-2.7-0.7-5.6-0.6-8.6
		c0.2-3.6,1-7.3,2.4-10.7c1.5-3.7,3.6-7.2,6.3-10.2c2.2-2.5,4.8-4.7,7.8-6.5c2.8-1.7,5.7-2.8,8.6-3.3c2.1-0.4,4-0.5,5.7-0.3
		c6.3,0.7,11.9,3.4,17.1,8.5c3.1,3,5.5,6.6,7.4,10.6c0.8,1.7,1.4,3.4,1.8,5.2c0.8,2.9,1.2,6,1.2,9.4l0,0c0,0.7,0,1.3-0.1,2
		c-0.3,4.6-1.7,9.3-4,13.6c-2.1,3.9-4.8,7.4-8.2,10.2c-0.5,0.4-1,0.8-1.5,1.2c-3.8,2.9-7.5,4.6-11.6,5.3c-1.4,0.2-2.7,0.4-3.9,0.4
		C79.6,135.8,78.9,135.8,78.1,135.7L78.1,135.7z M80.5,70.2c-0.8,0-1.7,0.1-2.8,0.3c-1.6,0.3-3,0.9-4.2,1.9c-1.7,1.4-2.9,3.2-4,6
		c-1.1,3-1.7,6.3-2.1,10.7c-0.3,3.2-0.5,6.6-0.6,10.3c-0.1,2.3,0,4.6,0,6.9c0,0.8,0,1.7,0,2.5v0.5c0,1,0,2,0.1,3.1
		c0.2,2.5,0.5,5.2,0.9,7.9c0.5,3.4,1.3,6.3,2.5,8.7c1.3,2.7,3.1,4.4,5.5,5.2c1.2,0.4,2.5,0.7,4,0.7c1.6,0.1,3.2-0.2,4.7-0.7
		c2.5-0.8,4.3-2.6,5.7-5.4c1.2-2.4,1.8-5.1,2.2-7.3c0.7-3.6,1-7.1,1.1-10.5c0.1-1.9,0.1-3.9,0.1-5.9c0-0.8,0-1.6,0-2.4h-0.1v-0.2
		c0-0.7,0-1.5,0-2.2c0-1.7,0-3.4,0-5c-0.1-1.9-0.1-4.2-0.4-6.5c-0.3-2.5-0.7-5-1.2-7.1c-0.4-2.4-1.2-4.6-2.4-6.5
		c-1.8-3.1-4.5-4.8-8.3-5.1C81.2,70.2,80.8,70.2,80.5,70.2L80.5,70.2z"/>
	<path class="st0" d="M46.5,76.7c2.5-0.9,7.1-3.3,9-9c1.6-4.6,1.3-8.7-0.7-11.5c-1.5-2-3.8-3.2-6.8-3.6c-0.2,0-0.4-0.1-0.5-0.1
		c-2.8-0.4-5.2,0.4-7.2,2.3c-2.8,2.8-3.6,6.2-2.5,10.1c0.8,2.6,2.4,4.6,4.8,5.7c1.2,0.6,2.5,0.8,3.7,0.8c3.2,0,6.2-1.9,7.8-5.2
		c1.8-3.7,1.1-8-1.7-11.1l0,0l0.9,0.2c0.4,0.4,0.8,0.8,1.1,1.2c1.9,2.6,2.1,6.6,0.6,11c-1.8,5.5-6.3,7.8-8.7,8.7
		c-0.4,0-0.6-0.3-0.8-0.5l-0.2-0.3c-0.6-0.8-1.3-1.6-2-2.4c-2.6-2.5-5.8-4.2-9.8-5c-0.9-0.2-1.9-0.4-2.9-0.4c-0.1,0-0.2,0-0.3,0
		c-1.2-0.1-2.3-0.1-3.1,0l0,0c-0.3,0-0.7,0-1,0s-0.5,0.1-0.8,0.1c0,0,0,0-0.1,0l0,0c-2.9,0.4-5.5,1.2-7.7,2.5
		c-3.6,2.1-6.2,4.9-7.6,8.6c-0.9,2.1-1.2,4.4-1.2,6.9c0,2,0.5,4,1.4,6.2c0.9,2.3,2.5,4.1,4.1,5.8l0.2,0.2c-0.4,0.3-1,0.6-1.6,1
		c-0.2,0.1-0.4,0.1-0.6,0.2l-0.5,0.3c-0.2,0.1-0.4,0.3-0.6,0.4c0,0,0,0-0.1,0l0,0c-0.6,0.4-1.3,0.9-1.9,1.4c-1.1,0.9-2,2.1-2.7,3.7
		c-0.9,2-1,4.1-0.9,5.9c0.2,3.3,1.4,6.1,3.7,8.2c1.5,1.4,3.3,2.3,4.7,2.9c0.2,0.1,0.4,0.2,0.6,0.3h0.1l-0.2,0.1
		c-0.3,0.1-0.6,0.2-1,0.2c-1.6,0.4-3,0.9-4.2,1.6c-3.8,2.2-5.7,5.7-5.6,10.3c0,0.9,0.2,1.1,1.1,1.1l0,0c2.1,0,4.2,0,6.2-0.1
		c0.1,0,0.3,0,0.4-0.1c0.1,0,0.1,0,0.2,0h0.1v-0.1c0-0.1,0-0.1,0-0.2c0-0.1,0-0.2,0-0.4c-0.1-1.2-0.1-2.5,0.1-3.8
		c0.1-0.4,0.2-0.9,0.3-1.4c0.1-0.3,0.2-0.6,0.3-0.9c0.7-2.1,1.9-3.9,3.5-5.3c0.5-0.4,1-0.5,1.6-0.4c1.6,0.4,3.7,0.9,5.9,1.3
		c1.2,0.2,2.4,0.4,3.6,0.6c2.7,0.4,5.6,0.9,8.3,1.6c1.9,0.5,4.2,1.2,6.2,2.4c1.7,1,2.8,2.3,3.4,3.7c1.4,3.8,0.9,7.2-1.4,10.2
		c-0.5,0.7-1.2,1.3-1.9,1.9c-0.2,0.2-0.4,0.4-0.6,0.5c-0.4,0.3-0.8,0.7-0.4,1.4v0.1h0.1h0.1c0.1,0,0.1,0,0.2,0h0.1
		c0.1,0,0.3-0.1,0.4-0.1c3.1-1.5,5.6-3.3,7.6-5.6c2.7-3.2,4.3-6.8,4.7-10.7c0.1-1,0.1-2,0.1-3.1s-0.1-2.1-0.3-3.3
		c-0.3-2.2-1-4.3-2-6.2c-1.7-3.1-4.2-5.4-7.9-7.1c-2.8-1.3-5.9-2.2-9.2-2.6c-2.4-0.3-4.9-0.5-7.3-0.7c-1-0.1-2-0.2-3.1-0.3
		c-2.1-0.2-4.4-0.4-6.8-0.8c-0.8-0.1-1.5-0.3-2.3-0.5c-0.9-0.2-1.8-0.6-2.7-1.2c-0.8-0.5-1.1-1.3-1.1-2.3s0.5-1.8,1.2-2.5
		c0.2-0.1,0.3-0.3,0.5-0.4l0.3-0.3l0,0c0.5-0.4,0.9-0.7,1.3-0.9c0.1,0,0.1,0.1,0.2,0.1h0.1l0.3,0.2c0.2,0.1,0.5,0.3,0.7,0.4
		c0.4,0.2,0.8,0.4,1.2,0.6c0.9,0.5,1.8,1,2.7,1.4c1.5,0.6,3.1,1.1,5,1.3c1.1,0.1,2.3,0.2,3.5,0.2l0,0c2.7,0,5.1-0.4,7.4-1.2
		c0.3-0.1,0.6-0.2,1-0.4c3.8-1.5,6.7-3.9,8.7-7c0.6-1,1.1-2,1.6-3.1c0.8-2.1,1.2-4.2,1.1-6.5c-0.1-1.1-0.2-2.2-0.5-3.4
		c-0.2-0.7-0.4-1.4-0.7-2.1c-0.1-0.2-0.2-0.5-0.3-0.7c-0.1-0.3-0.3-0.6-0.4-0.9v-0.1C46.4,77,46.3,76.9,46.5,76.7L46.5,76.7z
		 M34.7,95.3c-0.3,1.6-0.8,3.4-2,4.9c-1.9,2.3-4.9,2.6-7.3,0.8c-0.2-0.1-0.3-0.3-0.5-0.4c-1-1-1.6-2.3-2-3.6c-0.7-2.3-1-4.6-1.1-6.4
		c-0.3-3.7-0.3-7.4,0-11.1c0.2-2,0.4-4.3,1.1-6.5c0.5-1.5,1.1-3,2.4-3.9c0.5-0.3,1-0.6,1.5-0.8c0.1,0,0.2-0.1,0.3-0.1
		c0.9-0.1,1.8-0.1,2.6-0.1c1.8,0.5,3.2,1.7,4,3.7c0.7,1.5,1.1,3.1,1.3,4.8c0.2,2,0.4,4.1,0.5,6.1C35.7,87.3,35.5,91.4,34.7,95.3z"/>
	<path d="M131.3,40C131.3,40,131.3,39.9,131.3,40c-0.1-0.1-0.1-0.1-0.1-0.1h-0.1v0.2h0.1C131.2,40.1,131.2,40.1,131.3,40
		C131.3,40.1,131.3,40,131.3,40L131.3,40 M131,39.8h0.2c0.1,0,0.1,0,0.1,0c0.1,0,0.1,0.1,0.1,0.1s0,0.1-0.1,0.1c0,0,0,0-0.1,0
		c0,0,0.1,0,0.1,0.1v0.1l0,0l0,0l0,0l0,0h-0.1l0,0l0,0l0,0l0,0c0-0.1,0-0.1,0-0.1h-0.1H131v0.2h0C131,40.4,131,39.8,131,39.8z
		 M131.2,39.7c-0.1,0-0.2,0-0.3,0.1s-0.1,0.2-0.1,0.3s0,0.2,0.1,0.3s0.2,0.1,0.3,0.1s0.2,0,0.3-0.1s0.1-0.2,0.1-0.3s0-0.2-0.1-0.3
		S131.3,39.7,131.2,39.7C131.1,39.7,131.2,39.7,131.2,39.7 M131.7,40.1c0,0.1,0,0.2-0.1,0.3s-0.2,0.1-0.3,0.1s-0.2,0-0.3-0.1
		s-0.1-0.2-0.1-0.3s0-0.2,0.1-0.3s0.2-0.1,0.3-0.1s0.2,0,0.3,0.1C131.6,39.9,131.7,40,131.7,40.1C131.7,40.2,131.7,40.1,131.7,40.1"
		/>
	<path d="M127.7,39.5C127.8,39.5,127.8,39.5,127.7,39.5l0.1,0.4c0.2-0.2,0.7-0.5,1.4-0.5s1.1,0.4,1.1,1v2.9c0,0.1,0,0.1-0.1,0.1
		h-0.3c-0.1,0-0.1,0-0.1-0.1v-2.8c0-0.4-0.2-0.6-0.7-0.6c-0.6,0-1,0.3-1.2,0.4v3c0,0.1,0,0.1-0.1,0.1h-0.3c-0.1,0-0.1,0-0.1-0.1
		v-3.7c0-0.1,0-0.1,0.1-0.1L127.7,39.5C127.8,39.5,127.7,39.5,127.7,39.5 M123.1,40.6v1.9c0,0.3,0.2,0.6,0.7,0.6
		c0.6,0,1-0.3,1.2-0.4v-2.2c-0.2-0.1-0.6-0.5-1.2-0.5C123.3,40,123.1,40.2,123.1,40.6 M123.7,43.5c-0.8,0-1.1-0.4-1.1-1v-2
		c0-0.6,0.3-1,1.1-1c0.7,0,1.1,0.3,1.4,0.5v-0.3c0-0.1,0-0.1,0.1-0.1h0.3c0.1,0,0.1,0,0.1,0.1v4.4c0,0.6-0.4,1-1.5,1H123
		c-0.1,0-0.1,0-0.1-0.1v-0.2c0-0.1,0-0.1,0.1-0.1h1.1c0.7,0,0.9-0.2,0.9-0.6v-1C124.8,43.2,124.4,43.5,123.7,43.5
		C122.9,43.5,123.7,43.5,123.7,43.5 M121,38v0.7c0,0.1,0,0.1-0.1,0.1h-0.3c-0.1,0-0.1,0-0.1-0.1V38c0-0.1,0-0.1,0.1-0.1L121,38
		C121,37.9,121,37.9,121,38 M121,39.6v3.7c0,0.1,0,0.1-0.1,0.1h-0.3c-0.1,0-0.1,0-0.1-0.1v-3.7c0-0.1,0-0.1,0.1-0.1L121,39.6
		C121,39.5,121,39.6,121,39.6 M118.5,40.6v-0.2c0-0.3-0.3-0.5-0.9-0.5s-0.9,0.2-0.9,0.5v0.2c0,0.2,0.2,0.4,0.4,0.4l1.2,0.4
		c0.4,0.1,0.7,0.4,0.7,0.8v0.5c0,0.5-0.4,0.9-1.5,0.9c-1,0-1.4-0.4-1.4-0.9v-0.2c0-0.1,0-0.1,0.1-0.1h0.3c0.1,0,0.1,0,0.1,0.1v0.2
		c0,0.3,0.3,0.5,0.9,0.5s0.9-0.2,0.9-0.5v-0.3c0-0.2-0.2-0.4-0.5-0.4l-1.2-0.4c-0.3-0.1-0.6-0.4-0.6-0.8v-0.3c0-0.5,0.4-0.9,1.4-0.9
		s1.4,0.4,1.4,0.9v0.2c0,0.1,0,0.1-0.1,0.1h-0.3C118.5,40.7,118.5,40.7,118.5,40.6 M112.5,40.5v0.6h1.9v-0.6c0-0.4-0.2-0.6-0.9-0.6
		C112.7,39.9,112.5,40.2,112.5,40.5 M114.8,40.5v1c0,0.1,0,0.1-0.1,0.1h-2.3v0.9c0,0.4,0.2,0.6,0.9,0.6c0.7,0,0.9-0.2,0.9-0.6v-0.1
		c0-0.1,0-0.1,0.1-0.1h0.3c0.1,0,0.1,0,0.1,0.1v0.2c0,0.6-0.4,1-1.5,1s-1.5-0.4-1.5-1v-2c0-0.6,0.4-1,1.5-1
		C114.5,39.5,114.8,39.9,114.8,40.5 M107.9,40.6v1.9c0,0.3,0.2,0.6,0.7,0.6c0.6,0,1-0.3,1.2-0.4v-2.2c-0.2-0.1-0.6-0.5-1.2-0.5
		C108.1,40,107.9,40.2,107.9,40.6 M109.8,43.3V43c-0.2,0.2-0.7,0.5-1.4,0.5c-0.8,0-1.1-0.4-1.1-1v-2c0-0.6,0.3-1,1.1-1
		c0.7,0,1.1,0.3,1.4,0.5v-2c0-0.1,0-0.1,0.1-0.1h0.3c0.1,0,0.1,0,0.1,0.1v5.3c0,0.1,0,0.1-0.1,0.1L109.8,43.3
		C109.8,43.5,109.8,43.4,109.8,43.3 M103.4,42.9v-1.3h-1.3c-0.1,0-0.1,0-0.1-0.1v-0.2c0-0.1,0-0.1,0.1-0.1h1.3v-1.3
		c0-0.1,0-0.1,0.1-0.1h0.2c0.1,0,0.1,0,0.1,0.1v1.3h1.3c0.1,0,0.1,0,0.1,0.1v0.2c0,0.1,0,0.1-0.1,0.1h-1.3v1.3c0,0.1,0,0.1-0.1,0.1
		L103.4,42.9C103.4,43,103.4,43,103.4,42.9 M99.3,40.6v-0.2c0-0.3-0.3-0.5-0.9-0.5s-0.9,0.2-0.9,0.5v0.2c0,0.2,0.2,0.4,0.4,0.4
		l1.2,0.4c0.4,0.1,0.7,0.4,0.7,0.8v0.5c0,0.5-0.4,0.9-1.5,0.9c-1,0-1.4-0.4-1.4-0.9v-0.2c0-0.1,0-0.1,0.1-0.1h0.3
		c0.1,0,0.1,0,0.1,0.1v0.2c0,0.3,0.3,0.5,0.9,0.5s0.9-0.2,0.9-0.5v-0.3c0-0.2-0.2-0.4-0.5-0.4l-1.2-0.4c-0.3-0.1-0.6-0.4-0.6-0.8
		v-0.3c0-0.5,0.4-0.9,1.4-0.9s1.4,0.4,1.4,0.9v0.2c0,0.1,0,0.1-0.1,0.1h-0.3C99.4,40.7,99.3,40.7,99.3,40.6 M95.9,39.5
		C96,39.5,96,39.5,95.9,39.5l0.1,0.4c0,0.1,0,0.1-0.1,0.1c-0.6,0-1.1,0.4-1.3,0.5v2.9c0,0.1,0,0.1-0.1,0.1h-0.3
		c-0.1,0-0.1,0-0.1-0.1v-3.7c0-0.1,0-0.1,0.1-0.1h0.3c0.1,0,0.1,0,0.1,0.1v0.4C94.9,39.8,95.3,39.5,95.9,39.5
		C96,39.5,95.9,39.5,95.9,39.5 M89.5,42.5v-2c0-0.6,0.4-1,1.5-1s1.5,0.4,1.5,1v2c0,0.6-0.4,1-1.5,1S89.5,43.1,89.5,42.5 M92,42.5
		v-1.9c0-0.4-0.2-0.6-1-0.6c-0.7,0-1,0.2-1,0.6v1.9c0,0.4,0.2,0.6,1,0.6C91.7,43.1,92,42.8,92,42.5 M87.9,38v0.7
		c0,0.1,0,0.1-0.1,0.1h-0.3c-0.1,0-0.1,0-0.1-0.1V38c0-0.1,0-0.1,0.1-0.1L87.9,38C87.9,37.9,87.9,37.9,87.9,38 M87.9,39.6v3.7
		c0,0.1,0,0.1-0.1,0.1h-0.3c-0.1,0-0.1,0-0.1-0.1v-3.7c0-0.1,0-0.1,0.1-0.1L87.9,39.6C87.9,39.5,87.9,39.6,87.9,39.6 M86.1,39.5
		C86.2,39.5,86.2,39.5,86.1,39.5l0.1,0.4c0,0.1,0,0.1-0.1,0.1c-0.6,0-1.1,0.4-1.3,0.5v2.9c0,0.1,0,0.1-0.1,0.1h-0.3
		c-0.1,0-0.1,0-0.1-0.1v-3.7c0-0.1,0-0.1,0.1-0.1h0.3c0.1,0,0.1,0,0.1,0.1v0.4C85,39.8,85.5,39.5,86.1,39.5L86.1,39.5 M80.3,40.5
		v0.6h1.9v-0.6c0-0.4-0.2-0.6-0.9-0.6C80.5,39.9,80.3,40.2,80.3,40.5 M82.7,40.5v1c0,0.1,0,0.1-0.1,0.1h-2.3v0.9
		c0,0.4,0.2,0.6,0.9,0.6c0.7,0,0.9-0.2,0.9-0.6v-0.1c0-0.1,0-0.1,0.1-0.1h0.3c0.1,0,0.1,0,0.1,0.1v0.2c0,0.6-0.4,1-1.5,1
		s-1.5-0.4-1.5-1v-2c0-0.6,0.4-1,1.5-1C82.4,39.5,82.7,39.9,82.7,40.5 M77.5,39.5h0.9c0.1,0,0.1,0,0.1,0.1v0.2c0,0.1,0,0.1-0.1,0.1
		h-0.9v2.4c0,0.4,0.2,0.6,0.9,0.6h0.1c0.1,0,0.1,0,0.1,0.1v0.2c0,0.1,0,0.1-0.1,0.1h-0.2c-1.1,0-1.4-0.4-1.4-1V40h-0.5
		c-0.1,0-0.1,0-0.1-0.1v-0.2c0-0.1,0-0.1,0.1-0.1h0.4h0.1v-0.8c0-0.1,0-0.1,0.1-0.1h0.3c0.1,0,0.1,0,0.1,0.1L77.5,39.5L77.5,39.5z
		 M72.5,39.5C72.6,39.5,72.6,39.5,72.5,39.5l0.1,0.4c0.2-0.2,0.7-0.5,1.4-0.5c0.7,0,1.1,0.4,1.1,1v2.9c0,0.1,0,0.1-0.1,0.1h-0.3
		c-0.1,0-0.1,0-0.1-0.1v-2.8c0-0.4-0.2-0.6-0.7-0.6c-0.6,0-1,0.3-1.2,0.4v3c0,0.1,0,0.1-0.1,0.1h-0.3c-0.1,0-0.1,0-0.1-0.1v-3.7
		c0-0.1,0-0.1,0.1-0.1L72.5,39.5C72.6,39.5,72.5,39.5,72.5,39.5 M70.4,38v0.7c0,0.1,0,0.1-0.1,0.1H70c-0.1,0-0.1,0-0.1-0.1V38
		c0-0.1,0-0.1,0.1-0.1L70.4,38C70.4,37.9,70.4,37.9,70.4,38 M70.4,39.6v3.7c0,0.1,0,0.1-0.1,0.1H70c-0.1,0-0.1,0-0.1-0.1v-3.7
		c0-0.1,0-0.1,0.1-0.1L70.4,39.6C70.4,39.5,70.4,39.6,70.4,39.6"/>
	<path d="M141.6,24.5c-0.1-3.8-0.4-6-1.6-7.1c-0.7-0.8-1.7-1-2.6-1c-1.2,0-2.4,0.2-3.3,1c-1.3,1.1-1.8,3.3-1.9,7.1H141.6
		C141.5,20.7,141.6,24.5,141.6,24.5 M149.2,34.1c0,1-0.8,1.8-1.9,1.8c-1,0-1.9-0.8-1.9-1.8s0.9-1.8,1.9-1.8
		C148.4,32.3,149.2,33.1,149.2,34.1S149.2,34.1,149.2,34.1 M79.9,35.4H70c-0.1,0-0.1-0.4,0-0.4h2.7c0.2,0,0.3,0,0.3-0.2V5.5
		c0-0.1-0.1-0.2-0.3-0.2H70c-0.1,0-0.1-0.4,0-0.4h6.8C77,4.9,77,5,77,5.1v29.8c0,0.1,0.1,0.2,0.3,0.2h2.6
		C80,35.1,79.9,35.4,79.9,35.4 M105.2,35.4h-7c-0.1,0-0.2,0-0.2-0.1v-3c-0.9,2.6-3.4,3.5-5.7,3.5c-5,0-8.2-2.4-8.2-7.2V16.9
		c0-0.1-0.1-0.2-0.3-0.2h-2.7c-0.1,0-0.1-0.4,0-0.4h6.6c0.1,0,0.2,0.1,0.2,0.1v14.4c0,3.2,2.8,4.6,4.5,4.6c3.2,0,4.9-1.6,5.7-3.9
		V16.9c0-0.1-0.1-0.2-0.3-0.2H95c-0.1,0-0.1-0.4,0-0.4h6.6c0.1,0,0.1,0.1,0.1,0.1v18.4c0,0.1,0.1,0.1,0.3,0.1h3.1
		C105.3,35.1,105.3,35.4,105.2,35.4 M145.3,24.7c0,0.1,0,0.1-0.1,0.1h-12.9c0,0.4,0,0.7,0,1.1c0,5.2,0.5,7.3,1.9,8.5
		c0.9,0.8,2.1,1,3.3,1c3.2,0,5.6-1.7,7.2-4.1c0,0,0.3,0.1,0.2,0.2c-1.7,2.6-4.3,4.3-7.4,4.3c-5.2,0-9-4.4-9-9.9s3.8-10,9-10
		C143,16,145.3,21.4,145.3,24.7C145.3,24.8,145.3,21.4,145.3,24.7C145.3,24.8,145.3,21.4,145.3,24.7 M130.1,35.4H123l-6.1-8.3
		l-5,6.1c-1.4,1.7-1.4,1.8-1.1,1.8h3.1c0.1,0,0.1,0.4,0,0.4h-7.2c-0.1,0-0.1-0.4,0-0.4h2.6c0.3,0,0.6-0.1,2-1.8l5.2-6.4l-7.3-9.9
		c-0.1-0.1-0.2-0.2-0.4-0.2h-2.7c-0.1,0-0.1-0.4,0-0.4h7l5.6,7.6l4.4-5.3c1.4-1.7,1.3-1.9,1-1.9h-3.3c-0.1,0-0.1-0.4,0-0.4h7.4
		c0.1,0,0.1,0.4,0,0.4h-2.7c-0.3,0-0.6,0.2-1.9,1.9l-4.6,5.6l7.9,10.7c0.1,0.1,0.2,0.1,0.4,0.1h2.8
		C130.2,35.1,130.2,35.4,130.1,35.4C130.1,35.4,130.2,35.4,130.1,35.4C130.1,35.4,130.2,35.4,130.1,35.4"/>
</g>
</svg>
